<?xml version="1.0" encoding="utf-8"?>
<!-- Generator: Adobe Illustrator 16.0.0, SVG Export Plug-In . SVG Version: 6.00 Build 0)  -->
<!DOCTYPE svg PUBLIC "-//W3C//DTD SVG 1.1//EN" "http://www.w3.org/Graphics/SVG/1.1/DTD/svg11.dtd">
<svg version="1.1" id="Layer_1" xmlns="http://www.w3.org/2000/svg" xmlns:xlink="http://www.w3.org/1999/xlink" x="0px" y="0px"
	 width="522px" height="275.915px" viewBox="0 0 522 275.915" enable-background="new 0 0 522 275.915" xml:space="preserve">
<g>
	<polygon fill="#B2B2B2" points="0,109.253 0,275.915 316.666,275.915 176.904,109.253 	"/>
	<polygon fill="#C7C6C7" points="176.904,109.253 316.666,275.915 522,275.915 522,109.253 	"/>
</g>
<polygon fill="#9D9D9B" points="26.108,100.749 58.343,42.344 60.128,54.746 60.128,81.411 43.118,108.749 "/>
<path fill="#F0F1F3" d="M463.657,42.344l0.095,0.191l0.001,0.006l0.154,0.326l32.216,58.386H25.877l32.216-58.386l0.02-0.02
	l0.115-0.27l0.116-0.234H463.657 M470,32.344H52c-6.627,0-12,12-12,12L0,109.253c0,0,5.373,12,12,12h498c6.628,0,12-5.373,12-12
	l-40-64.909C482,44.344,476.628,32.344,470,32.344z"/>
<polygon fill="#36A9E1" points="36.357,101.555 59.897,55.25 462.075,55.25 487.976,101.253 "/>
<g>
	<ellipse fill="#9D9D9B" cx="476.904" cy="50.71" rx="5.642" ry="4.114"/>
	<ellipse fill="#C7C6C7" cx="476.904" cy="50.71" rx="4.669" ry="3.405"/>
	<rect x="472.235" y="42.93" fill="#C7C6C7" width="9.338" height="7.78"/>
	<ellipse fill="#9D9D9B" cx="476.904" cy="42.93" rx="4.669" ry="3.404"/>
	<ellipse fill="#ECECEC" cx="476.904" cy="42.93" rx="4.28" ry="3.121"/>
</g>
<polygon fill="#9D9D9B" points="462.075,55.25 463.657,42.344 496.123,101.253 485.976,101.253 "/>
<polygon fill="#B2B2B2" points="463.657,42.344 462.075,55.25 59.897,55.25 58.343,42.344 "/>
<path fill="#5BBAE0" d="M453.544,18.715c0,0,4.025,1.911,1.355,14.812c-2.668,12.902-3.143,12.902-1.355,22.461
	c1.787,9.56-1.684,24.373-1.684,24.373l-7.037-2.381c0,0,2.07-6.636,2.07-12.433s-2.539-14.339-0.926-20.551
	s7.985-14.336,3.68-23.416"/>
<circle fill="#9D9D9B" cx="485.916" cy="65.088" r="5.649"/>
<path fill="#ECECEC" d="M459.153,0c-1.536-0.001-3.025,0.313-4.371,0.884c-2.02,0.856-3.723,2.271-4.933,4.061
	c-1.209,1.785-1.921,3.972-1.919,6.278v10.599h10.202V11.223c0.001-0.155,0.028-0.276,0.078-0.396
	c0.073-0.176,0.21-0.343,0.375-0.454c0.169-0.11,0.338-0.169,0.567-0.171h13.013L479.812,0H459.153z"/>
<path fill="#C7C6C7" d="M491.035,11.223c0.001-1.535-0.313-3.024-0.884-4.37c-0.855-2.021-2.272-3.724-4.061-4.933
	c-1.785-1.21-3.971-1.922-6.278-1.92l-7.646,10.202h7.646c0.155,0.001,0.276,0.028,0.396,0.078c0.177,0.073,0.343,0.21,0.453,0.375
	c0.111,0.169,0.17,0.338,0.172,0.567v50.599v2.705v0.268c0,0.003,0,0.006,0,0.008c0,0.003,0,0.006,0,0.009
	c0.004,2.813,2.286,5.093,5.101,5.093c2.631,0,4.794-1.99,5.07-4.548c0.021-0.182,0.031-0.365,0.031-0.554
	c0-0.039-0.005-0.077-0.006-0.118c0.001-0.053,0.006-0.104,0.006-0.157V11.223z"/>
<g>
	<ellipse fill="#9D9D9B" cx="494.904" cy="81.928" rx="5.988" ry="4.367"/>
	<ellipse fill="#C7C6C7" cx="494.904" cy="81.928" rx="4.956" ry="3.614"/>
	<rect x="489.948" y="73.668" fill="#C7C6C7" width="9.912" height="8.26"/>
	<ellipse fill="#9D9D9B" cx="494.904" cy="73.668" rx="4.956" ry="3.614"/>
	<ellipse fill="#ECECEC" cx="494.904" cy="73.668" rx="4.543" ry="3.313"/>
</g>
<ellipse fill="#5BBAE0" cx="450.159" cy="76.635" rx="13.682" ry="5.112"/>
<g>
	<path fill="#5BBAE0" d="M463.644,73.188c0,0,0.84,0.058,2.042,0.442c0.599,0.195,1.292,0.463,1.987,0.909
		c0.344,0.225,0.703,0.488,0.998,0.875c0.293,0.369,0.539,0.943,0.424,1.526c-0.121,0.575-0.479,0.963-0.809,1.275
		c-0.34,0.307-0.715,0.525-1.072,0.712c-0.72,0.382-1.426,0.599-2.029,0.771c-0.607,0.158-1.118,0.26-1.48,0.308
		s-0.569,0.075-0.569,0.075s0.185-0.097,0.509-0.265c0.322-0.158,0.784-0.384,1.338-0.655c0.539-0.284,1.178-0.594,1.789-0.994
		c0.313-0.189,0.6-0.426,0.859-0.659c0.246-0.24,0.447-0.514,0.484-0.758c0.127-0.461-0.391-1.065-0.951-1.496
		c-0.565-0.443-1.18-0.798-1.705-1.1C464.392,73.569,463.644,73.188,463.644,73.188z"/>
</g>
<g>
	<path fill="#5BBAE0" d="M437.203,79.975c0,0-0.86-0.078-2.081-0.508c-0.609-0.22-1.314-0.513-2.008-1
		c-0.344-0.245-0.702-0.527-0.984-0.938c-0.284-0.392-0.502-0.964-0.402-1.539c0.105-0.57,0.439-0.991,0.764-1.329
		c0.338-0.326,0.712-0.568,1.072-0.774c0.725-0.419,1.443-0.657,2.058-0.854c0.62-0.177,1.141-0.295,1.511-0.352
		c0.37-0.058,0.582-0.091,0.582-0.091s-0.188,0.102-0.518,0.279c-0.328,0.167-0.797,0.407-1.359,0.695
		c-0.543,0.306-1.193,0.635-1.805,1.066c-0.312,0.206-0.594,0.458-0.854,0.708c-0.238,0.261-0.428,0.547-0.465,0.817
		c-0.121,0.521,0.375,1.151,0.936,1.614c0.561,0.477,1.183,0.854,1.713,1.178C436.44,79.574,437.203,79.975,437.203,79.975z"/>
</g>
</svg>
