<?xml version="1.0" encoding="utf-8"?>
<!-- Generator: Adobe Illustrator 16.0.0, SVG Export Plug-In . SVG Version: 6.00 Build 0)  -->
<!DOCTYPE svg PUBLIC "-//W3C//DTD SVG 1.1//EN" "http://www.w3.org/Graphics/SVG/1.1/DTD/svg11.dtd">
<svg version="1.1" id="Layer_1" xmlns="http://www.w3.org/2000/svg" xmlns:xlink="http://www.w3.org/1999/xlink" x="0px" y="0px"
	 width="1286.036px" height="1650.65px" viewBox="0 0 1286.036 1650.65" enable-background="new 0 0 1286.036 1650.65"
	 xml:space="preserve">
<path fill="#B2B2B2" d="M0,391.76h389.62l-132-100H0.189"/>
<path fill="#CCCCCC" d="M681.873,335.224c-1.323-4.573-3.16-9.115-5.699-13.632c-1.908-3.385-4.217-6.759-7.077-10.056
	c-2.146-2.47-4.605-4.896-7.447-7.192c-4.254-3.438-9.414-6.601-15.453-8.907c-3.012-1.151-6.232-2.081-9.586-2.712
	c-3.352-0.633-6.832-0.966-10.322-0.965H257.62l132,100h194.856v80.868h100.001V353.76
	C684.472,347.491,683.628,341.321,681.873,335.224z"/>
<path fill="#9D9D9C" d="M690.62,461.754c0,6.627-1.033,12-2.309,12H579.444c-1.275,0-2.309-5.372-2.309-12l0,0
	c0-6.627,1.033-11.999,2.309-11.999h108.867C689.587,449.755,690.62,455.127,690.62,461.754L690.62,461.754z"/>
<path fill="#EDEDED" d="M634.478,672.244c-160.873,0-291.286-15.445-291.286-34.498h582.572
	C925.764,656.799,795.351,672.244,634.478,672.244z"/>
<path fill="#9D9D9C" d="M941.962,629.745c0,6.628-5.666,11.999-12.658,11.999H332.452c-6.991,0-12.658-5.371-12.658-11.999l0,0
	c0-6.627,5.667-11.999,12.658-11.999h596.852C936.296,617.746,941.962,623.118,941.962,629.745L941.962,629.745z"/>
<g opacity="0.5">
	<defs>
		<path id="SVGID_1_" opacity="0.5" d="M634.478,672.244c-160.873,0-291.286-15.445-291.286-34.498h582.572
			C925.764,656.799,795.351,672.244,634.478,672.244z"/>
	</defs>
	<clipPath id="SVGID_2_">
		<use xlink:href="#SVGID_1_"  overflow="visible"/>
	</clipPath>
	<g clip-path="url(#SVGID_2_)">
		<ellipse cx="370.878" cy="654.995" rx="12.375" ry="2.94"/>
		<ellipse cx="410.878" cy="654.995" rx="12.375" ry="2.94"/>
		<ellipse cx="450.878" cy="654.995" rx="12.375" ry="2.94"/>
		<ellipse cx="490.878" cy="654.995" rx="12.375" ry="2.94"/>
		<ellipse cx="530.878" cy="654.995" rx="12.375" ry="2.94"/>
		<ellipse cx="570.878" cy="654.995" rx="12.375" ry="2.94"/>
		<ellipse cx="610.878" cy="654.995" rx="12.375" ry="2.94"/>
		<ellipse cx="650.878" cy="654.995" rx="12.375" ry="2.94"/>
		<ellipse cx="690.878" cy="654.995" rx="12.375" ry="2.94"/>
		<ellipse cx="730.878" cy="654.995" rx="12.375" ry="2.94"/>
		<ellipse cx="770.878" cy="654.995" rx="12.375" ry="2.94"/>
		<ellipse cx="810.878" cy="654.995" rx="12.375" ry="2.94"/>
		<ellipse cx="850.878" cy="654.995" rx="12.375" ry="2.94"/>
		<ellipse cx="890.878" cy="654.995" rx="12.375" ry="2.94"/>
	</g>
	<g clip-path="url(#SVGID_2_)">
		<ellipse cx="350.878" cy="664.995" rx="12.375" ry="2.94"/>
		<ellipse cx="390.878" cy="664.995" rx="12.375" ry="2.94"/>
		<ellipse cx="430.878" cy="664.995" rx="12.375" ry="2.94"/>
		<ellipse cx="470.878" cy="664.995" rx="12.375" ry="2.94"/>
		<ellipse cx="510.878" cy="664.995" rx="12.375" ry="2.94"/>
		<ellipse cx="550.878" cy="664.995" rx="12.375" ry="2.94"/>
		<ellipse cx="590.878" cy="664.995" rx="12.375" ry="2.94"/>
		<ellipse cx="630.878" cy="664.995" rx="12.375" ry="2.94"/>
		<ellipse cx="670.878" cy="664.995" rx="12.375" ry="2.94"/>
		<ellipse cx="710.878" cy="664.995" rx="12.375" ry="2.94"/>
		<ellipse cx="750.878" cy="664.995" rx="12.375" ry="2.94"/>
		<ellipse cx="790.878" cy="664.995" rx="12.375" ry="2.94"/>
		<ellipse cx="830.878" cy="664.995" rx="12.375" ry="2.94"/>
		<ellipse cx="870.878" cy="664.995" rx="12.375" ry="2.94"/>
	</g>
	<g clip-path="url(#SVGID_2_)">
		<ellipse cx="370.878" cy="674.995" rx="12.375" ry="2.94"/>
		<ellipse cx="410.878" cy="674.995" rx="12.375" ry="2.94"/>
		<ellipse cx="450.878" cy="674.995" rx="12.375" ry="2.94"/>
		<ellipse cx="490.878" cy="674.995" rx="12.375" ry="2.94"/>
		<ellipse cx="530.878" cy="674.995" rx="12.375" ry="2.94"/>
		<ellipse cx="570.878" cy="674.995" rx="12.375" ry="2.94"/>
		<ellipse cx="610.878" cy="674.995" rx="12.375" ry="2.94"/>
		<ellipse cx="650.878" cy="674.995" rx="12.375" ry="2.94"/>
		<ellipse cx="690.878" cy="674.995" rx="12.375" ry="2.94"/>
		<ellipse cx="730.878" cy="674.995" rx="12.375" ry="2.94"/>
		<ellipse cx="770.878" cy="674.995" rx="12.375" ry="2.94"/>
		<ellipse cx="810.878" cy="674.995" rx="12.375" ry="2.94"/>
		<ellipse cx="850.878" cy="674.995" rx="12.375" ry="2.94"/>
		<ellipse cx="890.878" cy="674.995" rx="12.375" ry="2.94"/>
	</g>
</g>
<path fill="#B3B3B3" d="M634.478,461.754C375.335,492.857,394.62,617.746,394.62,617.746h531.144
	C925.764,531.594,795.351,461.754,634.478,461.754z"/>
<path fill="#B2B2B2" d="M634.478,461.754c-160.873,0-291.286,69.84-291.286,155.992h51.428
	C394.62,617.746,375.335,492.857,634.478,461.754z"/>
<rect x="404.62" y="654.995" opacity="0.5" fill="#5BBAE0" width="11" height="995.655"/>
<rect x="364.62" y="652.995" opacity="0.5" fill="#5BBAE0" width="11" height="997.655"/>
<rect x="444.62" y="654.995" opacity="0.5" fill="#5BBAE0" width="11" height="995.655"/>
<rect x="485.62" y="654.995" opacity="0.5" fill="#5BBAE0" width="11" height="995.655"/>
<rect x="525.62" y="654.995" opacity="0.5" fill="#5BBAE0" width="11" height="995.655"/>
<rect x="565.62" y="654.995" opacity="0.5" fill="#5BBAE0" width="11" height="995.655"/>
<rect x="605.62" y="654.995" opacity="0.5" fill="#5BBAE0" width="11" height="995.655"/>
<rect x="645.62" y="654.995" opacity="0.5" fill="#5BBAE0" width="11" height="995.655"/>
<rect x="685.62" y="654.995" opacity="0.5" fill="#5BBAE0" width="11" height="995.655"/>
<rect x="725.62" y="654.995" opacity="0.5" fill="#5BBAE0" width="11" height="995.655"/>
<rect x="765.62" y="654.995" opacity="0.5" fill="#5BBAE0" width="11" height="995.655"/>
<rect x="805.62" y="654.995" opacity="0.5" fill="#5BBAE0" width="11" height="995.655"/>
<rect x="845.62" y="654.995" opacity="0.5" fill="#5BBAE0" width="11" height="995.655"/>
<rect x="885.62" y="652.995" opacity="0.5" fill="#5BBAE0" width="11" height="997.655"/>
<rect x="384.62" y="663.995" fill="#36A9E1" width="11" height="986.655"/>
<rect x="424.62" y="663.995" fill="#36A9E1" width="11" height="986.655"/>
<rect x="465.62" y="663.995" fill="#36A9E1" width="11" height="986.655"/>
<rect x="505.62" y="663.995" fill="#36A9E1" width="11" height="986.655"/>
<rect x="545.62" y="663.995" fill="#36A9E1" width="11" height="986.655"/>
<rect x="585.62" y="663.995" fill="#36A9E1" width="11" height="986.655"/>
<rect x="625.62" y="663.995" fill="#36A9E1" width="11" height="986.655"/>
<rect x="665.62" y="663.995" fill="#36A9E1" width="11" height="986.655"/>
<rect x="705.62" y="663.995" fill="#36A9E1" width="11" height="986.655"/>
<rect x="745.62" y="663.995" fill="#36A9E1" width="11" height="986.655"/>
<rect x="785.62" y="663.995" fill="#36A9E1" width="11" height="986.655"/>
<rect x="825.62" y="663.995" fill="#36A9E1" width="11" height="986.655"/>
<rect x="865.62" y="661.995" fill="#36A9E1" width="11" height="986.655"/>
</svg>
