<?xml version="1.0" encoding="utf-8"?>
<!-- Generator: Adobe Illustrator 16.0.0, SVG Export Plug-In . SVG Version: 6.00 Build 0)  -->
<!DOCTYPE svg PUBLIC "-//W3C//DTD SVG 1.1//EN" "http://www.w3.org/Graphics/SVG/1.1/DTD/svg11.dtd">
<svg version="1.1" xmlns="http://www.w3.org/2000/svg" xmlns:xlink="http://www.w3.org/1999/xlink" x="0px" y="0px"
	 width="866.957px" height="734.902px" viewBox="0 0 866.957 734.902" enable-background="new 0 0 866.957 734.902"
	 xml:space="preserve">
<g id="Layer_1" display="none">
	<path display="inline" fill="#634E42" d="M219.042,93.477c0,0-32.619,32.988-48.32,109.089
		c-8.92,43.237-11.333,51.75-9.034,134.397c2.144,77.071,20.997,155.594,12,189.537s-28.695,67.201-46.729,89.715
		c-18.033,22.512-24.222,25.699-31.578,39.623c111.32-13.608,209.672,24.728,209.672,24.728s-60.703-43.853-63.665-39.04
		c-2.962,4.811-1.599-557.016-1.599-557.016"/>
	<path display="inline" fill="#1A1A1A" d="M435.542,595c-85.326,0-162.251-35.932-216.5-93.477v151.758h433V501.523
		C597.792,559.068,520.868,595,435.542,595z"/>
	<path display="inline" fill="#634E42" d="M435.542,595c85.326,0,162.251-35.932,216.5-93.477V94.477
		C597.792,36.932,520.868,0,435.542,0s-162.251,35.932-216.5,93.477v408.046C273.291,559.068,350.215,595,435.542,595z"/>
	<polygon display="inline" fill="#634E42" points="652.042,460 206.708,460 210.722,656.566 652.042,665.431 	"/>
	<polygon display="inline" fill="#57453A" points="270.042,385.046 270.042,693 608.042,693 608.042,372 	"/>
	<circle display="inline" fill="#57453A" cx="435.542" cy="297.5" r="187.5"/>
	<circle display="inline" fill="#EACA9B" cx="435.542" cy="267.5" r="187.5"/>
	<path display="inline" fill="#D8B78B" d="M505.719,67c0,0-32.099,128-125.696,148s-67.149,54.535-73.761,99.767
		S250.998,392,250.998,392l-11.957-29.096L270.999,84L505.719,67z"/>
	<path display="inline" fill="#634E42" d="M485.719,57c0,0-32.099,128-125.696,148s-67.149,54.535-73.761,99.767
		C279.65,350,288.812,368.824,250.998,410c-11.019,12-31.957-57.096-31.957-57.096L250.998,74L485.719,57z"/>
	<path display="inline" fill="#634E42" d="M446.042,57c0,0,24.796,128,97.097,148c72.3,20,51.871,54.535,56.979,99.767
		C605.223,350,598.146,368.824,627.355,410c8.513,12,24.687-57.096,24.687-57.096L627.355,74L446.042,57z"/>
	<g display="inline">
		<rect x="410.711" y="453.361" fill="#D8B78B" width="50.33" height="99.639"/>
		<path fill="#D8B78B" d="M563.642,598c-13.201-12.357-28.189-22.826-44.537-30.979V598H563.642z"/>
		<path fill="#D8B78B" d="M507.105,598v-36.443c-22.053-9.115-46.218-14.154-71.563-14.154c-29.184,0-56.809,6.668-81.438,18.562
			V598H507.105z"/>
		<path fill="#D8B78B" d="M342.104,572.306c-12.543,7.225-24.165,15.867-34.663,25.693h34.663V572.306z"/>
		<path fill="#563A8F" d="M563.642,598h-44.537v-30.979c-3.924-1.957-7.925-3.781-12-5.465V598H354.104v-32.035
			c-4.084,1.973-8.087,4.09-12,6.342V598h-34.663c-36.55,34.215-59.399,82.887-59.399,136.902h375
			C623.042,680.886,600.192,632.214,563.642,598z"/>
	</g>
	<polygon display="inline" points="463.542,379 401.792,379 387.792,359.5 480.542,359.5 	"/>
	<path display="inline" fill="#FFFFFF" d="M432.99,364.789c28.66,0.57,39.467-2.756,43.496-10.434
		c0.943-1.795,1.514,8.869,1.856,6.539c0.541-5.734,0.442-9.553,0.442-9.553s-20.971-7.994-45.795-8.367
		c-24.826-0.371-41.796,8.367-41.796,8.367s-4.106,0.846-3.498,6.619c0.343,2.088,0.892-5.855,1.761-4.262
		C393.459,361.031,404.246,364.214,432.99,364.789z"/>
	<rect x="442.792" y="345.25" display="inline" width="3.542" height="26"/>
	<path display="inline" fill-rule="evenodd" clip-rule="evenodd" fill="#BE1622" d="M478.145,350.089
		c-5.358-3.385-10.478-5.145-15.786-8.609c-4.676-3.053-9.746-5.109-15.451-3.889c-4.195,0.898-8.32,2.162-12.414,3.463
		c-1.197,0.381-2.1,0.338-3.22-0.09c-3.011-1.15-6.026-2.338-9.128-3.182c-5.369-1.459-10.571-1.088-15.242,2.314
		c-3.333,2.428-6.723,3.789-9.924,6.381c-5.921,4.795-12.238,5.605-20.476,6.037c3.774,6.168,7.706,11.746,12.315,16.834
		c6.614,7.301,14.074,13.586,23.086,17.662c16.021,7.25,31.999,5.988,47.602-1.346c11.001-5.172,19.842-13.133,27.156-22.777
		c2.278-3.004,4.307-6.195,6.584-9.498C487.384,353.121,482.607,352.908,478.145,350.089z M467.892,361.931
		c-3.851,5.92-13.348,10.928-20.193,13.559c-11.548,4.438-22.941,3.193-33.919-2.094c-10.699-5.154-16.106-16.201-18.029-17.217
		c-0.137-0.072-0.203-0.279-0.41-0.584c0.61-0.057,1.083-0.145,1.555-0.139c7.365,0.105,14.737,0.059,22.09,0.412
		c3.188,0.152,6.39-1.01,9.483-0.15c2.893,0.805,5.674,0.938,8.619,0.426c4.173-0.725,8.377,0.527,12.596,0.246
		c7.219-0.482,14.459-0.637,21.691-0.916c0.482-0.02,0.969,0.08,1.629,0.557C471.304,357.007,468.956,360.296,467.892,361.931z"/>
	<g display="inline">
		<path d="M346.647,267.5c0,0,0.701-1.043,2.144-2.706c1.449-1.65,3.633-3.938,6.595-6.323c1.484-1.185,3.134-2.436,5-3.587
			c1.858-1.16,3.872-2.334,6.093-3.283c2.195-1,4.567-1.85,7.046-2.486c2.483-0.632,5.083-1.001,7.703-1.127
			c0.653-0.061,1.312,0.001,1.966-0.002c0.655,0.027,1.312-0.01,1.962,0.073c1.3,0.142,2.604,0.228,3.864,0.525
			c0.633,0.127,1.263,0.253,1.89,0.379c0.611,0.186,1.219,0.371,1.823,0.555c1.221,0.331,2.365,0.821,3.493,1.285
			c1.146,0.426,2.192,1.012,3.224,1.561c1.05,0.517,1.978,1.186,2.908,1.781c0.46,0.307,0.925,0.592,1.36,0.903
			c0.421,0.33,0.835,0.655,1.243,0.975c0.792,0.667,1.614,1.235,2.285,1.919c1.396,1.303,2.664,2.495,3.644,3.69
			c1.024,1.148,1.899,2.155,2.527,3.064c1.305,1.773,2.003,2.804,2.003,2.804s-0.97-0.811-2.585-2.261
			c-0.779-0.753-1.842-1.543-2.998-2.497c-1.133-0.983-2.544-1.917-4.013-2.999c-0.718-0.565-1.572-0.998-2.394-1.526
			c-0.413-0.26-0.833-0.524-1.259-0.793c-0.435-0.252-0.895-0.476-1.349-0.721c-0.918-0.47-1.83-1.012-2.841-1.391
			c-1.002-0.393-1.969-0.921-3.04-1.231c-1.05-0.362-2.107-0.751-3.224-0.981c-0.551-0.135-1.105-0.271-1.663-0.407
			c-0.564-0.096-1.132-0.191-1.702-0.287c-1.131-0.244-2.301-0.259-3.46-0.39c-0.58-0.073-1.168-0.027-1.753-0.047
			c-0.585,0.009-1.172-0.044-1.758,0.015c-1.171,0.077-2.347,0.11-3.507,0.308c-1.167,0.128-2.316,0.364-3.458,0.595
			c-2.266,0.536-4.506,1.127-6.596,1.962c-2.101,0.795-4.102,1.684-5.962,2.621c-1.854,0.948-3.578,1.925-5.152,2.87
			c-1.552,0.976-2.981,1.882-4.21,2.746c-1.232,0.859-2.294,1.635-3.163,2.288C347.606,266.689,346.647,267.5,346.647,267.5z"/>
	</g>
	<g display="inline">
		<path d="M523.214,267.5c0,0-0.959-0.811-2.685-2.128c-0.869-0.652-1.931-1.429-3.163-2.288c-1.229-0.864-2.659-1.77-4.211-2.746
			c-1.574-0.944-3.298-1.922-5.152-2.869c-1.86-0.938-3.861-1.826-5.962-2.622c-2.09-0.835-4.329-1.426-6.596-1.962
			c-1.143-0.231-2.292-0.466-3.458-0.595c-1.16-0.198-2.336-0.231-3.508-0.308c-0.586-0.059-1.172-0.005-1.758-0.015
			c-0.584,0.021-1.173-0.025-1.753,0.047c-1.158,0.131-2.328,0.146-3.46,0.39c-0.569,0.096-1.138,0.191-1.702,0.287
			c-0.558,0.136-1.111,0.272-1.663,0.407c-1.116,0.23-2.174,0.62-3.224,0.981c-1.07,0.31-2.037,0.838-3.04,1.231
			c-1.011,0.379-1.922,0.92-2.841,1.391c-0.454,0.245-0.914,0.468-1.349,0.721c-0.427,0.269-0.847,0.533-1.26,0.793
			c-0.821,0.528-1.676,0.961-2.394,1.526c-1.469,1.082-2.881,2.016-4.014,2.999c-1.156,0.954-2.219,1.743-2.998,2.497
			c-1.615,1.45-2.585,2.261-2.585,2.261s0.698-1.031,2.003-2.804c0.628-0.91,1.503-1.916,2.527-3.064
			c0.979-1.195,2.247-2.387,3.644-3.69c0.671-0.684,1.494-1.251,2.285-1.919c0.407-0.32,0.822-0.645,1.243-0.975
			c0.435-0.311,0.899-0.596,1.359-0.903c0.931-0.595,1.858-1.264,2.908-1.781c1.031-0.549,2.078-1.134,3.224-1.561
			c1.129-0.464,2.272-0.955,3.493-1.285c0.604-0.184,1.213-0.369,1.823-0.555c0.627-0.126,1.258-0.252,1.891-0.379
			c1.26-0.297,2.563-0.383,3.864-0.525c0.649-0.083,1.307-0.046,1.962-0.073c0.654,0.003,1.313-0.059,1.966,0.002
			c2.62,0.126,5.22,0.496,7.703,1.127c2.479,0.636,4.851,1.486,7.046,2.486c2.222,0.949,4.235,2.123,6.093,3.283
			c1.867,1.151,3.517,2.402,5,3.587c2.962,2.385,5.146,4.673,6.595,6.323C522.513,266.456,523.214,267.5,523.214,267.5z"/>
	</g>
	<path display="inline" fill="#634E42" d="M652.042,94.477c0,0,25.193,19.83,44.847,115.089c8.715,42.239,10.5,32.893,11.5,112.5
		c1,79.604-26,169.812-20,204.5c6,34.686,13.653,84.742,29.653,108.803s16.347,29.031,28,42.336
		c-48.153-17.805-132.143,2.861-132.143,2.861s-14.59-34.994-12.06-29.93C604.371,655.701,652.042,94.477,652.042,94.477"/>
	<g display="inline">
		<path fill="#D3967A" d="M417.822,311.56c0,0,0.234-0.521,0.785-1.346c0.551-0.822,1.422-1.947,2.658-3.137
			c1.244-1.172,2.855-2.424,4.846-3.395c1.969-0.99,4.335-1.672,6.786-1.779c1.222-0.023,2.46,0.041,3.638,0.311l0.879,0.191
			l0.846,0.275c0.564,0.168,1.092,0.402,1.605,0.645c1.023,0.477,1.949,1.049,2.752,1.664c0.414,0.293,0.789,0.607,1.131,0.932
			c0.34,0.33,0.695,0.607,0.975,0.943c0.582,0.643,1.096,1.234,1.482,1.816c0.41,0.557,0.74,1.059,0.971,1.5
			c0.484,0.865,0.713,1.379,0.713,1.379s-0.5-0.293-1.293-0.836c-0.384-0.285-0.901-0.57-1.443-0.932
			c-0.539-0.371-1.196-0.707-1.865-1.107c-0.329-0.211-0.706-0.371-1.072-0.564c-0.366-0.195-0.742-0.393-1.147-0.549
			c-0.784-0.365-1.628-0.68-2.499-0.943s-1.775-0.479-2.701-0.592c-0.924-0.133-1.869-0.17-2.816-0.137
			c-0.949,0.031-1.898,0.156-2.838,0.332c-0.934,0.197-1.861,0.42-2.752,0.721c-1.788,0.568-3.439,1.32-4.863,2.01
			c-1.426,0.695-2.607,1.357-3.449,1.83C418.304,311.281,417.822,311.56,417.822,311.56z"/>
	</g>
	<g display="inline">
		<path d="M534.508,240.918c0,0,0.075,0.549,0.042,1.509c-0.033,0.958-0.178,2.327-0.593,3.937c-0.43,1.599-1.124,3.449-2.276,5.258
			c-1.125,1.816-2.738,3.576-4.715,4.904c-1,0.637-2.058,1.208-3.17,1.58l-0.826,0.285l-0.839,0.197
			c-0.553,0.145-1.108,0.217-1.655,0.275c-1.089,0.12-2.144,0.11-3.118,0.004c-0.49-0.037-0.958-0.108-1.405-0.206
			c-0.446-0.103-0.881-0.156-1.28-0.294c-0.805-0.241-1.526-0.477-2.137-0.767c-0.619-0.257-1.143-0.509-1.555-0.76
			c-0.833-0.479-1.278-0.792-1.278-0.792s0.562-0.016,1.491,0.025c0.461,0.039,1.031,0.008,1.661,0.03
			c0.631,0.031,1.343-0.028,2.096-0.039c0.377,0.007,0.767-0.054,1.166-0.08c0.399-0.025,0.808-0.053,1.221-0.13
			c0.828-0.097,1.679-0.265,2.525-0.487c0.848-0.223,1.696-0.501,2.514-0.874c0.823-0.355,1.618-0.798,2.378-1.3
			c0.764-0.5,1.481-1.078,2.166-1.691c0.67-0.629,1.322-1.277,1.905-1.969c1.19-1.361,2.18-2.806,3.015-4.086
			c0.833-1.284,1.483-2.423,1.947-3.232C534.247,241.39,534.508,240.918,534.508,240.918z"/>
	</g>
	<g display="inline">
		<path d="M525.826,237.859c0,0,0.075,0.549,0.042,1.509c-0.033,0.958-0.178,2.327-0.593,3.936c-0.43,1.599-1.124,3.449-2.276,5.258
			c-1.125,1.816-2.739,3.577-4.715,4.904c-1.001,0.637-2.059,1.208-3.171,1.58l-0.825,0.285l-0.839,0.197
			c-0.553,0.145-1.109,0.217-1.655,0.275c-1.089,0.12-2.144,0.11-3.118,0.004c-0.49-0.037-0.959-0.108-1.406-0.207
			c-0.445-0.103-0.881-0.156-1.279-0.294c-0.805-0.241-1.527-0.477-2.137-0.767c-0.619-0.257-1.143-0.509-1.556-0.761
			c-0.832-0.479-1.277-0.792-1.277-0.792s0.562-0.016,1.491,0.025c0.461,0.039,1.031,0.009,1.661,0.03
			c0.631,0.031,1.343-0.027,2.096-0.038c0.377,0.007,0.767-0.054,1.166-0.08c0.399-0.025,0.808-0.053,1.22-0.129
			c0.829-0.097,1.68-0.265,2.526-0.487c0.848-0.223,1.696-0.501,2.514-0.874c0.823-0.355,1.618-0.797,2.378-1.3
			c0.764-0.5,1.481-1.078,2.166-1.691c0.67-0.63,1.322-1.277,1.905-1.969c1.19-1.361,2.18-2.805,3.015-4.085
			c0.833-1.284,1.483-2.423,1.947-3.232C525.564,238.331,525.826,237.859,525.826,237.859z"/>
	</g>
	<g display="inline">
		<path d="M511.123,234.859c0,0,0.075,0.549,0.042,1.509c-0.033,0.958-0.178,2.327-0.593,3.937c-0.43,1.599-1.124,3.449-2.277,5.257
			c-1.125,1.817-2.738,3.577-4.715,4.904c-1,0.637-2.059,1.208-3.171,1.58l-0.825,0.285l-0.839,0.197
			c-0.553,0.145-1.108,0.217-1.655,0.275c-1.089,0.12-2.144,0.11-3.118,0.004c-0.49-0.037-0.959-0.108-1.405-0.207
			c-0.446-0.103-0.882-0.156-1.28-0.294c-0.805-0.241-1.526-0.477-2.137-0.767c-0.619-0.257-1.143-0.509-1.556-0.761
			c-0.832-0.479-1.277-0.792-1.277-0.792s0.562-0.016,1.491,0.025c0.461,0.039,1.031,0.009,1.661,0.03
			c0.631,0.031,1.343-0.027,2.096-0.038c0.377,0.007,0.768-0.054,1.166-0.08c0.399-0.025,0.808-0.053,1.221-0.129
			c0.828-0.097,1.679-0.265,2.525-0.487c0.848-0.223,1.696-0.501,2.514-0.874c0.823-0.355,1.618-0.797,2.379-1.3
			c0.763-0.5,1.481-1.078,2.166-1.691c0.669-0.629,1.322-1.277,1.905-1.969c1.19-1.361,2.179-2.805,3.015-4.085
			c0.833-1.284,1.483-2.423,1.947-3.232C510.861,235.331,511.123,234.859,511.123,234.859z"/>
	</g>
	<g display="inline">
		<path d="M335.285,240.26c0,0,0.262,0.472,0.721,1.297c0.464,0.81,1.114,1.948,1.947,3.232c0.835,1.28,1.824,2.725,3.014,4.085
			c0.583,0.692,1.236,1.339,1.906,1.969c0.685,0.613,1.402,1.19,2.166,1.691c0.76,0.502,1.555,0.945,2.378,1.3
			c0.817,0.372,1.666,0.651,2.513,0.874c0.847,0.222,1.697,0.39,2.526,0.487c0.413,0.077,0.821,0.104,1.22,0.129
			c0.399,0.026,0.789,0.087,1.166,0.08c0.753,0.011,1.465,0.069,2.096,0.038c0.63-0.021,1.201,0.009,1.661-0.03
			c0.93-0.042,1.491-0.025,1.491-0.025s-0.445,0.313-1.278,0.792c-0.413,0.251-0.936,0.504-1.555,0.761
			c-0.61,0.29-1.333,0.525-2.137,0.767c-0.398,0.138-0.834,0.191-1.28,0.294c-0.447,0.098-0.915,0.169-1.405,0.207
			c-0.975,0.105-2.029,0.116-3.119-0.004c-0.546-0.058-1.102-0.13-1.655-0.275l-0.839-0.197l-0.825-0.285
			c-1.113-0.372-2.17-0.943-3.171-1.58c-1.976-1.327-3.589-3.087-4.715-4.904c-1.152-1.809-1.847-3.659-2.277-5.258
			c-0.415-1.609-0.559-2.979-0.592-3.936C335.209,240.809,335.285,240.26,335.285,240.26z"/>
	</g>
	<g display="inline">
		<path d="M343.967,237.199c0,0,0.262,0.472,0.721,1.297c0.464,0.81,1.114,1.948,1.947,3.232c0.835,1.28,1.824,2.725,3.014,4.086
			c0.583,0.692,1.236,1.339,1.906,1.969c0.685,0.613,1.402,1.191,2.166,1.691c0.76,0.502,1.555,0.945,2.378,1.3
			c0.816,0.372,1.666,0.651,2.513,0.874c0.847,0.222,1.697,0.39,2.526,0.487c0.413,0.077,0.821,0.104,1.22,0.13
			c0.399,0.026,0.789,0.087,1.166,0.08c0.753,0.011,1.465,0.069,2.096,0.039c0.63-0.022,1.201,0.009,1.661-0.03
			c0.93-0.042,1.491-0.025,1.491-0.025s-0.445,0.313-1.278,0.792c-0.413,0.251-0.936,0.503-1.555,0.76
			c-0.61,0.29-1.333,0.526-2.138,0.767c-0.398,0.138-0.834,0.191-1.28,0.294c-0.447,0.098-0.915,0.169-1.405,0.206
			c-0.975,0.106-2.029,0.116-3.119-0.004c-0.546-0.058-1.102-0.13-1.655-0.275l-0.839-0.197l-0.825-0.285
			c-1.112-0.372-2.17-0.943-3.17-1.58c-1.976-1.328-3.59-3.087-4.715-4.904c-1.152-1.809-1.847-3.659-2.277-5.258
			c-0.415-1.609-0.559-2.979-0.592-3.937C343.892,237.749,343.967,237.199,343.967,237.199z"/>
	</g>
	<g display="inline">
		<path d="M358.671,234.199c0,0,0.262,0.472,0.721,1.297c0.464,0.81,1.114,1.948,1.947,3.232c0.835,1.28,1.824,2.725,3.014,4.086
			c0.583,0.692,1.236,1.339,1.906,1.969c0.685,0.613,1.402,1.191,2.166,1.691c0.76,0.502,1.555,0.945,2.379,1.3
			c0.816,0.372,1.666,0.651,2.513,0.874c0.847,0.222,1.697,0.39,2.526,0.487c0.413,0.077,0.82,0.104,1.22,0.13
			c0.399,0.026,0.789,0.087,1.166,0.08c0.753,0.011,1.465,0.069,2.096,0.039c0.63-0.022,1.201,0.009,1.661-0.03
			c0.93-0.042,1.491-0.025,1.491-0.025s-0.445,0.313-1.278,0.792c-0.413,0.251-0.936,0.503-1.555,0.76
			c-0.61,0.29-1.333,0.526-2.138,0.767c-0.398,0.138-0.834,0.191-1.28,0.294c-0.447,0.098-0.915,0.169-1.405,0.206
			c-0.975,0.106-2.029,0.116-3.119-0.004c-0.546-0.058-1.102-0.13-1.655-0.275l-0.839-0.197l-0.825-0.285
			c-1.112-0.372-2.17-0.943-3.17-1.58c-1.976-1.328-3.59-3.087-4.715-4.904c-1.153-1.809-1.847-3.659-2.277-5.258
			c-0.415-1.609-0.559-2.979-0.592-3.937C358.595,234.749,358.671,234.199,358.671,234.199z"/>
	</g>
</g>
<g id="Layer_2">
	<ellipse fill="#EDCFBA" cx="428.974" cy="328.039" rx="160.802" ry="187.5"/>
	<rect x="402.769" y="513.361" fill="#EDCFBA" width="50.329" height="99.641"/>
	<path fill="#010202" d="M555.7,598.001c-13.201-12.357-28.189-22.826-44.537-30.979v30.979H555.7z"/>
	<path fill="#FFFFFF" d="M499.163,668.001V561.556c-22.053-9.113-46.219-14.154-71.563-14.154c-29.184,0-56.81,6.67-81.438,18.564
		v102.035H499.163z"/>
	<path fill="#010202" d="M334.161,572.308c-12.543,7.225-24.164,15.865-34.662,25.693h34.662V572.308z"/>
	<path fill="#010202" d="M555.7,598.001h-44.537v-30.979c-3.924-1.957-7.926-3.781-12-5.467l-70,86.445h-3.002l-80-82.035
		c-4.084,1.973-8.086,4.088-12,6.342v25.693h-34.662c-36.55,34.213-59.399,82.885-59.399,136.9h374.999
		C615.098,680.886,592.249,632.214,555.7,598.001z"/>
	<g>
		<path d="M512.272,327.501c0,0-0.959-0.811-2.686-2.129c-0.869-0.652-1.93-1.428-3.162-2.287c-1.23-0.863-2.66-1.77-4.211-2.746
			c-1.574-0.943-3.297-1.922-5.152-2.869c-1.859-0.938-3.861-1.826-5.963-2.621c-2.09-0.836-4.328-1.426-6.596-1.963
			c-1.143-0.23-2.291-0.467-3.457-0.594c-1.16-0.199-2.336-0.231-3.508-0.309c-0.586-0.059-1.172-0.005-1.758-0.015
			c-0.584,0.021-1.174-0.024-1.752,0.048c-1.16,0.131-2.33,0.146-3.461,0.39c-0.57,0.097-1.137,0.192-1.701,0.287
			c-0.559,0.137-1.113,0.272-1.664,0.407c-1.115,0.23-2.174,0.62-3.223,0.982c-1.072,0.31-2.039,0.838-3.041,1.23
			c-1.01,0.379-1.922,0.92-2.84,1.391c-0.455,0.245-0.914,0.469-1.35,0.721c-0.426,0.269-0.846,0.533-1.26,0.793
			c-0.82,0.529-1.676,0.961-2.395,1.527c-1.467,1.081-2.879,2.016-4.012,2.998c-1.156,0.953-2.219,1.743-2.998,2.496
			c-1.615,1.451-2.586,2.262-2.586,2.262s0.699-1.031,2.004-2.805c0.627-0.909,1.502-1.916,2.527-3.064
			c0.979-1.195,2.246-2.387,3.643-3.69c0.672-0.684,1.494-1.251,2.285-1.919c0.408-0.32,0.822-0.645,1.242-0.975
			c0.436-0.312,0.9-0.597,1.361-0.903c0.93-0.595,1.857-1.264,2.908-1.78c1.031-0.549,2.076-1.135,3.223-1.561
			c1.129-0.465,2.273-0.955,3.494-1.285c0.604-0.185,1.211-0.369,1.822-0.555c0.627-0.127,1.258-0.253,1.891-0.38
			c1.26-0.298,2.564-0.384,3.863-0.524c0.65-0.083,1.309-0.046,1.963-0.074c0.654,0.004,1.312-0.058,1.967,0.002
			c2.619,0.127,5.219,0.496,7.703,1.129c2.479,0.635,4.85,1.485,7.045,2.484c2.221,0.949,4.234,2.123,6.092,3.283
			c1.867,1.151,3.518,2.402,5.002,3.588c2.961,2.385,5.145,4.672,6.594,6.323C511.571,326.458,512.272,327.501,512.272,327.501z"/>
	</g>
	<g>
		<path d="M331.083,327.501c0,0,0.701-1.044,2.145-2.706c1.449-1.651,3.633-3.938,6.595-6.323c1.484-1.186,3.134-2.436,5-3.588
			c1.858-1.16,3.872-2.334,6.093-3.283c2.195-0.999,4.566-1.85,7.046-2.484c2.483-0.633,5.083-1.002,7.703-1.129
			c0.653-0.06,1.312,0.002,1.966-0.002c0.655,0.028,1.312-0.009,1.963,0.074c1.3,0.141,2.604,0.227,3.863,0.524
			c0.633,0.127,1.264,0.253,1.891,0.38c0.611,0.186,1.219,0.37,1.824,0.555c1.22,0.33,2.363,0.82,3.492,1.285
			c1.146,0.426,2.192,1.012,3.224,1.561c1.05,0.517,1.978,1.186,2.908,1.78c0.46,0.306,0.925,0.592,1.36,0.903
			c0.42,0.33,0.835,0.654,1.242,0.975c0.791,0.668,1.614,1.234,2.285,1.919c1.396,1.304,2.664,2.495,3.644,3.69
			c1.024,1.148,1.899,2.154,2.526,3.064c1.305,1.773,2.004,2.805,2.004,2.805s-0.97-0.811-2.584-2.262
			c-0.779-0.753-1.843-1.543-2.998-2.496c-1.134-0.982-2.545-1.918-4.014-2.998c-0.719-0.566-1.572-0.998-2.395-1.527
			c-0.413-0.26-0.833-0.524-1.26-0.793c-0.435-0.252-0.895-0.477-1.349-0.721c-0.919-0.471-1.83-1.012-2.841-1.391
			c-1.002-0.393-1.969-0.921-3.04-1.23c-1.05-0.362-2.107-0.752-3.224-0.982c-0.551-0.135-1.105-0.271-1.663-0.407
			c-0.564-0.095-1.132-0.19-1.702-0.287c-1.131-0.244-2.301-0.259-3.46-0.39c-0.579-0.072-1.169-0.027-1.753-0.048
			c-0.586,0.01-1.172-0.044-1.758,0.015c-1.172,0.077-2.348,0.109-3.508,0.309c-1.166,0.127-2.314,0.363-3.457,0.594
			c-2.267,0.537-4.506,1.127-6.596,1.963c-2.102,0.795-4.103,1.684-5.963,2.621c-1.854,0.947-3.578,1.926-5.152,2.869
			c-1.552,0.977-2.981,1.883-4.211,2.746c-1.232,0.859-2.293,1.635-3.162,2.287C332.042,326.691,331.083,327.501,331.083,327.501z"
			/>
	</g>
	<path fill="#1A1A1A" d="M474.245,420.087c-4.621,3.65-17.016,5.23-49.884,4.959c-32.965-0.271-45.335-1.785-49.925-5.271
		c-0.997-0.758-1.626-1.734-2.02-2.727c2.061,8.104,11.275,24.211,51.944,24.891c41.14,0.688,50.093-16.49,52.013-24.924
		C475.981,418.123,475.327,419.234,474.245,420.087z"/>
	<path fill="#FFFFFF" d="M424.361,425.046c32.868,0.271,45.263-1.309,49.884-4.959c1.082-0.854,1.736-1.965,2.129-3.072
		c0.621-2.725,0.508-4.541,0.508-4.541s-24.051,2.379-52.521,2.203s-52.522-2.203-52.522-2.203s-0.12,1.828,0.578,4.574
		c0.394,0.992,1.022,1.969,2.02,2.727C379.026,423.261,391.396,424.775,424.361,425.046z"/>
	<g>
		<path fill="#DEA883" d="M411.327,372.56c0,0,0.234-0.521,0.785-1.345c0.551-0.822,1.422-1.946,2.658-3.136
			c1.245-1.172,2.855-2.425,4.846-3.395c1.969-0.992,4.335-1.672,6.786-1.779c1.222-0.023,2.46,0.041,3.638,0.309l0.879,0.192
			l0.846,0.276c0.564,0.168,1.092,0.402,1.605,0.643c1.023,0.478,1.949,1.051,2.754,1.664c0.412,0.295,0.787,0.607,1.129,0.934
			c0.34,0.328,0.695,0.607,0.975,0.942c0.582,0.642,1.096,1.235,1.482,1.816c0.41,0.558,0.74,1.058,0.973,1.499
			c0.482,0.866,0.711,1.379,0.711,1.379s-0.5-0.291-1.293-0.835c-0.383-0.285-0.9-0.569-1.443-0.932
			c-0.537-0.37-1.195-0.707-1.865-1.108c-0.328-0.211-0.705-0.369-1.072-0.563c-0.365-0.194-0.74-0.393-1.146-0.55
			c-0.785-0.365-1.629-0.68-2.498-0.943c-0.873-0.264-1.777-0.478-2.703-0.592c-0.924-0.131-1.869-0.17-2.816-0.135
			c-0.948,0.031-1.898,0.155-2.838,0.33c-0.934,0.198-1.861,0.422-2.752,0.723c-1.788,0.567-3.439,1.319-4.863,2.01
			c-1.426,0.693-2.607,1.357-3.449,1.828C411.809,372.281,411.327,372.56,411.327,372.56z"/>
	</g>
	
		<ellipse transform="matrix(0.8982 0.4396 -0.4396 0.8982 205.4358 -224.1769)" fill="#EDCFBA" cx="586.775" cy="331.501" rx="21" ry="52"/>
	
		<ellipse transform="matrix(-0.8982 0.4395 -0.4395 -0.8982 659.7017 510.2456)" fill="#EDCFBA" cx="270.776" cy="331.501" rx="21" ry="52"/>
	<path fill="#51391A" d="M271.963,287.449c0,0,35.146-62.576,65.146-75.243s52.647-26.667,115.989-18
		c63.344,8.667,74.199,25.241,84.678,28.667c10.477,3.426,40.318,54.099,40.318,54.099l8.682,13.82
		c0,0-22.018-90.585-23.842-103.252c-1.826-12.667-5.793-22-5.793-22l-6.033,11.333l-6.666-14.667l-9.334,8.667l-4.666-18l-8,12
		l-18-24.333l-5.279,9v-19.333l-12.055,10.333l-11.566-15l-8.434,9.333l-7.332-15.333l-6.678,14.667l-9.6-14.667l-10.391,12
		l-13.332-19.333l-8.449,24l-8.558-11.333l-5.66,15.667l-17.825-15.667v15.667l-13.814-11v15.333l-7.693-14l-4.667,14l-10-4.333
		v8.333l-12.026-8.333l6.026,18.333l-11.333-9.333l-1.334,12l-10.666-4.667l-0.667,12.667l-8.667-6.667l-1.333,16l-6-16
		c0,0-5.789,12-6.561,22.667s-3.44,23.333-2.772,31.333C288.442,224.872,271.963,287.449,271.963,287.449z"/>
</g>
<g id="Layer_3" display="none">
	
		<ellipse transform="matrix(0.6743 0.7384 -0.7384 0.6743 462.3959 -48.0911)" display="inline" fill="#2A1910" cx="285.721" cy="500.193" rx="16.572" ry="75"/>
	
		<ellipse transform="matrix(0.2728 0.9621 -0.9621 0.2728 676.0299 98.8739)" display="inline" fill="#2A1910" cx="272.609" cy="496.634" rx="16.573" ry="75"/>
	
		<ellipse transform="matrix(0.9216 0.3882 -0.3882 0.9216 218.6706 -81.8873)" display="inline" fill="#2A1910" cx="311.979" cy="500.193" rx="16.572" ry="75.001"/>
	
		<ellipse transform="matrix(0.9216 0.3882 -0.3882 0.9216 221.247 -94.6547)" display="inline" fill="#2A1910" cx="344.866" cy="500.193" rx="16.572" ry="75.001"/>
	
		<ellipse transform="matrix(0.9978 0.0661 -0.0661 0.9978 34.2329 -22.2098)" display="inline" fill="#2A1910" cx="352.67" cy="506.097" rx="16.572" ry="75"/>
	
		<ellipse transform="matrix(0.7878 0.616 -0.616 0.7878 181.2839 -50.5907)" display="inline" fill="#2A1910" cx="164.057" cy="237.777" rx="16.572" ry="75"/>
	
		<ellipse transform="matrix(0.8988 0.4383 -0.4383 0.8988 125.9305 -48.5114)" display="inline" fill="#2A1910" cx="168.044" cy="248.518" rx="16.573" ry="75"/>
	
		<ellipse transform="matrix(-0.7878 0.616 -0.616 -0.7878 1477.4814 67.8227)" display="inline" fill="#2A1910" cx="727.056" cy="288.453" rx="16.572" ry="75.001"/>
	
		<ellipse transform="matrix(-0.8988 0.4383 -0.4383 -0.8988 1504.1207 251.1942)" display="inline" fill="#2A1910" cx="723.069" cy="299.195" rx="16.572" ry="75"/>
	
		<ellipse transform="matrix(0.4343 0.9007 -0.9007 0.4343 259.0823 -122.7856)" display="inline" fill="#2A1910" cx="227.302" cy="144.886" rx="16.572" ry="75"/>
	
		<ellipse transform="matrix(0.4234 0.9059 -0.9059 0.4234 282.829 -95.0902)" display="inline" fill="#2A1910" cx="216.115" cy="174.639" rx="16.573" ry="75"/>
	
		<ellipse transform="matrix(-0.5396 0.8419 -0.8419 -0.5396 1178.7039 -313.4032)" display="inline" fill="#2A1910" cx="675.048" cy="165.599" rx="16.572" ry="75"/>
	
		<ellipse transform="matrix(-0.9899 0.1415 -0.1415 -0.9899 615.3521 300.803)" display="inline" fill="#2A1910" cx="296.979" cy="172.284" rx="16.572" ry="75"/>
	
		<ellipse transform="matrix(-0.9899 0.1415 -0.1415 -0.9899 651.694 290.3641)" display="inline" fill="#2A1910" cx="315.521" cy="168.357" rx="16.573" ry="75"/>
	<path display="inline" fill="#2A1910" d="M322.412,171.692c10.309,46.666,27.632,83.865,38.691,83.088
		c11.057-0.778,11.666-39.237,1.355-85.902c-10.309-46.665-27.632-83.865-38.691-83.088
		C312.708,86.567,312.101,125.027,322.412,171.692z"/>
	
		<ellipse transform="matrix(0.9899 0.1415 -0.1415 0.9899 31.4968 -83.2293)" display="inline" fill="#2A1910" cx="600.854" cy="179.809" rx="16.572" ry="75"/>
	
		<ellipse transform="matrix(0.9899 0.1415 -0.1415 0.9899 30.7532 -80.6423)" display="inline" fill="#2A1910" cx="582.312" cy="175.881" rx="16.573" ry="75"/>
	<path display="inline" fill="#2A1910" d="M575.422,179.216c-10.31,46.666-27.632,83.865-38.691,83.088
		c-11.058-0.778-11.666-39.237-1.356-85.902c10.309-46.665,27.633-83.865,38.691-83.088
		C585.125,94.091,585.732,132.552,575.422,179.216z"/>
	<path display="inline" fill="#2A1910" d="M571.927,174.007c-2.569,47.722-13.602,87.246-24.639,88.281
		c-11.037,1.034-17.902-36.812-15.332-84.534c2.568-47.721,13.6-87.247,24.637-88.282
		C567.632,88.439,574.497,126.287,571.927,174.007z"/>
	
		<ellipse transform="matrix(0.9996 -0.0294 0.0294 0.9996 -4.3575 16.1004)" display="inline" fill="#2A1910" cx="545.239" cy="156.208" rx="16.572" ry="75"/>
	
		<ellipse transform="matrix(0.9996 -0.0294 0.0294 0.9996 -4.3448 15.5427)" display="inline" fill="#2A1910" cx="526.299" cy="155.501" rx="16.573" ry="75"/>
	<path display="inline" fill="#2A1910" d="M520.08,159.962c-2.197,47.74-12.922,87.349-23.951,88.47
		c-11.027,1.12-18.188-36.672-15.99-84.412s12.922-87.35,23.951-88.471C515.119,74.43,522.277,112.223,520.08,159.962z"/>
	<path display="inline" fill="#2A1910" d="M515.746,155.426c5.609,47.46,1.482,88.288-9.217,91.19
		c-10.699,2.902-23.92-33.219-29.528-80.679c-5.61-47.46-1.481-88.288,9.218-91.191C496.917,71.845,510.138,107.967,515.746,155.426
		z"/>
	
		<ellipse transform="matrix(0.9996 -0.0294 0.0294 0.9996 -4.0292 14.101)" display="inline" fill="#2A1910" cx="477.425" cy="144.044" rx="16.572" ry="75"/>
	
		<ellipse transform="matrix(0.9996 -0.0294 0.0294 0.9996 -4.0165 13.5434)" display="inline" fill="#2A1910" cx="458.485" cy="143.337" rx="16.573" ry="75"/>
	<path display="inline" fill="#2A1910" d="M452.265,147.798c-2.197,47.74-12.922,87.349-23.951,88.47
		c-11.027,1.12-18.188-36.672-15.99-84.412s12.922-87.35,23.951-88.471C447.304,62.266,454.462,100.059,452.265,147.798z"/>
	<path display="inline" fill="#2A1910" d="M447.931,143.262c5.609,47.46,1.482,88.288-9.217,91.19
		c-10.699,2.902-23.92-33.219-29.528-80.679c-5.61-47.46-1.481-88.288,9.218-91.191C429.103,59.681,442.324,95.803,447.931,143.262z
		"/>
	
		<ellipse transform="matrix(0.9706 -0.2408 0.2408 0.9706 -21.3715 104.2689)" display="inline" fill="#2A1910" cx="416.026" cy="139.595" rx="16.572" ry="75"/>
	
		<ellipse transform="matrix(0.9706 -0.2408 0.2408 0.9706 -22.7213 99.8741)" display="inline" fill="#2A1910" cx="397.366" cy="142.922" rx="16.572" ry="75"/>
	<path display="inline" fill="#2A1910" d="M392.234,148.602c7.979,47.12,5.9,88.102-4.641,91.537
		c-10.539,3.434-25.553-31.979-33.529-79.099c-7.98-47.12-5.902-88.103,4.639-91.538
		C369.244,66.068,384.255,101.482,392.234,148.602z"/>
	<path display="inline" fill="#2A1910" d="M387.037,145.087c15.549,45.191,20.176,85.964,10.336,91.07
		c-9.84,5.105-30.422-27.389-45.97-72.58c-15.55-45.19-20.175-85.965-10.335-91.071C350.909,67.402,371.49,99.897,387.037,145.087z"
		/>
	
		<ellipse transform="matrix(-0.5293 0.8484 -0.8484 -0.5293 1210.5515 -278.6516)" display="inline" fill="#2A1910" cx="682.574" cy="196.481" rx="16.572" ry="75"/>
	
		<ellipse transform="matrix(0.9978 0.0661 -0.0661 0.9978 34.2878 -23.8681)" display="inline" fill="#2A1910" cx="377.751" cy="506.097" rx="16.572" ry="75"/>
	
		<ellipse transform="matrix(0.9216 0.3882 -0.3882 0.9216 235.0912 -163.1757)" display="inline" fill="#2A1910" cx="521.357" cy="500.193" rx="16.572" ry="75"/>
	
		<ellipse transform="matrix(0.9978 0.0661 -0.0661 0.9978 34.619 -33.8788)" display="inline" fill="#2A1910" cx="529.163" cy="506.097" rx="16.572" ry="75"/>
	
		<ellipse transform="matrix(0.9978 0.0661 -0.0661 0.9978 34.6739 -35.537)" display="inline" fill="#2A1910" cx="554.243" cy="506.097" rx="16.572" ry="75"/>
	
		<ellipse transform="matrix(0.9978 0.0661 -0.0661 0.9978 33.4309 -25.4681)" display="inline" fill="#2A1910" cx="401.497" cy="492.352" rx="16.572" ry="75"/>
	
		<ellipse transform="matrix(0.9978 0.0661 -0.0661 0.9978 33.6044 -30.7083)" display="inline" fill="#2A1910" cx="480.754" cy="492.352" rx="16.572" ry="75"/>
	
		<ellipse transform="matrix(0.9978 0.0661 -0.0661 0.9978 34.8031 -26.9291)" display="inline" fill="#2A1910" cx="424.256" cy="512.352" rx="16.572" ry="75"/>
	
		<ellipse transform="matrix(0.6743 0.7384 -0.7384 0.6743 427.5801 -36.7639)" display="inline" fill="#2A1910" cx="255.471" cy="466.384" rx="16.572" ry="75"/>
	
		<ellipse transform="matrix(0.2728 0.9621 -0.9621 0.2728 621.5033 103.388)" display="inline" fill="#2A1910" cx="242.359" cy="462.825" rx="16.573" ry="75"/>
	
		<ellipse transform="matrix(0.411 0.9116 -0.9116 0.411 525.0636 56.1862)" display="inline" fill="#2A1910" cx="219.051" cy="434.421" rx="16.573" ry="75"/>
	
		<ellipse transform="matrix(0.7753 0.6316 -0.6316 0.7753 315.5184 -44.978)" display="inline" fill="#2A1910" cx="220.976" cy="420.973" rx="16.573" ry="75"/>
	
		<ellipse transform="matrix(0.9303 0.3668 -0.3668 0.9303 156.4658 -43.0031)" display="inline" fill="#2A1910" cx="191.398" cy="390.247" rx="16.572" ry="75"/>
	
		<ellipse transform="matrix(0.668 0.7442 -0.7442 0.668 348.2689 8.9919)" display="inline" fill="#2A1910" cx="164.057" cy="394.814" rx="16.573" ry="75"/>
	
		<ellipse transform="matrix(0.4259 0.9047 -0.9047 0.4259 426.2133 38.1558)" display="inline" fill="#2A1910" cx="183.039" cy="354.949" rx="16.573" ry="75"/>
	
		<ellipse transform="matrix(0.554 0.8325 -0.8325 0.554 344.6396 18.1132)" display="inline" fill="#2A1910" cx="155.414" cy="330.723" rx="16.573" ry="75"/>
	
		<ellipse transform="matrix(0.8679 0.4968 -0.4968 0.8679 178.0403 -35.1599)" display="inline" fill="#2A1910" cx="155.122" cy="317.141" rx="16.573" ry="75"/>
	
		<ellipse transform="matrix(-0.6743 0.7384 -0.7384 -0.6743 1338.4133 444.7769)" display="inline" fill="#2A1910" cx="571.128" cy="517.523" rx="16.573" ry="75"/>
	
		<ellipse transform="matrix(-0.2728 0.9621 -0.9621 -0.2728 1238.1038 92.1145)" display="inline" fill="#2A1910" cx="584.24" cy="513.965" rx="16.573" ry="75"/>
	
		<ellipse transform="matrix(-0.6744 0.7384 -0.7384 -0.6744 1364.0991 365.8469)" display="inline" fill="#2A1910" cx="601.378" cy="483.714" rx="16.573" ry="75.001"/>
	
		<ellipse transform="matrix(-0.2728 0.9621 -0.9621 -0.2728 1244.0768 19.9738)" display="inline" fill="#2A1910" cx="614.49" cy="480.156" rx="16.573" ry="75"/>
	
		<ellipse transform="matrix(-0.411 0.9117 -0.9117 -0.411 1311.7474 55.95)" display="inline" fill="#2A1910" cx="637.798" cy="451.752" rx="16.572" ry="75"/>
	
		<ellipse transform="matrix(-0.7753 0.6316 -0.6316 -0.7753 1405.7001 376.5481)" display="inline" fill="#2A1910" cx="635.874" cy="438.304" rx="16.572" ry="75"/>
	
		<ellipse transform="matrix(-0.9303 0.3668 -0.3668 -0.9303 1434.0204 542.6594)" display="inline" fill="#2A1910" cx="665.452" cy="407.577" rx="16.572" ry="75"/>
	
		<ellipse transform="matrix(-0.668 0.7441 -0.7441 -0.668 1462.2845 171.9225)" display="inline" fill="#2A1910" cx="692.792" cy="412.145" rx="16.572" ry="75"/>
	
		<ellipse transform="matrix(-0.426 0.9047 -0.9047 -0.426 1297.6498 -78.7621)" display="inline" fill="#2A1910" cx="673.811" cy="372.28" rx="16.573" ry="75"/>
	
		<ellipse transform="matrix(-0.554 0.8325 -0.8325 -0.554 1379.8005 -43.0637)" display="inline" fill="#2A1910" cx="701.435" cy="348.054" rx="16.573" ry="74.999"/>
	
		<ellipse transform="matrix(-0.8679 0.4968 -0.4968 -0.8679 1476.8999 276.1447)" display="inline" fill="#2A1910" cx="701.728" cy="334.472" rx="16.572" ry="75"/>
	<ellipse display="inline" fill="#2A1910" cx="443.056" cy="308.285" rx="294" ry="230.999"/>
	<rect x="421.279" y="511.645" display="inline" fill="#D8B78B" width="50.33" height="99.639"/>
	<path display="inline" fill="#010202" d="M574.21,596.284c-13.201-12.357-28.189-22.825-44.537-30.979v30.979H574.21z"/>
	<path display="inline" fill="#D7B68A" d="M517.673,666.284V559.84c-22.053-9.115-46.219-14.154-71.564-14.154
		c-29.184,0-56.809,6.668-81.438,18.562v102.035H517.673z"/>
	<path display="inline" fill="#010202" d="M352.671,570.591c-12.543,7.224-24.164,15.866-34.662,25.692h34.662V570.591z"/>
	<path display="inline" fill="#010202" d="M574.21,596.284h-44.537v-30.979c-3.924-1.957-7.926-3.781-12-5.465l-70,86.443h-3.002
		l-80-82.035c-4.084,1.973-8.087,4.09-12,6.343v25.692h-34.662c-36.55,34.215-59.4,82.887-59.4,136.902h375
		C633.609,679.17,610.759,630.499,574.21,596.284z"/>
	<path display="inline" fill="#055B55" d="M446.109,177.284c85.326,0,118.252,172.456,172.5,114.911l9.492-1.654
		c5.508-101.256-96.666-168.256-181.992-168.256s-206.052,86.635-178.747,156.749l4.857,16.521
		C326.468,353.099,360.783,177.284,446.109,177.284z"/>
	<ellipse display="inline" fill="#2A1910" cx="446.109" cy="332.785" rx="187.5" ry="174.499"/>
	<ellipse display="inline" fill="#D7B589" cx="446.109" cy="348.785" rx="187.5" ry="164.499"/>
	<g display="inline">
		<path d="M530.782,325.785c0,0-0.959-0.811-2.685-2.128c-0.869-0.652-1.931-1.429-3.163-2.288c-1.229-0.863-2.659-1.77-4.21-2.745
			c-1.574-0.944-3.298-1.922-5.152-2.87c-1.86-0.937-3.862-1.826-5.963-2.621c-2.09-0.835-4.329-1.426-6.596-1.962
			c-1.143-0.231-2.291-0.467-3.458-0.595c-1.16-0.198-2.335-0.231-3.507-0.308c-0.586-0.06-1.173-0.006-1.758-0.015
			c-0.585,0.021-1.174-0.025-1.753,0.047c-1.159,0.131-2.329,0.146-3.46,0.391c-0.57,0.096-1.138,0.191-1.702,0.286
			c-0.558,0.137-1.112,0.272-1.663,0.407c-1.116,0.23-2.174,0.62-3.224,0.982c-1.071,0.31-2.038,0.838-3.04,1.23
			c-1.011,0.38-1.923,0.921-2.841,1.392c-0.455,0.244-0.914,0.468-1.349,0.721c-0.427,0.269-0.847,0.532-1.26,0.793
			c-0.822,0.528-1.677,0.961-2.395,1.526c-1.468,1.081-2.88,2.016-4.013,2.998c-1.156,0.954-2.219,1.744-2.999,2.497
			c-1.614,1.45-2.584,2.261-2.584,2.261s0.698-1.031,2.003-2.805c0.628-0.909,1.503-1.916,2.527-3.064
			c0.979-1.194,2.247-2.387,3.644-3.689c0.671-0.685,1.493-1.252,2.285-1.92c0.407-0.319,0.822-0.645,1.242-0.975
			c0.436-0.312,0.9-0.597,1.36-0.902c0.931-0.596,1.857-1.265,2.908-1.781c1.031-0.549,2.077-1.135,3.224-1.561
			c1.128-0.464,2.272-0.955,3.493-1.285c0.604-0.185,1.212-0.369,1.823-0.555c0.627-0.126,1.257-0.253,1.89-0.38
			c1.261-0.297,2.564-0.383,3.864-0.524c0.65-0.083,1.308-0.046,1.962-0.073c0.655,0.004,1.313-0.059,1.967,0.002
			c2.619,0.126,5.22,0.495,7.703,1.128c2.479,0.636,4.851,1.485,7.046,2.485c2.221,0.949,4.234,2.123,6.092,3.283
			c1.867,1.151,3.517,2.402,5.001,3.587c2.961,2.385,5.146,4.673,6.595,6.323C530.082,324.741,530.782,325.785,530.782,325.785z"/>
	</g>
	<g display="inline">
		<path d="M349.593,325.785c0,0,0.701-1.044,2.144-2.706c1.449-1.65,3.633-3.938,6.595-6.323c1.484-1.185,3.134-2.436,5-3.587
			c1.857-1.16,3.871-2.334,6.093-3.283c2.195-1,4.566-1.85,7.046-2.485c2.483-0.633,5.083-1.002,7.703-1.128
			c0.653-0.061,1.312,0.002,1.967-0.002c0.655,0.027,1.312-0.01,1.962,0.073c1.3,0.142,2.604,0.228,3.864,0.524
			c0.633,0.127,1.263,0.254,1.891,0.38c0.611,0.186,1.219,0.37,1.823,0.555c1.221,0.33,2.365,0.821,3.493,1.285
			c1.146,0.426,2.192,1.012,3.224,1.561c1.05,0.517,1.977,1.186,2.908,1.78c0.46,0.307,0.925,0.592,1.36,0.903
			c0.421,0.33,0.835,0.655,1.243,0.975c0.792,0.668,1.614,1.235,2.285,1.92c1.396,1.303,2.664,2.495,3.644,3.689
			c1.024,1.148,1.899,2.155,2.527,3.064c1.305,1.773,2.003,2.805,2.003,2.805s-0.97-0.811-2.584-2.261
			c-0.779-0.753-1.842-1.543-2.999-2.497c-1.133-0.982-2.544-1.917-4.013-2.998c-0.718-0.565-1.572-0.998-2.394-1.526
			c-0.413-0.261-0.833-0.524-1.259-0.793c-0.435-0.253-0.895-0.477-1.349-0.721c-0.918-0.471-1.83-1.012-2.841-1.392
			c-1.002-0.393-1.969-0.921-3.04-1.23c-1.05-0.362-2.107-0.752-3.224-0.982c-0.551-0.135-1.106-0.271-1.663-0.407
			c-0.565-0.095-1.132-0.19-1.702-0.287c-1.132-0.244-2.302-0.259-3.46-0.39c-0.58-0.072-1.168-0.026-1.752-0.047
			c-0.586,0.009-1.172-0.045-1.758,0.015c-1.172,0.076-2.347,0.109-3.507,0.308c-1.167,0.128-2.316,0.363-3.458,0.595
			c-2.267,0.536-4.506,1.127-6.596,1.962c-2.101,0.795-4.103,1.685-5.963,2.621c-1.854,0.948-3.578,1.926-5.152,2.87
			c-1.551,0.976-2.981,1.882-4.21,2.745c-1.232,0.859-2.294,1.636-3.163,2.288C350.552,324.974,349.593,325.785,349.593,325.785z"/>
	</g>
	<path display="inline" fill="#1A1A1A" d="M492.755,418.372c-4.621,3.648-17.016,5.23-49.885,4.959
		c-32.965-0.272-45.334-1.787-49.924-5.271c-0.998-0.758-1.627-1.736-2.021-2.729c2.061,8.105,11.276,24.213,51.944,24.892
		c41.141,0.688,50.094-16.489,52.014-24.923C494.491,416.407,493.837,417.518,492.755,418.372z"/>
	<path display="inline" fill="#FFFFFF" d="M442.871,423.331c32.869,0.271,45.264-1.311,49.885-4.959
		c1.082-0.854,1.735-1.965,2.129-3.072c0.621-2.727,0.508-4.541,0.508-4.541s-24.051,2.379-52.521,2.202
		c-28.469-0.177-52.521-2.202-52.521-2.202s-0.121,1.828,0.577,4.572c0.394,0.992,1.022,1.971,2.021,2.729
		C397.537,421.543,409.906,423.058,442.871,423.331z"/>
	<g display="inline">
		<path fill="#B79369" d="M429.837,370.843c0,0,0.233-0.521,0.785-1.346c0.551-0.821,1.422-1.946,2.658-3.136
			c1.244-1.172,2.855-2.424,4.845-3.394c1.97-0.992,4.336-1.672,6.786-1.779c1.223-0.023,2.46,0.041,3.639,0.31l0.879,0.191
			l0.845,0.276c0.564,0.168,1.093,0.401,1.605,0.644c1.024,0.477,1.949,1.049,2.753,1.663c0.413,0.295,0.788,0.607,1.131,0.934
			c0.339,0.328,0.695,0.607,0.975,0.942c0.582,0.642,1.096,1.234,1.481,1.816c0.411,0.557,0.74,1.058,0.973,1.499
			c0.482,0.866,0.712,1.379,0.712,1.379s-0.5-0.292-1.294-0.835c-0.383-0.286-0.9-0.57-1.443-0.932
			c-0.537-0.371-1.195-0.707-1.865-1.108c-0.328-0.211-0.705-0.369-1.071-0.563c-0.366-0.195-0.742-0.393-1.147-0.55
			c-0.785-0.364-1.628-0.68-2.499-0.943c-0.871-0.263-1.775-0.478-2.701-0.591c-0.924-0.133-1.869-0.171-2.816-0.137
			c-0.949,0.032-1.898,0.156-2.838,0.331c-0.935,0.198-1.862,0.422-2.752,0.722c-1.789,0.568-3.439,1.32-4.864,2.01
			c-1.425,0.694-2.607,1.358-3.448,1.829C430.32,370.564,429.837,370.843,429.837,370.843z"/>
	</g>
</g>
</svg>
