<?xml version="1.0" encoding="utf-8"?>
<!-- Generator: Adobe Illustrator 16.0.0, SVG Export Plug-In . SVG Version: 6.00 Build 0)  -->
<!DOCTYPE svg PUBLIC "-//W3C//DTD SVG 1.1//EN" "http://www.w3.org/Graphics/SVG/1.1/DTD/svg11.dtd">
<svg version="1.1" xmlns="http://www.w3.org/2000/svg" xmlns:xlink="http://www.w3.org/1999/xlink" x="0px" y="0px"
	 width="866.957px" height="734.902px" viewBox="0 0 866.957 734.902" enable-background="new 0 0 866.957 734.902"
	 xml:space="preserve">
<g id="Layer_1">
	<path fill="#634E42" d="M244.85,167.086c0,0-28.875,29.203-42.774,96.57c-7.897,38.275-10.033,45.811-7.998,118.974
		c1.898,68.227,18.587,137.738,10.623,167.786c-7.964,30.048-25.402,59.489-41.367,79.419
		c-15.963,19.929-21.442,22.75-27.954,35.076c98.545-12.047,185.61,21.89,185.61,21.89s-53.737-38.82-56.358-34.56
		c-2.622,4.259-1.415-493.093-1.415-493.093"/>
	<path fill="#1A1A1A" d="M436.505,611.054c-75.535,0-143.632-31.808-191.655-82.749v134.343h383.31V528.305
		C580.136,579.247,512.039,611.054,436.505,611.054z"/>
	<path fill="#634E42" d="M436.505,611.054c75.533,0,143.631-31.808,191.654-82.749V167.972
		c-48.023-50.941-116.121-83.635-191.654-83.635c-75.535,0-143.632,31.808-191.655,82.75v361.219
		C292.874,579.247,360.971,611.054,436.505,611.054z"/>
	<polygon fill="#634E42" points="628.16,491.547 233.933,491.547 237.485,665.556 628.16,673.404 	"/>
	<polygon fill="#57453A" points="289.998,425.196 289.998,697.808 589.208,697.808 589.208,413.646 	"/>
	<circle fill="#57453A" cx="436.505" cy="347.696" r="165.983"/>
	<circle fill="#EACA9B" cx="436.505" cy="321.138" r="165.983"/>
	<path fill="#D8B78B" d="M498.629,143.648c0,0-28.415,113.311-111.271,131.016c-82.856,17.705-59.443,48.276-65.296,88.318
		c-5.854,40.041-48.922,68.369-48.922,68.369l-10.584-25.757l28.29-246.897L498.629,143.648z"/>
	<path fill="#634E42" d="M480.924,134.795c0,0-28.415,113.311-111.271,131.016c-82.856,17.705-59.443,48.276-65.296,88.318
		c-5.854,40.041,2.257,56.705-31.217,93.155c-9.755,10.623-28.29-50.543-28.29-50.543l28.29-246.897L480.924,134.795z"/>
	<path fill="#634E42" d="M445.8,134.795c0,0,21.95,113.311,85.953,131.016c64.003,17.705,45.919,48.276,50.44,88.318
		c4.521,40.041-1.745,56.705,24.112,93.155c7.535,10.623,21.854-50.543,21.854-50.543l-21.854-246.897L445.8,134.795z"/>
	<g>
		<rect x="414.524" y="485.67" fill="#D8B78B" width="44.554" height="88.204"/>
		<path fill="#D8B78B" d="M549.905,613.71c-11.687-10.939-24.954-20.207-39.426-27.424v27.424H549.905z"/>
		<path fill="#D8B78B" d="M499.856,613.71v-32.262c-19.522-8.068-40.914-12.529-63.351-12.529c-25.835,0-50.29,5.902-72.093,16.432
			v28.359H499.856z"/>
		<path fill="#D8B78B" d="M353.79,590.965c-11.104,6.396-21.391,14.047-30.685,22.745h30.685V590.965z"/>
		<path fill="#563A8F" d="M549.905,613.71h-39.426v-27.424c-3.474-1.732-7.016-3.347-10.623-4.838v32.262H364.413v-28.359
			c-3.616,1.747-7.159,3.621-10.623,5.614v22.745h-30.685c-32.355,30.288-52.583,73.375-52.583,121.191h331.966
			C602.488,687.085,582.26,643.999,549.905,613.71z"/>
	</g>
	<polygon points="461.292,419.842 406.628,419.842 394.235,402.581 476.34,402.581 	"/>
	<path fill="#FFFFFF" d="M434.246,407.262c25.371,0.505,34.938-2.439,38.505-9.236c0.835-1.589,1.34,7.852,1.644,5.789
		c0.479-5.076,0.392-8.456,0.392-8.456s-18.564-7.077-40.54-7.407c-21.977-0.329-37,7.407-37,7.407s-3.635,0.748-3.096,5.859
		c0.304,1.848,0.789-5.184,1.559-3.773C399.252,403.936,408.8,406.754,434.246,407.262z"/>
	<rect x="442.923" y="389.965" width="3.135" height="23.017"/>
	<path fill-rule="evenodd" clip-rule="evenodd" fill="#BE1622" d="M474.219,394.25c-4.743-2.997-9.275-4.555-13.975-7.622
		c-4.14-2.702-8.628-4.522-13.678-3.442c-3.714,0.796-7.366,1.914-10.989,3.065c-1.061,0.338-1.859,0.3-2.851-0.079
		c-2.665-1.019-5.335-2.069-8.081-2.816c-4.752-1.292-9.357-0.963-13.492,2.049c-2.95,2.149-5.951,3.354-8.785,5.648
		c-5.241,4.245-10.834,4.962-18.126,5.345c3.341,5.46,6.822,10.397,10.902,14.901c5.855,6.463,12.459,12.027,20.437,15.636
		c14.183,6.418,28.326,5.301,42.139-1.191c9.738-4.578,17.564-11.626,24.04-20.163c2.017-2.659,3.812-5.484,5.828-8.408
		C482.398,396.933,478.169,396.745,474.219,394.25z M465.143,404.733c-3.409,5.24-11.815,9.674-17.876,12.003
		c-10.223,3.928-20.309,2.826-30.026-1.854c-9.472-4.562-14.258-14.342-15.96-15.241c-0.121-0.063-0.18-0.247-0.363-0.517
		c0.54-0.051,0.959-0.128,1.377-0.123c6.52,0.094,13.046,0.052,19.555,0.365c2.822,0.135,5.656-0.895,8.395-0.134
		c2.561,0.713,5.023,0.83,7.631,0.377c3.693-0.642,7.416,0.467,11.15,0.218c6.39-0.427,12.799-0.563,19.201-0.811
		c0.428-0.018,0.858,0.07,1.442,0.492C468.164,400.375,466.084,403.286,465.143,404.733z"/>
	<g>
		<path d="M357.812,321.138c0,0,0.605-0.938,1.867-2.428c1.267-1.481,3.181-3.534,5.793-5.672c1.309-1.063,2.765-2.187,4.418-3.217
			c1.644-1.04,3.429-2.092,5.396-2.955c1.943-0.913,4.064-1.642,6.268-2.22c2.21-0.567,4.526-0.897,6.861-1.011
			c0.582-0.054,1.169,0.002,1.753-0.001c0.584,0.024,1.169-0.008,1.749,0.066c1.159,0.126,2.321,0.206,3.444,0.472
			c0.563,0.114,1.125,0.228,1.684,0.341c0.544,0.165,1.087,0.329,1.625,0.492c1.088,0.294,2.11,0.725,3.11,1.151
			c1.018,0.388,1.943,0.92,2.859,1.412c0.932,0.466,1.753,1.064,2.579,1.599c0.407,0.274,0.819,0.53,1.204,0.81
			c0.372,0.296,0.739,0.587,1.099,0.873c0.699,0.6,1.425,1.109,2.017,1.722c1.232,1.167,2.346,2.236,3.204,3.307
			c0.899,1.027,1.663,1.932,2.21,2.745c1.137,1.588,1.74,2.514,1.74,2.514s-0.874-0.705-2.321-1.97
			c-0.699-0.658-1.65-1.345-2.681-2.178c-1.012-0.858-2.27-1.67-3.574-2.614c-0.638-0.494-1.396-0.869-2.125-1.329
			c-0.373-0.219-0.739-0.457-1.116-0.691c-0.385-0.221-0.792-0.415-1.194-0.628c-0.812-0.409-1.618-0.881-2.511-1.209
			c-0.885-0.342-1.741-0.795-2.685-1.059c-0.928-0.305-1.855-0.653-2.836-0.855c-0.484-0.119-0.971-0.239-1.46-0.36
			c-0.496-0.082-0.995-0.165-1.496-0.249c-2-0.338-4.065-0.428-6.124-0.364c-1.029,0.067-2.062,0.095-3.082,0.269
			c-1.025,0.112-2.037,0.316-3.042,0.518c-1.998,0.46-3.959,1.007-5.809,1.718c-1.858,0.681-3.628,1.456-5.275,2.271
			c-1.641,0.828-3.171,1.677-4.57,2.499c-2.776,1.677-5.02,3.244-6.572,4.382C358.676,320.434,357.812,321.138,357.812,321.138z"/>
	</g>
	<g>
		<path d="M514.117,321.138c0,0-0.863-0.704-2.408-1.851c-1.551-1.138-3.795-2.705-6.571-4.382c-1.398-0.822-2.929-1.671-4.57-2.498
			c-1.646-0.816-3.417-1.592-5.275-2.272c-1.85-0.711-3.811-1.258-5.809-1.718c-1.005-0.201-2.016-0.405-3.041-0.518
			c-1.021-0.174-2.053-0.201-3.082-0.269c-2.06-0.063-4.123,0.026-6.124,0.364c-0.501,0.084-1,0.167-1.496,0.249
			c-0.489,0.121-0.977,0.241-1.461,0.36c-0.98,0.202-1.907,0.551-2.836,0.855c-0.944,0.264-1.8,0.717-2.685,1.059
			c-0.893,0.328-1.699,0.8-2.512,1.209c-0.401,0.213-0.809,0.407-1.193,0.628c-0.377,0.234-0.743,0.473-1.115,0.691
			c-0.729,0.459-1.488,0.835-2.126,1.328c-1.305,0.944-2.562,1.757-3.574,2.615c-1.031,0.833-1.982,1.52-2.682,2.178
			c-1.447,1.265-2.32,1.97-2.32,1.97s0.603-0.926,1.74-2.514c0.547-0.813,1.311-1.718,2.209-2.745
			c0.859-1.07,1.973-2.14,3.205-3.307c0.591-0.612,1.317-1.123,2.016-1.722c0.361-0.286,0.728-0.577,1.1-0.873
			c0.386-0.279,0.797-0.535,1.204-0.81c0.825-0.534,1.646-1.134,2.579-1.599c0.915-0.492,1.842-1.024,2.859-1.412
			c1-0.427,2.021-0.858,3.11-1.151c0.538-0.163,1.08-0.327,1.625-0.492c0.56-0.113,1.12-0.227,1.685-0.341
			c1.123-0.266,2.284-0.346,3.443-0.472c0.58-0.074,1.165-0.042,1.749-0.066c0.584,0.003,1.171-0.053,1.753,0.001
			c2.335,0.113,4.651,0.443,6.861,1.011c2.203,0.578,4.324,1.307,6.268,2.22c1.968,0.863,3.752,1.915,5.396,2.955
			c1.653,1.03,3.109,2.154,4.418,3.217c2.612,2.138,4.526,4.19,5.793,5.672C513.511,320.201,514.117,321.138,514.117,321.138z"/>
	</g>
	<path fill="#634E42" d="M628.16,167.972c0,0,22.302,17.554,39.7,101.881c7.715,37.392,9.295,29.118,10.18,99.59
		c0.886,70.468-23.016,150.324-17.704,181.031c5.311,30.705,12.086,75.018,26.25,96.316c14.164,21.3,14.471,25.7,24.787,37.478
		c-42.628-15.761-116.979,2.533-116.979,2.533s-12.915-30.979-10.676-26.495C585.959,664.79,628.16,167.972,628.16,167.972"/>
	<g>
		<path fill="#D3967A" d="M420.819,360.142c0,0,0.192-0.476,0.664-1.225c0.471-0.747,1.224-1.77,2.308-2.851
			c1.092-1.065,2.516-2.202,4.287-3.084c1.755-0.901,3.875-1.521,6.077-1.617c1.098-0.021,2.21,0.038,3.268,0.284l0.789,0.175
			l0.757,0.252c0.506,0.154,0.979,0.366,1.438,0.587c0.916,0.435,1.739,0.956,2.451,1.514c0.73,0.537,1.326,1.146,1.857,1.704
			c0.51,0.582,0.957,1.122,1.289,1.648c0.356,0.505,0.638,0.961,0.834,1.36c0.41,0.785,0.598,1.252,0.598,1.252
			s-0.459-0.246-1.179-0.708c-0.349-0.244-0.817-0.483-1.305-0.793c-0.485-0.315-1.075-0.599-1.674-0.939
			c-0.294-0.18-0.628-0.313-0.954-0.478c-0.325-0.165-0.658-0.334-1.017-0.465c-0.693-0.309-1.435-0.572-2.197-0.794
			c-0.763-0.221-1.55-0.399-2.355-0.493c-0.804-0.109-1.624-0.142-2.446-0.11c-3.297,0.098-6.652,1.411-9.187,2.59
			c-1.272,0.586-2.337,1.147-3.098,1.544C421.257,359.907,420.819,360.142,420.819,360.142z"/>
	</g>
	<g>
		<path d="M524.115,297.607c0,0,0.086,0.49,0.081,1.348c-0.005,0.856-0.104,2.082-0.447,3.525c-0.357,1.434-0.955,3.095-1.973,4.722
			c-0.993,1.633-2.436,3.219-4.211,4.412c-0.899,0.571-1.851,1.085-2.852,1.415l-0.743,0.253l-0.755,0.173
			c-0.497,0.127-0.996,0.189-1.487,0.237c-0.978,0.1-1.923,0.081-2.795-0.024c-0.875-0.079-1.675-0.286-2.394-0.483
			c-0.715-0.228-1.355-0.453-1.895-0.725c-0.547-0.24-1.008-0.48-1.37-0.715c-0.731-0.448-1.119-0.745-1.119-0.745
			s0.504-0.033,1.332-0.021c0.411,0.022,0.919-0.021,1.477-0.016c0.56,0.013,1.189-0.056,1.854-0.08
			c0.332-0.001,0.675-0.062,1.025-0.092c0.351-0.029,0.709-0.06,1.069-0.135c0.726-0.098,1.467-0.256,2.202-0.458
			c0.736-0.203,1.472-0.454,2.179-0.78c0.713-0.313,1.401-0.698,2.06-1.135c2.654-1.729,4.767-4.482,6.278-6.719
			c0.762-1.118,1.366-2.113,1.802-2.821C523.867,298.02,524.115,297.607,524.115,297.607z"/>
	</g>
	<g>
		<path d="M516.428,294.9c0,0,0.086,0.49,0.081,1.348c-0.005,0.856-0.104,2.082-0.447,3.525c-0.357,1.433-0.955,3.095-1.973,4.721
			c-0.994,1.634-2.436,3.22-4.211,4.412c-0.899,0.571-1.851,1.085-2.853,1.415l-0.742,0.253l-0.755,0.173
			c-0.497,0.127-0.997,0.189-1.487,0.236c-0.979,0.101-1.924,0.082-2.795-0.023c-0.875-0.08-1.675-0.287-2.394-0.483
			c-0.716-0.229-1.355-0.454-1.895-0.726c-0.548-0.24-1.008-0.48-1.37-0.715c-0.731-0.448-1.119-0.745-1.119-0.745
			s0.504-0.033,1.332-0.021c0.411,0.022,0.919-0.021,1.477-0.015c0.56,0.012,1.189-0.057,1.854-0.08
			c0.332-0.002,0.675-0.062,1.025-0.093c0.351-0.029,0.709-0.06,1.069-0.134c0.725-0.098,1.466-0.257,2.202-0.459
			c0.736-0.203,1.472-0.453,2.179-0.779c0.712-0.313,1.4-0.698,2.06-1.135c2.654-1.729,4.767-4.481,6.278-6.718
			c0.762-1.118,1.366-2.113,1.802-2.821C516.18,295.313,516.428,294.9,516.428,294.9z"/>
	</g>
	<g>
		<path d="M503.413,292.244c0,0,0.086,0.49,0.081,1.348c-0.005,0.856-0.104,2.082-0.447,3.525c-0.357,1.434-0.955,3.095-1.974,4.722
			c-0.993,1.633-2.435,3.219-4.211,4.412c-0.899,0.571-1.851,1.084-2.852,1.414l-0.743,0.253l-0.755,0.173
			c-0.497,0.127-0.996,0.189-1.487,0.237c-0.979,0.1-1.924,0.081-2.795-0.024c-0.875-0.079-1.675-0.286-2.394-0.483
			c-0.716-0.229-1.355-0.454-1.895-0.726c-0.548-0.24-1.008-0.48-1.37-0.715c-0.731-0.448-1.119-0.745-1.119-0.745
			s0.504-0.033,1.332-0.021c0.411,0.022,0.919-0.021,1.477-0.015c0.56,0.013,1.189-0.057,1.854-0.08
			c0.332-0.002,0.675-0.062,1.025-0.093c0.351-0.029,0.709-0.06,1.069-0.134c0.726-0.098,1.467-0.256,2.202-0.458
			c0.736-0.203,1.472-0.454,2.179-0.78c0.713-0.313,1.401-0.697,2.061-1.135c2.654-1.728,4.767-4.481,6.278-6.718
			c0.762-1.118,1.366-2.113,1.802-2.821C503.165,292.657,503.413,292.244,503.413,292.244z"/>
	</g>
	<g>
		<path d="M347.753,297.025c0,0,0.248,0.413,0.682,1.136c0.436,0.708,1.04,1.703,1.802,2.821c1.512,2.236,3.624,4.989,6.278,6.718
			c0.659,0.437,1.348,0.821,2.06,1.135c0.708,0.326,1.442,0.576,2.179,0.779c0.736,0.202,1.477,0.361,2.202,0.459
			c0.361,0.074,0.718,0.104,1.069,0.134c0.351,0.03,0.693,0.091,1.026,0.093c0.664,0.023,1.293,0.092,1.853,0.08
			c0.558-0.006,1.066,0.037,1.477,0.015c0.828-0.012,1.332,0.021,1.332,0.021s-0.388,0.297-1.119,0.745
			c-0.362,0.234-0.823,0.475-1.37,0.715c-0.539,0.271-1.179,0.497-1.894,0.726c-0.719,0.196-1.519,0.403-2.394,0.483
			c-0.871,0.105-1.817,0.124-2.795,0.023c-0.491-0.047-0.99-0.109-1.487-0.236l-0.755-0.173l-0.743-0.253
			c-1.001-0.33-1.953-0.844-2.852-1.415c-1.775-1.192-3.217-2.778-4.21-4.412c-1.019-1.626-1.616-3.288-1.974-4.721
			c-0.343-1.443-0.442-2.669-0.447-3.525C347.667,297.515,347.753,297.025,347.753,297.025z"/>
	</g>
	<g>
		<path d="M355.439,294.315c0,0,0.248,0.413,0.682,1.136c0.436,0.708,1.04,1.703,1.802,2.821c1.512,2.236,3.624,4.99,6.278,6.719
			c0.659,0.437,1.348,0.821,2.06,1.135c0.707,0.326,1.442,0.577,2.179,0.78c0.736,0.202,1.477,0.361,2.202,0.458
			c0.36,0.075,0.718,0.104,1.069,0.135c0.351,0.03,0.693,0.091,1.025,0.092c0.664,0.024,1.293,0.093,1.853,0.08
			c0.558-0.005,1.066,0.038,1.477,0.016c0.828-0.012,1.332,0.021,1.332,0.021s-0.388,0.297-1.119,0.745
			c-0.362,0.234-0.823,0.475-1.37,0.715c-0.539,0.271-1.179,0.497-1.895,0.725c-0.719,0.197-1.519,0.404-2.394,0.483
			c-0.871,0.105-1.817,0.124-2.795,0.024c-0.491-0.048-0.99-0.11-1.487-0.237l-0.755-0.173l-0.743-0.253
			c-1.001-0.33-1.953-0.844-2.852-1.415c-1.775-1.193-3.217-2.779-4.21-4.412c-1.018-1.627-1.616-3.288-1.973-4.722
			c-0.343-1.443-0.442-2.669-0.447-3.525C355.353,294.805,355.439,294.315,355.439,294.315z"/>
	</g>
	<g>
		<path d="M368.456,291.66c0,0,0.248,0.413,0.682,1.136c0.436,0.708,1.04,1.703,1.802,2.821c1.512,2.236,3.624,4.99,6.278,6.718
			c0.659,0.438,1.348,0.821,2.06,1.136c0.708,0.326,1.442,0.576,2.179,0.779c0.736,0.203,1.477,0.361,2.202,0.459
			c0.361,0.074,0.718,0.104,1.069,0.134c0.351,0.031,0.693,0.092,1.025,0.093c0.664,0.024,1.293,0.093,1.853,0.08
			c0.558-0.006,1.066,0.038,1.477,0.016c0.828-0.012,1.332,0.021,1.332,0.021s-0.388,0.297-1.119,0.745
			c-0.362,0.234-0.823,0.474-1.37,0.715c-0.539,0.271-1.179,0.497-1.895,0.725c-0.719,0.197-1.519,0.404-2.394,0.483
			c-0.871,0.105-1.816,0.124-2.795,0.023c-0.491-0.047-0.99-0.11-1.487-0.237l-0.755-0.172l-0.742-0.254
			c-1.001-0.33-1.953-0.843-2.853-1.414c-1.775-1.193-3.217-2.779-4.21-4.412c-1.019-1.627-1.616-3.288-1.974-4.722
			c-0.343-1.443-0.442-2.669-0.447-3.525C368.37,292.15,368.456,291.66,368.456,291.66z"/>
	</g>
</g>
<g id="Layer_2" display="none">
	<ellipse display="inline" fill="#EDCFBA" cx="428.974" cy="328.039" rx="160.802" ry="187.5"/>
	<rect x="402.769" y="513.361" display="inline" fill="#EDCFBA" width="50.329" height="99.641"/>
	<path display="inline" fill="#010202" d="M555.7,598.001c-13.201-12.357-28.189-22.826-44.537-30.979v30.979H555.7z"/>
	<path display="inline" fill="#FFFFFF" d="M499.163,668.001V561.556c-22.053-9.113-46.219-14.154-71.563-14.154
		c-29.184,0-56.81,6.67-81.438,18.564v102.035H499.163z"/>
	<path display="inline" fill="#010202" d="M334.161,572.308c-12.543,7.225-24.164,15.865-34.662,25.693h34.662V572.308z"/>
	<path display="inline" fill="#010202" d="M555.7,598.001h-44.537v-30.979c-3.924-1.957-7.926-3.781-12-5.467l-70,86.445h-3.002
		l-80-82.035c-4.084,1.973-8.086,4.088-12,6.342v25.693h-34.662c-36.55,34.213-59.399,82.885-59.399,136.9h374.999
		C615.098,680.886,592.249,632.214,555.7,598.001z"/>
	<g display="inline">
		<path d="M512.272,327.501c0,0-0.959-0.811-2.686-2.129c-0.869-0.652-1.93-1.428-3.162-2.287c-1.23-0.863-2.66-1.77-4.211-2.746
			c-1.574-0.943-3.297-1.922-5.152-2.869c-1.859-0.938-3.861-1.826-5.963-2.621c-2.09-0.836-4.328-1.426-6.596-1.963
			c-1.143-0.23-2.291-0.467-3.457-0.594c-1.16-0.199-2.336-0.231-3.508-0.309c-0.586-0.059-1.172-0.005-1.758-0.015
			c-0.584,0.021-1.174-0.024-1.752,0.048c-1.16,0.131-2.33,0.146-3.461,0.39c-0.57,0.097-1.137,0.192-1.701,0.287
			c-0.559,0.137-1.113,0.272-1.664,0.407c-1.115,0.23-2.174,0.62-3.223,0.982c-1.072,0.31-2.039,0.838-3.041,1.23
			c-1.01,0.379-1.922,0.92-2.84,1.391c-0.455,0.245-0.914,0.469-1.35,0.721c-0.426,0.269-0.846,0.533-1.26,0.793
			c-0.82,0.529-1.676,0.961-2.395,1.527c-1.467,1.081-2.879,2.016-4.012,2.998c-1.156,0.953-2.219,1.743-2.998,2.496
			c-1.615,1.451-2.586,2.262-2.586,2.262s0.699-1.031,2.004-2.805c0.627-0.909,1.502-1.916,2.527-3.064
			c0.979-1.195,2.246-2.387,3.643-3.69c0.672-0.684,1.494-1.251,2.285-1.919c0.408-0.32,0.822-0.645,1.242-0.975
			c0.436-0.312,0.9-0.597,1.361-0.903c0.93-0.595,1.857-1.264,2.908-1.78c1.031-0.549,2.076-1.135,3.223-1.561
			c1.129-0.465,2.273-0.955,3.494-1.285c0.604-0.185,1.211-0.369,1.822-0.555c0.627-0.127,1.258-0.253,1.891-0.38
			c1.26-0.298,2.564-0.384,3.863-0.524c0.65-0.083,1.309-0.046,1.963-0.074c0.654,0.004,1.312-0.058,1.967,0.002
			c2.619,0.127,5.219,0.496,7.703,1.129c2.479,0.635,4.85,1.485,7.045,2.484c2.221,0.949,4.234,2.123,6.092,3.283
			c1.867,1.151,3.518,2.402,5.002,3.588c2.961,2.385,5.145,4.672,6.594,6.323C511.571,326.458,512.272,327.501,512.272,327.501z"/>
	</g>
	<g display="inline">
		<path d="M331.083,327.501c0,0,0.701-1.044,2.145-2.706c1.449-1.651,3.633-3.938,6.595-6.323c1.484-1.186,3.134-2.436,5-3.588
			c1.858-1.16,3.872-2.334,6.093-3.283c2.195-0.999,4.566-1.85,7.046-2.484c2.483-0.633,5.083-1.002,7.703-1.129
			c0.653-0.06,1.312,0.002,1.966-0.002c0.655,0.028,1.312-0.009,1.963,0.074c1.3,0.141,2.604,0.227,3.863,0.524
			c0.633,0.127,1.264,0.253,1.891,0.38c0.611,0.186,1.219,0.37,1.824,0.555c1.22,0.33,2.363,0.82,3.492,1.285
			c1.146,0.426,2.192,1.012,3.224,1.561c1.05,0.517,1.978,1.186,2.908,1.78c0.46,0.306,0.925,0.592,1.36,0.903
			c0.42,0.33,0.835,0.654,1.242,0.975c0.791,0.668,1.614,1.234,2.285,1.919c1.396,1.304,2.664,2.495,3.644,3.69
			c1.024,1.148,1.899,2.154,2.526,3.064c1.305,1.773,2.004,2.805,2.004,2.805s-0.97-0.811-2.584-2.262
			c-0.779-0.753-1.843-1.543-2.998-2.496c-1.134-0.982-2.545-1.918-4.014-2.998c-0.719-0.566-1.572-0.998-2.395-1.527
			c-0.413-0.26-0.833-0.524-1.26-0.793c-0.435-0.252-0.895-0.477-1.349-0.721c-0.919-0.471-1.83-1.012-2.841-1.391
			c-1.002-0.393-1.969-0.921-3.04-1.23c-1.05-0.362-2.107-0.752-3.224-0.982c-0.551-0.135-1.105-0.271-1.663-0.407
			c-0.564-0.095-1.132-0.19-1.702-0.287c-1.131-0.244-2.301-0.259-3.46-0.39c-0.579-0.072-1.169-0.027-1.753-0.048
			c-0.586,0.01-1.172-0.044-1.758,0.015c-1.172,0.077-2.348,0.109-3.508,0.309c-1.166,0.127-2.314,0.363-3.457,0.594
			c-2.267,0.537-4.506,1.127-6.596,1.963c-2.102,0.795-4.103,1.684-5.963,2.621c-1.854,0.947-3.578,1.926-5.152,2.869
			c-1.552,0.977-2.981,1.883-4.211,2.746c-1.232,0.859-2.293,1.635-3.162,2.287C332.042,326.691,331.083,327.501,331.083,327.501z"
			/>
	</g>
	<path display="inline" fill="#1A1A1A" d="M474.245,420.087c-4.621,3.65-17.016,5.23-49.884,4.959
		c-32.965-0.271-45.335-1.785-49.925-5.271c-0.997-0.758-1.626-1.734-2.02-2.727c2.061,8.104,11.275,24.211,51.944,24.891
		c41.14,0.688,50.093-16.49,52.013-24.924C475.981,418.123,475.327,419.234,474.245,420.087z"/>
	<path display="inline" fill="#FFFFFF" d="M424.361,425.046c32.868,0.271,45.263-1.309,49.884-4.959
		c1.082-0.854,1.736-1.965,2.129-3.072c0.621-2.725,0.508-4.541,0.508-4.541s-24.051,2.379-52.521,2.203s-52.522-2.203-52.522-2.203
		s-0.12,1.828,0.578,4.574c0.394,0.992,1.022,1.969,2.02,2.727C379.026,423.261,391.396,424.775,424.361,425.046z"/>
	<g display="inline">
		<path fill="#DEA883" d="M411.327,372.56c0,0,0.234-0.521,0.785-1.345c0.551-0.822,1.422-1.946,2.658-3.136
			c1.245-1.172,2.855-2.425,4.846-3.395c1.969-0.992,4.335-1.672,6.786-1.779c1.222-0.023,2.46,0.041,3.638,0.309l0.879,0.192
			l0.846,0.276c0.564,0.168,1.092,0.402,1.605,0.643c1.023,0.478,1.949,1.051,2.754,1.664c0.412,0.295,0.787,0.607,1.129,0.934
			c0.34,0.328,0.695,0.607,0.975,0.942c0.582,0.642,1.096,1.235,1.482,1.816c0.41,0.558,0.74,1.058,0.973,1.499
			c0.482,0.866,0.711,1.379,0.711,1.379s-0.5-0.291-1.293-0.835c-0.383-0.285-0.9-0.569-1.443-0.932
			c-0.537-0.37-1.195-0.707-1.865-1.108c-0.328-0.211-0.705-0.369-1.072-0.563c-0.365-0.194-0.74-0.393-1.146-0.55
			c-0.785-0.365-1.629-0.68-2.498-0.943c-0.873-0.264-1.777-0.478-2.703-0.592c-0.924-0.131-1.869-0.17-2.816-0.135
			c-0.948,0.031-1.898,0.155-2.838,0.33c-0.934,0.198-1.861,0.422-2.752,0.723c-1.788,0.567-3.439,1.319-4.863,2.01
			c-1.426,0.693-2.607,1.357-3.449,1.828C411.809,372.281,411.327,372.56,411.327,372.56z"/>
	</g>
	
		<ellipse transform="matrix(0.8982 0.4396 -0.4396 0.8982 205.4358 -224.1769)" display="inline" fill="#EDCFBA" cx="586.775" cy="331.501" rx="21" ry="52"/>
	
		<ellipse transform="matrix(-0.8982 0.4395 -0.4395 -0.8982 659.7017 510.2456)" display="inline" fill="#EDCFBA" cx="270.776" cy="331.501" rx="21" ry="52"/>
	<path display="inline" fill="#51391A" d="M271.963,287.449c0,0,35.146-62.576,65.146-75.243s52.647-26.667,115.989-18
		c63.344,8.667,74.199,25.241,84.678,28.667c10.477,3.426,40.318,54.099,40.318,54.099l8.682,13.82
		c0,0-22.018-90.585-23.842-103.252c-1.826-12.667-5.793-22-5.793-22l-6.033,11.333l-6.666-14.667l-9.334,8.667l-4.666-18l-8,12
		l-18-24.333l-5.279,9v-19.333l-12.055,10.333l-11.566-15l-8.434,9.333l-7.332-15.333l-6.678,14.667l-9.6-14.667l-10.391,12
		l-13.332-19.333l-8.449,24l-8.558-11.333l-5.66,15.667l-17.825-15.667v15.667l-13.814-11v15.333l-7.693-14l-4.667,14l-10-4.333
		v8.333l-12.026-8.333l6.026,18.333l-11.333-9.333l-1.334,12l-10.666-4.667l-0.667,12.667l-8.667-6.667l-1.333,16l-6-16
		c0,0-5.789,12-6.561,22.667s-3.44,23.333-2.772,31.333C288.442,224.872,271.963,287.449,271.963,287.449z"/>
</g>
<g id="Layer_3" display="none">
	
		<ellipse transform="matrix(0.6743 0.7384 -0.7384 0.6743 462.3959 -48.0911)" display="inline" fill="#2A1910" cx="285.721" cy="500.193" rx="16.572" ry="75"/>
	
		<ellipse transform="matrix(0.2728 0.9621 -0.9621 0.2728 676.0299 98.8739)" display="inline" fill="#2A1910" cx="272.609" cy="496.634" rx="16.573" ry="75"/>
	
		<ellipse transform="matrix(0.9216 0.3882 -0.3882 0.9216 218.6706 -81.8873)" display="inline" fill="#2A1910" cx="311.979" cy="500.193" rx="16.572" ry="75.001"/>
	
		<ellipse transform="matrix(0.9216 0.3882 -0.3882 0.9216 221.247 -94.6547)" display="inline" fill="#2A1910" cx="344.866" cy="500.193" rx="16.572" ry="75.001"/>
	
		<ellipse transform="matrix(0.9978 0.0661 -0.0661 0.9978 34.2329 -22.2098)" display="inline" fill="#2A1910" cx="352.67" cy="506.097" rx="16.572" ry="75"/>
	
		<ellipse transform="matrix(0.7878 0.616 -0.616 0.7878 181.2839 -50.5907)" display="inline" fill="#2A1910" cx="164.057" cy="237.777" rx="16.572" ry="75"/>
	
		<ellipse transform="matrix(0.8988 0.4383 -0.4383 0.8988 125.9305 -48.5114)" display="inline" fill="#2A1910" cx="168.044" cy="248.518" rx="16.573" ry="75"/>
	
		<ellipse transform="matrix(-0.7878 0.616 -0.616 -0.7878 1477.4814 67.8227)" display="inline" fill="#2A1910" cx="727.056" cy="288.453" rx="16.572" ry="75.001"/>
	
		<ellipse transform="matrix(-0.8988 0.4383 -0.4383 -0.8988 1504.1207 251.1942)" display="inline" fill="#2A1910" cx="723.069" cy="299.195" rx="16.572" ry="75"/>
	
		<ellipse transform="matrix(0.4343 0.9007 -0.9007 0.4343 259.0823 -122.7856)" display="inline" fill="#2A1910" cx="227.302" cy="144.886" rx="16.572" ry="75"/>
	
		<ellipse transform="matrix(0.4234 0.9059 -0.9059 0.4234 282.829 -95.0902)" display="inline" fill="#2A1910" cx="216.115" cy="174.639" rx="16.573" ry="75"/>
	
		<ellipse transform="matrix(-0.5396 0.8419 -0.8419 -0.5396 1178.7039 -313.4032)" display="inline" fill="#2A1910" cx="675.048" cy="165.599" rx="16.572" ry="75"/>
	
		<ellipse transform="matrix(-0.9899 0.1415 -0.1415 -0.9899 615.3521 300.803)" display="inline" fill="#2A1910" cx="296.979" cy="172.284" rx="16.572" ry="75"/>
	
		<ellipse transform="matrix(-0.9899 0.1415 -0.1415 -0.9899 651.694 290.3641)" display="inline" fill="#2A1910" cx="315.521" cy="168.357" rx="16.573" ry="75"/>
	<path display="inline" fill="#2A1910" d="M322.412,171.692c10.309,46.666,27.632,83.865,38.691,83.088
		c11.057-0.778,11.666-39.237,1.355-85.902c-10.309-46.665-27.632-83.865-38.691-83.088
		C312.708,86.567,312.101,125.027,322.412,171.692z"/>
	
		<ellipse transform="matrix(0.9899 0.1415 -0.1415 0.9899 31.4968 -83.2293)" display="inline" fill="#2A1910" cx="600.854" cy="179.809" rx="16.572" ry="75"/>
	
		<ellipse transform="matrix(0.9899 0.1415 -0.1415 0.9899 30.7532 -80.6423)" display="inline" fill="#2A1910" cx="582.312" cy="175.881" rx="16.573" ry="75"/>
	<path display="inline" fill="#2A1910" d="M575.422,179.216c-10.31,46.666-27.632,83.865-38.691,83.088
		c-11.058-0.778-11.666-39.237-1.356-85.902c10.309-46.665,27.633-83.865,38.691-83.088
		C585.125,94.091,585.732,132.552,575.422,179.216z"/>
	<path display="inline" fill="#2A1910" d="M571.927,174.007c-2.569,47.722-13.602,87.246-24.639,88.281
		c-11.037,1.034-17.902-36.812-15.332-84.534c2.568-47.721,13.6-87.247,24.637-88.282
		C567.632,88.439,574.497,126.287,571.927,174.007z"/>
	
		<ellipse transform="matrix(0.9996 -0.0294 0.0294 0.9996 -4.3575 16.1004)" display="inline" fill="#2A1910" cx="545.239" cy="156.208" rx="16.572" ry="75"/>
	
		<ellipse transform="matrix(0.9996 -0.0294 0.0294 0.9996 -4.3448 15.5427)" display="inline" fill="#2A1910" cx="526.299" cy="155.501" rx="16.573" ry="75"/>
	<path display="inline" fill="#2A1910" d="M520.08,159.962c-2.197,47.74-12.922,87.349-23.951,88.47
		c-11.027,1.12-18.188-36.672-15.99-84.412s12.922-87.35,23.951-88.471C515.119,74.43,522.277,112.223,520.08,159.962z"/>
	<path display="inline" fill="#2A1910" d="M515.746,155.426c5.609,47.46,1.482,88.288-9.217,91.19
		c-10.699,2.902-23.92-33.219-29.528-80.679c-5.61-47.46-1.481-88.288,9.218-91.191C496.917,71.845,510.138,107.967,515.746,155.426
		z"/>
	
		<ellipse transform="matrix(0.9996 -0.0294 0.0294 0.9996 -4.0292 14.101)" display="inline" fill="#2A1910" cx="477.425" cy="144.044" rx="16.572" ry="75"/>
	
		<ellipse transform="matrix(0.9996 -0.0294 0.0294 0.9996 -4.0165 13.5434)" display="inline" fill="#2A1910" cx="458.485" cy="143.337" rx="16.573" ry="75"/>
	<path display="inline" fill="#2A1910" d="M452.265,147.798c-2.197,47.74-12.922,87.349-23.951,88.47
		c-11.027,1.12-18.188-36.672-15.99-84.412s12.922-87.35,23.951-88.471C447.304,62.266,454.462,100.059,452.265,147.798z"/>
	<path display="inline" fill="#2A1910" d="M447.931,143.262c5.609,47.46,1.482,88.288-9.217,91.19
		c-10.699,2.902-23.92-33.219-29.528-80.679c-5.61-47.46-1.481-88.288,9.218-91.191C429.103,59.681,442.324,95.803,447.931,143.262z
		"/>
	
		<ellipse transform="matrix(0.9706 -0.2408 0.2408 0.9706 -21.3715 104.2689)" display="inline" fill="#2A1910" cx="416.026" cy="139.595" rx="16.572" ry="75"/>
	
		<ellipse transform="matrix(0.9706 -0.2408 0.2408 0.9706 -22.7213 99.8741)" display="inline" fill="#2A1910" cx="397.366" cy="142.922" rx="16.572" ry="75"/>
	<path display="inline" fill="#2A1910" d="M392.234,148.602c7.979,47.12,5.9,88.102-4.641,91.537
		c-10.539,3.434-25.553-31.979-33.529-79.099c-7.98-47.12-5.902-88.103,4.639-91.538
		C369.244,66.068,384.255,101.482,392.234,148.602z"/>
	<path display="inline" fill="#2A1910" d="M387.037,145.087c15.549,45.191,20.176,85.964,10.336,91.07
		c-9.84,5.105-30.422-27.389-45.97-72.58c-15.55-45.19-20.175-85.965-10.335-91.071C350.909,67.402,371.49,99.897,387.037,145.087z"
		/>
	
		<ellipse transform="matrix(-0.5293 0.8484 -0.8484 -0.5293 1210.5515 -278.6516)" display="inline" fill="#2A1910" cx="682.574" cy="196.481" rx="16.572" ry="75"/>
	
		<ellipse transform="matrix(0.9978 0.0661 -0.0661 0.9978 34.2878 -23.8681)" display="inline" fill="#2A1910" cx="377.751" cy="506.097" rx="16.572" ry="75"/>
	
		<ellipse transform="matrix(0.9216 0.3882 -0.3882 0.9216 235.0912 -163.1757)" display="inline" fill="#2A1910" cx="521.357" cy="500.193" rx="16.572" ry="75"/>
	
		<ellipse transform="matrix(0.9978 0.0661 -0.0661 0.9978 34.619 -33.8788)" display="inline" fill="#2A1910" cx="529.163" cy="506.097" rx="16.572" ry="75"/>
	
		<ellipse transform="matrix(0.9978 0.0661 -0.0661 0.9978 34.6739 -35.537)" display="inline" fill="#2A1910" cx="554.243" cy="506.097" rx="16.572" ry="75"/>
	
		<ellipse transform="matrix(0.9978 0.0661 -0.0661 0.9978 33.4309 -25.4681)" display="inline" fill="#2A1910" cx="401.497" cy="492.352" rx="16.572" ry="75"/>
	
		<ellipse transform="matrix(0.9978 0.0661 -0.0661 0.9978 33.6044 -30.7083)" display="inline" fill="#2A1910" cx="480.754" cy="492.352" rx="16.572" ry="75"/>
	
		<ellipse transform="matrix(0.9978 0.0661 -0.0661 0.9978 34.8031 -26.9291)" display="inline" fill="#2A1910" cx="424.256" cy="512.352" rx="16.572" ry="75"/>
	
		<ellipse transform="matrix(0.6743 0.7384 -0.7384 0.6743 427.5801 -36.7639)" display="inline" fill="#2A1910" cx="255.471" cy="466.384" rx="16.572" ry="75"/>
	
		<ellipse transform="matrix(0.2728 0.9621 -0.9621 0.2728 621.5033 103.388)" display="inline" fill="#2A1910" cx="242.359" cy="462.825" rx="16.573" ry="75"/>
	
		<ellipse transform="matrix(0.411 0.9116 -0.9116 0.411 525.0636 56.1862)" display="inline" fill="#2A1910" cx="219.051" cy="434.421" rx="16.573" ry="75"/>
	
		<ellipse transform="matrix(0.7753 0.6316 -0.6316 0.7753 315.5184 -44.978)" display="inline" fill="#2A1910" cx="220.976" cy="420.973" rx="16.573" ry="75"/>
	
		<ellipse transform="matrix(0.9303 0.3668 -0.3668 0.9303 156.4658 -43.0031)" display="inline" fill="#2A1910" cx="191.398" cy="390.247" rx="16.572" ry="75"/>
	
		<ellipse transform="matrix(0.668 0.7442 -0.7442 0.668 348.2689 8.9919)" display="inline" fill="#2A1910" cx="164.057" cy="394.814" rx="16.573" ry="75"/>
	
		<ellipse transform="matrix(0.4259 0.9047 -0.9047 0.4259 426.2133 38.1558)" display="inline" fill="#2A1910" cx="183.039" cy="354.949" rx="16.573" ry="75"/>
	
		<ellipse transform="matrix(0.554 0.8325 -0.8325 0.554 344.6396 18.1132)" display="inline" fill="#2A1910" cx="155.414" cy="330.723" rx="16.573" ry="75"/>
	
		<ellipse transform="matrix(0.8679 0.4968 -0.4968 0.8679 178.0403 -35.1599)" display="inline" fill="#2A1910" cx="155.122" cy="317.141" rx="16.573" ry="75"/>
	
		<ellipse transform="matrix(-0.6743 0.7384 -0.7384 -0.6743 1338.4133 444.7769)" display="inline" fill="#2A1910" cx="571.128" cy="517.523" rx="16.573" ry="75"/>
	
		<ellipse transform="matrix(-0.2728 0.9621 -0.9621 -0.2728 1238.1038 92.1145)" display="inline" fill="#2A1910" cx="584.24" cy="513.965" rx="16.573" ry="75"/>
	
		<ellipse transform="matrix(-0.6744 0.7384 -0.7384 -0.6744 1364.0991 365.8469)" display="inline" fill="#2A1910" cx="601.378" cy="483.714" rx="16.573" ry="75.001"/>
	
		<ellipse transform="matrix(-0.2728 0.9621 -0.9621 -0.2728 1244.0768 19.9738)" display="inline" fill="#2A1910" cx="614.49" cy="480.156" rx="16.573" ry="75"/>
	
		<ellipse transform="matrix(-0.411 0.9117 -0.9117 -0.411 1311.7474 55.95)" display="inline" fill="#2A1910" cx="637.798" cy="451.752" rx="16.572" ry="75"/>
	
		<ellipse transform="matrix(-0.7753 0.6316 -0.6316 -0.7753 1405.7001 376.5481)" display="inline" fill="#2A1910" cx="635.874" cy="438.304" rx="16.572" ry="75"/>
	
		<ellipse transform="matrix(-0.9303 0.3668 -0.3668 -0.9303 1434.0204 542.6594)" display="inline" fill="#2A1910" cx="665.452" cy="407.577" rx="16.572" ry="75"/>
	
		<ellipse transform="matrix(-0.668 0.7441 -0.7441 -0.668 1462.2845 171.9225)" display="inline" fill="#2A1910" cx="692.792" cy="412.145" rx="16.572" ry="75"/>
	
		<ellipse transform="matrix(-0.426 0.9047 -0.9047 -0.426 1297.6498 -78.7621)" display="inline" fill="#2A1910" cx="673.811" cy="372.28" rx="16.573" ry="75"/>
	
		<ellipse transform="matrix(-0.554 0.8325 -0.8325 -0.554 1379.8005 -43.0637)" display="inline" fill="#2A1910" cx="701.435" cy="348.054" rx="16.573" ry="74.999"/>
	
		<ellipse transform="matrix(-0.8679 0.4968 -0.4968 -0.8679 1476.8999 276.1447)" display="inline" fill="#2A1910" cx="701.728" cy="334.472" rx="16.572" ry="75"/>
	<ellipse display="inline" fill="#2A1910" cx="443.056" cy="308.285" rx="294" ry="230.999"/>
	<rect x="421.279" y="511.645" display="inline" fill="#D8B78B" width="50.33" height="99.639"/>
	<path display="inline" fill="#010202" d="M574.21,596.284c-13.201-12.357-28.189-22.825-44.537-30.979v30.979H574.21z"/>
	<path display="inline" fill="#D7B68A" d="M517.673,666.284V559.84c-22.053-9.115-46.219-14.154-71.564-14.154
		c-29.184,0-56.809,6.668-81.438,18.562v102.035H517.673z"/>
	<path display="inline" fill="#010202" d="M352.671,570.591c-12.543,7.224-24.164,15.866-34.662,25.692h34.662V570.591z"/>
	<path display="inline" fill="#010202" d="M574.21,596.284h-44.537v-30.979c-3.924-1.957-7.926-3.781-12-5.465l-70,86.443h-3.002
		l-80-82.035c-4.084,1.973-8.087,4.09-12,6.343v25.692h-34.662c-36.55,34.215-59.4,82.887-59.4,136.902h375
		C633.609,679.17,610.759,630.499,574.21,596.284z"/>
	<path display="inline" fill="#055B55" d="M446.109,177.284c85.326,0,118.252,172.456,172.5,114.911l9.492-1.654
		c5.508-101.256-96.666-168.256-181.992-168.256s-206.052,86.635-178.747,156.749l4.857,16.521
		C326.468,353.099,360.783,177.284,446.109,177.284z"/>
	<ellipse display="inline" fill="#2A1910" cx="446.109" cy="332.785" rx="187.5" ry="174.499"/>
	<ellipse display="inline" fill="#D7B589" cx="446.109" cy="348.785" rx="187.5" ry="164.499"/>
	<g display="inline">
		<path d="M530.782,325.785c0,0-0.959-0.811-2.685-2.128c-0.869-0.652-1.931-1.429-3.163-2.288c-1.229-0.863-2.659-1.77-4.21-2.745
			c-1.574-0.944-3.298-1.922-5.152-2.87c-1.86-0.937-3.862-1.826-5.963-2.621c-2.09-0.835-4.329-1.426-6.596-1.962
			c-1.143-0.231-2.291-0.467-3.458-0.595c-1.16-0.198-2.335-0.231-3.507-0.308c-0.586-0.06-1.173-0.006-1.758-0.015
			c-0.585,0.021-1.174-0.025-1.753,0.047c-1.159,0.131-2.329,0.146-3.46,0.391c-0.57,0.096-1.138,0.191-1.702,0.286
			c-0.558,0.137-1.112,0.272-1.663,0.407c-1.116,0.23-2.174,0.62-3.224,0.982c-1.071,0.31-2.038,0.838-3.04,1.23
			c-1.011,0.38-1.923,0.921-2.841,1.392c-0.455,0.244-0.914,0.468-1.349,0.721c-0.427,0.269-0.847,0.532-1.26,0.793
			c-0.822,0.528-1.677,0.961-2.395,1.526c-1.468,1.081-2.88,2.016-4.013,2.998c-1.156,0.954-2.219,1.744-2.999,2.497
			c-1.614,1.45-2.584,2.261-2.584,2.261s0.698-1.031,2.003-2.805c0.628-0.909,1.503-1.916,2.527-3.064
			c0.979-1.194,2.247-2.387,3.644-3.689c0.671-0.685,1.493-1.252,2.285-1.92c0.407-0.319,0.822-0.645,1.242-0.975
			c0.436-0.312,0.9-0.597,1.36-0.902c0.931-0.596,1.857-1.265,2.908-1.781c1.031-0.549,2.077-1.135,3.224-1.561
			c1.128-0.464,2.272-0.955,3.493-1.285c0.604-0.185,1.212-0.369,1.823-0.555c0.627-0.126,1.257-0.253,1.89-0.38
			c1.261-0.297,2.564-0.383,3.864-0.524c0.65-0.083,1.308-0.046,1.962-0.073c0.655,0.004,1.313-0.059,1.967,0.002
			c2.619,0.126,5.22,0.495,7.703,1.128c2.479,0.636,4.851,1.485,7.046,2.485c2.221,0.949,4.234,2.123,6.092,3.283
			c1.867,1.151,3.517,2.402,5.001,3.587c2.961,2.385,5.146,4.673,6.595,6.323C530.082,324.741,530.782,325.785,530.782,325.785z"/>
	</g>
	<g display="inline">
		<path d="M349.593,325.785c0,0,0.701-1.044,2.144-2.706c1.449-1.65,3.633-3.938,6.595-6.323c1.484-1.185,3.134-2.436,5-3.587
			c1.857-1.16,3.871-2.334,6.093-3.283c2.195-1,4.566-1.85,7.046-2.485c2.483-0.633,5.083-1.002,7.703-1.128
			c0.653-0.061,1.312,0.002,1.967-0.002c0.655,0.027,1.312-0.01,1.962,0.073c1.3,0.142,2.604,0.228,3.864,0.524
			c0.633,0.127,1.263,0.254,1.891,0.38c0.611,0.186,1.219,0.37,1.823,0.555c1.221,0.33,2.365,0.821,3.493,1.285
			c1.146,0.426,2.192,1.012,3.224,1.561c1.05,0.517,1.977,1.186,2.908,1.78c0.46,0.307,0.925,0.592,1.36,0.903
			c0.421,0.33,0.835,0.655,1.243,0.975c0.792,0.668,1.614,1.235,2.285,1.92c1.396,1.303,2.664,2.495,3.644,3.689
			c1.024,1.148,1.899,2.155,2.527,3.064c1.305,1.773,2.003,2.805,2.003,2.805s-0.97-0.811-2.584-2.261
			c-0.779-0.753-1.842-1.543-2.999-2.497c-1.133-0.982-2.544-1.917-4.013-2.998c-0.718-0.565-1.572-0.998-2.394-1.526
			c-0.413-0.261-0.833-0.524-1.259-0.793c-0.435-0.253-0.895-0.477-1.349-0.721c-0.918-0.471-1.83-1.012-2.841-1.392
			c-1.002-0.393-1.969-0.921-3.04-1.23c-1.05-0.362-2.107-0.752-3.224-0.982c-0.551-0.135-1.106-0.271-1.663-0.407
			c-0.565-0.095-1.132-0.19-1.702-0.287c-1.132-0.244-2.302-0.259-3.46-0.39c-0.58-0.072-1.168-0.026-1.752-0.047
			c-0.586,0.009-1.172-0.045-1.758,0.015c-1.172,0.076-2.347,0.109-3.507,0.308c-1.167,0.128-2.316,0.363-3.458,0.595
			c-2.267,0.536-4.506,1.127-6.596,1.962c-2.101,0.795-4.103,1.685-5.963,2.621c-1.854,0.948-3.578,1.926-5.152,2.87
			c-1.551,0.976-2.981,1.882-4.21,2.745c-1.232,0.859-2.294,1.636-3.163,2.288C350.552,324.974,349.593,325.785,349.593,325.785z"/>
	</g>
	<path display="inline" fill="#1A1A1A" d="M492.755,418.372c-4.621,3.648-17.016,5.23-49.885,4.959
		c-32.965-0.272-45.334-1.787-49.924-5.271c-0.998-0.758-1.627-1.736-2.021-2.729c2.061,8.105,11.276,24.213,51.944,24.892
		c41.141,0.688,50.094-16.489,52.014-24.923C494.491,416.407,493.837,417.518,492.755,418.372z"/>
	<path display="inline" fill="#FFFFFF" d="M442.871,423.331c32.869,0.271,45.264-1.311,49.885-4.959
		c1.082-0.854,1.735-1.965,2.129-3.072c0.621-2.727,0.508-4.541,0.508-4.541s-24.051,2.379-52.521,2.202
		c-28.469-0.177-52.521-2.202-52.521-2.202s-0.121,1.828,0.577,4.572c0.394,0.992,1.022,1.971,2.021,2.729
		C397.537,421.543,409.906,423.058,442.871,423.331z"/>
	<g display="inline">
		<path fill="#B79369" d="M429.837,370.843c0,0,0.233-0.521,0.785-1.346c0.551-0.821,1.422-1.946,2.658-3.136
			c1.244-1.172,2.855-2.424,4.845-3.394c1.97-0.992,4.336-1.672,6.786-1.779c1.223-0.023,2.46,0.041,3.639,0.31l0.879,0.191
			l0.845,0.276c0.564,0.168,1.093,0.401,1.605,0.644c1.024,0.477,1.949,1.049,2.753,1.663c0.413,0.295,0.788,0.607,1.131,0.934
			c0.339,0.328,0.695,0.607,0.975,0.942c0.582,0.642,1.096,1.234,1.481,1.816c0.411,0.557,0.74,1.058,0.973,1.499
			c0.482,0.866,0.712,1.379,0.712,1.379s-0.5-0.292-1.294-0.835c-0.383-0.286-0.9-0.57-1.443-0.932
			c-0.537-0.371-1.195-0.707-1.865-1.108c-0.328-0.211-0.705-0.369-1.071-0.563c-0.366-0.195-0.742-0.393-1.147-0.55
			c-0.785-0.364-1.628-0.68-2.499-0.943c-0.871-0.263-1.775-0.478-2.701-0.591c-0.924-0.133-1.869-0.171-2.816-0.137
			c-0.949,0.032-1.898,0.156-2.838,0.331c-0.935,0.198-1.862,0.422-2.752,0.722c-1.789,0.568-3.439,1.32-4.864,2.01
			c-1.425,0.694-2.607,1.358-3.448,1.829C430.32,370.564,429.837,370.843,429.837,370.843z"/>
	</g>
</g>
</svg>
