<?xml version="1.0" encoding="utf-8"?>
<!-- Generator: Adobe Illustrator 16.0.0, SVG Export Plug-In . SVG Version: 6.00 Build 0)  -->
<!DOCTYPE svg PUBLIC "-//W3C//DTD SVG 1.1//EN" "http://www.w3.org/Graphics/SVG/1.1/DTD/svg11.dtd">
<svg version="1.1" id="Layer_1" xmlns="http://www.w3.org/2000/svg" xmlns:xlink="http://www.w3.org/1999/xlink" x="0px" y="0px"
	 width="433px" height="734.901px" viewBox="0 0 433 734.901" enable-background="new 0 0 433 734.901" xml:space="preserve">
<path fill="#1A1A1A" d="M216.5,595C131.174,595,54.249,559.068,0,501.523V653.28h433V501.523C378.751,559.068,301.826,595,216.5,595
	z"/>
<path fill="#FCCC31" d="M216.5,595c85.326,0,162.251-35.932,216.5-93.477V93.477C378.751,35.932,301.826,0,216.5,0
	S54.249,35.932,0,93.477v408.046C54.249,559.068,131.174,595,216.5,595z"/>
<rect y="460" fill="#FCCC31" width="433" height="193.28"/>
<polygon fill="#EABE2C" points="51,385.047 51,693 389,693 389,372 "/>
<circle fill="#EABE2C" cx="216.5" cy="297.5" r="187.5"/>
<circle fill="#EACA9B" cx="216.5" cy="267.5" r="187.5"/>
<path fill="#D8B78B" d="M286.678,67c0,0-32.099,128-125.696,148s-67.149,54.535-73.761,99.768C80.608,360,31.957,392,31.957,392
	L20,362.904L51.957,84L286.678,67z"/>
<path fill="#FCCC31" d="M266.678,57c0,0-32.099,128-125.696,148s-67.149,54.535-73.761,99.768C60.608,350,69.771,368.823,31.957,410
	C20.938,422,0,352.904,0,352.904L31.957,74L266.678,57z"/>
<path fill="#FCCC31" d="M227,57c0,0,24.796,128,97.097,148c72.3,20,51.871,54.535,56.979,99.768
	C386.182,350,379.104,368.823,408.313,410C416.826,422,433,352.904,433,352.904L408.313,74L227,57z"/>
<g>
	<rect x="191.67" y="453.361" fill="#D8B78B" width="50.33" height="99.639"/>
	<path fill="#D8B78B" d="M344.601,598c-13.201-12.357-28.189-22.826-44.537-30.979V598H344.601z"/>
	<path fill="#D8B78B" d="M288.063,598v-36.443c-22.053-9.115-46.218-14.155-71.563-14.155c-29.184,0-56.809,6.669-81.438,18.563V598
		H288.063z"/>
	<path fill="#D8B78B" d="M123.062,572.307c-12.543,7.225-24.164,15.866-34.662,25.693h34.662V572.307z"/>
	<path fill="#FDE396" d="M344.601,598h-44.537v-30.979c-3.924-1.957-7.925-3.781-12-5.465V598H135.062v-32.035
		c-4.084,1.973-8.086,4.089-12,6.342V598H88.399C51.85,632.215,29,680.886,29,734.901h375C404,680.886,381.15,632.215,344.601,598z"
		/>
</g>
<g>
	<path fill="#EBD062" d="M119.127,665.431c0,0,1.055,0.919,2.965,2.409c0.962,0.737,2.136,1.617,3.506,2.588
		c1.363,0.977,2.951,2.003,4.679,3.105c1.752,1.067,3.672,2.174,5.743,3.244c2.076,1.059,4.311,2.068,6.663,2.965
		c2.338,0.945,4.848,1.608,7.387,2.229c1.28,0.263,2.567,0.549,3.879,0.682c1.303,0.217,2.624,0.25,3.94,0.331
		c0.658,0.065,1.316,0.011,1.974,0.022c0.656-0.02,1.318,0.033,1.969-0.045c1.304-0.137,2.617-0.172,3.887-0.451
		c0.639-0.112,1.276-0.224,1.909-0.335c0.625-0.155,1.247-0.31,1.866-0.463c1.252-0.263,2.438-0.704,3.613-1.113
		c1.2-0.354,2.283-0.946,3.404-1.394c1.131-0.432,2.148-1.043,3.175-1.575c0.508-0.276,1.021-0.53,1.507-0.815
		c0.476-0.303,0.943-0.602,1.404-0.895c0.916-0.599,1.867-1.09,2.666-1.728c1.635-1.22,3.203-2.277,4.459-3.388
		c1.282-1.075,2.457-1.969,3.318-2.819c1.785-1.638,2.852-2.555,2.852-2.555s-0.795,1.139-2.27,3.099
		c-0.71,1.006-1.697,2.117-2.849,3.387c-0.585,0.625-1.151,1.354-1.868,1.998c-0.705,0.662-1.446,1.356-2.22,2.082
		c-0.752,0.756-1.672,1.382-2.558,2.119c-0.455,0.354-0.918,0.713-1.388,1.078c-0.485,0.344-1.004,0.658-1.517,0.996
		c-1.039,0.657-2.073,1.396-3.243,1.965c-1.149,0.604-2.312,1.254-3.587,1.723c-1.256,0.512-2.527,1.055-3.884,1.418
		c-0.671,0.202-1.347,0.406-2.026,0.61c-0.697,0.136-1.397,0.272-2.101,0.409c-1.399,0.325-2.848,0.401-4.289,0.569
		c-0.722,0.095-1.451,0.056-2.177,0.089c-0.727-0.002-1.458,0.072-2.183,0.006c-1.451-0.109-2.906-0.178-4.33-0.436
		c-1.438-0.176-2.835-0.506-4.224-0.818c-2.759-0.688-5.396-1.633-7.84-2.736c-2.472-1.05-4.719-2.344-6.793-3.625
		c-2.083-1.273-3.928-2.654-5.59-3.963c-1.656-1.318-3.104-2.604-4.331-3.8c-1.249-1.17-2.25-2.279-3.076-3.184
		C119.924,666.582,119.127,665.431,119.127,665.431z"/>
</g>
<g>
	<path fill="#EBD062" d="M228.296,665.431c0,0,1.055,0.919,2.965,2.409c0.962,0.737,2.137,1.617,3.506,2.588
		c1.363,0.977,2.951,2.003,4.68,3.105c1.751,1.067,3.671,2.174,5.742,3.244c2.076,1.059,4.311,2.067,6.662,2.965
		c2.338,0.945,4.848,1.607,7.387,2.229c1.281,0.263,2.567,0.549,3.879,0.682c1.304,0.217,2.625,0.25,3.94,0.331
		c0.657,0.065,1.315,0.011,1.974,0.022c0.657-0.02,1.318,0.033,1.971-0.045c1.303-0.137,2.615-0.172,3.886-0.451
		c0.64-0.112,1.276-0.224,1.909-0.335c0.625-0.155,1.248-0.31,1.865-0.463c1.252-0.263,2.438-0.704,3.615-1.113
		c1.199-0.353,2.282-0.945,3.402-1.394c1.131-0.432,2.15-1.043,3.176-1.575c0.508-0.276,1.021-0.53,1.506-0.815
		c0.477-0.303,0.944-0.602,1.405-0.895c0.915-0.599,1.867-1.09,2.665-1.728c1.636-1.22,3.203-2.277,4.459-3.388
		c1.283-1.074,2.459-1.969,3.319-2.818c1.784-1.639,2.851-2.556,2.851-2.556s-0.795,1.139-2.27,3.099
		c-0.709,1.006-1.697,2.117-2.848,3.388c-0.586,0.624-1.152,1.353-1.868,1.997c-0.705,0.662-1.446,1.356-2.22,2.082
		c-0.752,0.756-1.672,1.382-2.558,2.119c-0.455,0.354-0.918,0.713-1.388,1.078c-0.486,0.344-1.004,0.658-1.518,0.996
		c-1.039,0.657-2.072,1.396-3.242,1.965c-1.149,0.604-2.312,1.254-3.588,1.723c-1.255,0.513-2.527,1.055-3.883,1.418
		c-0.672,0.202-1.348,0.406-2.026,0.61c-0.696,0.136-1.397,0.272-2.101,0.409c-1.399,0.325-2.848,0.401-4.289,0.57
		c-0.721,0.094-1.45,0.055-2.177,0.088c-0.727-0.002-1.458,0.072-2.183,0.006c-1.451-0.109-2.906-0.178-4.33-0.436
		c-1.438-0.176-2.834-0.506-4.224-0.818c-2.759-0.688-5.396-1.633-7.84-2.736c-2.473-1.05-4.72-2.344-6.794-3.625
		c-2.082-1.273-3.928-2.654-5.59-3.963c-1.656-1.318-3.104-2.604-4.33-3.8c-1.25-1.17-2.251-2.279-3.076-3.184
		C229.093,666.582,228.296,665.431,228.296,665.431z"/>
</g>
<path fill-rule="evenodd" clip-rule="evenodd" fill="#BE1622" d="M257.055,373.922c-4.589-2.898-8.973-6.117-13.519-9.084
	c-4.005-2.615-8.347-4.377-13.232-3.332c-3.593,0.77-7.126,1.854-10.631,2.967c-1.025,0.326-1.799,0.289-2.758-0.078
	c-2.578-0.984-5.16-2.002-7.818-2.723c-4.598-1.25-9.053-0.934-13.052,1.98c-2.854,2.08-5.757,4.102-8.499,6.32
	c-5.07,4.107-10.48,7.371-17.535,7.74c3.232,5.283,6.599,10.061,10.546,14.416c5.664,6.252,12.053,11.635,19.77,15.127
	c13.723,6.207,27.404,5.127,40.767-1.154c9.421-4.43,16.992-11.246,23.257-19.506c1.951-2.572,3.688-5.305,5.639-8.133
	C264.968,378.23,260.876,376.336,257.055,373.922z M248.274,383.207c-5.736,2.574-11.432,5.27-17.293,7.523
	c-9.891,3.801-19.647,2.734-29.049-1.793c-5.23-2.52-10.301-5.373-15.439-8.086c-0.117-0.062-0.174-0.24-0.352-0.5
	c0.523-0.049,0.928-0.125,1.332-0.119c6.308,0.09,12.621,0.051,18.918,0.352c2.729,0.131,5.472,0.801,8.121,1.537
	c2.477,0.688,4.859,0.803,7.381,0.363c3.574-0.619,7.174-1.213,10.787-1.453c6.182-0.412,12.383-0.547,18.576-0.785
	c0.414-0.016,0.83,0.07,1.395,0.479C251.196,381.561,249.798,382.523,248.274,383.207z"/>
</svg>
