<?xml version="1.0" encoding="utf-8"?>
<!-- Generator: Adobe Illustrator 16.0.0, SVG Export Plug-In . SVG Version: 6.00 Build 0)  -->
<!DOCTYPE svg PUBLIC "-//W3C//DTD SVG 1.1//EN" "http://www.w3.org/Graphics/SVG/1.1/DTD/svg11.dtd">
<svg version="1.1" id="Layer_1" xmlns="http://www.w3.org/2000/svg" xmlns:xlink="http://www.w3.org/1999/xlink" x="0px" y="0px"
	 width="433px" height="734.902px" viewBox="0 0 433 734.902" enable-background="new 0 0 433 734.902" xml:space="preserve">
<path fill="#1A1A1A" d="M216.5,595C131.174,595,54.249,559.068,0,501.523v151.758h433V501.523
	C378.751,559.068,301.826,595,216.5,595z"/>
<path fill="#634E42" d="M216.5,595c85.326,0,162.251-35.932,216.5-93.477V93.477C378.751,35.932,301.826,0,216.5,0
	S54.249,35.932,0,93.477v408.046C54.249,559.068,131.174,595,216.5,595z"/>
<rect y="460" fill="#634E42" width="433" height="193.281"/>
<polygon fill="#57453A" points="51,385.046 51,693 389,693 389,372 "/>
<circle fill="#57453A" cx="216.5" cy="297.5" r="187.5"/>
<circle fill="#EACA9B" cx="216.5" cy="267.5" r="187.5"/>
<path fill="#D8B78B" d="M286.678,67c0,0-32.099,128-125.696,148s-67.149,54.535-73.761,99.767S31.957,392,31.957,392L20,362.904
	L51.957,84L286.678,67z"/>
<path fill="#634E42" d="M266.678,57c0,0-32.099,128-125.696,148s-67.149,54.535-73.761,99.767S69.771,368.824,31.957,410
	C20.938,422,0,352.904,0,352.904L31.957,74L266.678,57z"/>
<path fill="#634E42" d="M227,57c0,0,24.795,128,97.096,148s51.871,54.535,56.979,99.767s-1.97,64.057,27.24,105.232
	C416.826,422,433,352.904,433,352.904L408.314,74L227,57z"/>
<g>
	<rect x="191.67" y="453.361" fill="#D8B78B" width="50.33" height="99.639"/>
	<path fill="#D8B78B" d="M344.601,598c-13.201-12.357-28.188-22.825-44.536-30.979V598H344.601z"/>
	<path fill="#D8B78B" d="M288.064,598v-36.443c-22.054-9.115-46.219-14.154-71.564-14.154c-29.184,0-56.809,6.668-81.438,18.562V598
		H288.064z"/>
	<path fill="#D8B78B" d="M123.062,572.307c-12.543,7.224-24.165,15.866-34.663,25.692h34.663V572.307z"/>
	<path fill="#6D564A" d="M344.601,598h-44.536v-30.979c-3.925-1.957-7.926-3.781-12-5.465V598H135.062v-32.035
		c-4.084,1.973-8.087,4.09-12,6.343V598H88.399C51.85,632.214,29,680.886,29,734.902h375C404,680.886,381.15,632.214,344.601,598z"
		/>
</g>
<g opacity="0.5">
	<path fill="#57453A" d="M119.127,665.431c0,0,1.055,0.918,2.965,2.408c0.962,0.738,2.137,1.618,3.506,2.588
		c1.364,0.977,2.951,2.004,4.679,3.105c1.751,1.068,3.671,2.175,5.742,3.244c2.076,1.059,4.311,2.068,6.663,2.965
		c2.338,0.945,4.848,1.608,7.386,2.229c1.28,0.264,2.567,0.549,3.879,0.683c1.303,0.217,2.624,0.249,3.94,0.331
		c0.658,0.065,1.316,0.01,1.974,0.022c0.656-0.021,1.318,0.033,1.97-0.046c1.303-0.136,2.616-0.172,3.886-0.451
		c0.639-0.111,1.276-0.223,1.909-0.334c0.625-0.155,1.248-0.311,1.866-0.463c1.252-0.264,2.438-0.704,3.614-1.113
		c1.2-0.354,2.283-0.946,3.404-1.395c1.131-0.431,2.149-1.043,3.175-1.574c0.507-0.277,1.021-0.53,1.506-0.815
		c0.476-0.304,0.944-0.603,1.404-0.896c0.916-0.598,1.868-1.089,2.666-1.727c1.635-1.221,3.203-2.277,4.458-3.388
		c1.283-1.075,2.458-1.97,3.319-2.819c1.785-1.638,2.851-2.555,2.851-2.555s-0.795,1.139-2.27,3.098
		c-0.709,1.006-1.697,2.117-2.848,3.388c-0.585,0.625-1.151,1.353-1.868,1.998c-0.705,0.661-1.447,1.356-2.22,2.081
		c-0.752,0.756-1.672,1.383-2.557,2.119c-0.455,0.354-0.918,0.713-1.388,1.078c-0.486,0.344-1.004,0.658-1.517,0.997
		c-1.039,0.657-2.073,1.396-3.242,1.965c-1.149,0.604-2.313,1.254-3.587,1.723c-1.255,0.513-2.527,1.054-3.884,1.417
		c-0.671,0.203-1.347,0.406-2.026,0.611c-0.697,0.135-1.397,0.271-2.101,0.408c-1.399,0.326-2.848,0.402-4.289,0.57
		c-0.722,0.095-1.451,0.056-2.177,0.089c-0.727-0.002-1.458,0.071-2.183,0.005c-1.451-0.109-2.906-0.178-4.33-0.436
		c-1.438-0.175-2.834-0.506-4.224-0.817c-2.758-0.688-5.396-1.634-7.84-2.736c-2.473-1.05-4.72-2.345-6.793-3.626
		c-2.083-1.273-3.928-2.654-5.59-3.963c-1.656-1.318-3.104-2.604-4.331-3.799c-1.249-1.17-2.25-2.279-3.076-3.184
		C119.924,666.582,119.127,665.431,119.127,665.431z"/>
</g>
<g opacity="0.5">
	<path fill="#57453A" d="M233.235,665.431c0,0,1.056,0.918,2.966,2.408c0.961,0.738,2.137,1.618,3.506,2.588
		c1.363,0.977,2.951,2.004,4.679,3.105c1.751,1.068,3.671,2.175,5.742,3.244c2.076,1.059,4.312,2.068,6.663,2.965
		c2.338,0.945,4.848,1.608,7.387,2.229c1.28,0.264,2.566,0.549,3.879,0.683c1.303,0.217,2.624,0.249,3.939,0.331
		c0.658,0.065,1.316,0.01,1.975,0.022c0.656-0.021,1.318,0.033,1.97-0.046c1.304-0.136,2.616-0.172,3.886-0.451
		c0.64-0.111,1.276-0.223,1.91-0.334c0.625-0.155,1.247-0.311,1.865-0.463c1.252-0.264,2.438-0.704,3.614-1.113
		c1.199-0.354,2.282-0.945,3.403-1.395c1.131-0.431,2.149-1.043,3.176-1.574c0.507-0.277,1.021-0.53,1.506-0.815
		c0.476-0.304,0.943-0.603,1.404-0.896c0.916-0.598,1.867-1.089,2.666-1.727c1.635-1.221,3.203-2.277,4.459-3.388
		c1.282-1.075,2.458-1.97,3.318-2.819c1.785-1.638,2.852-2.555,2.852-2.555s-0.795,1.139-2.27,3.098
		c-0.709,1.006-1.697,2.117-2.848,3.389c-0.586,0.624-1.152,1.352-1.869,1.997c-0.705,0.661-1.446,1.356-2.22,2.081
		c-0.752,0.757-1.672,1.383-2.558,2.119c-0.455,0.354-0.918,0.713-1.388,1.078c-0.485,0.344-1.004,0.658-1.517,0.997
		c-1.039,0.657-2.073,1.396-3.242,1.965c-1.15,0.604-2.313,1.254-3.588,1.723c-1.256,0.513-2.527,1.054-3.884,1.417
		c-0.671,0.203-1.347,0.406-2.026,0.611c-0.696,0.135-1.396,0.271-2.1,0.408c-1.4,0.326-2.849,0.402-4.289,0.57
		c-0.722,0.095-1.451,0.056-2.178,0.089c-0.727-0.002-1.457,0.071-2.182,0.005c-1.451-0.109-2.906-0.178-4.33-0.436
		c-1.438-0.175-2.835-0.506-4.225-0.817c-2.758-0.688-5.396-1.634-7.84-2.736c-2.473-1.05-4.719-2.345-6.793-3.626
		c-2.082-1.273-3.928-2.654-5.59-3.963c-1.656-1.318-3.104-2.604-4.331-3.799c-1.249-1.17-2.251-2.279-3.075-3.184
		C234.032,666.582,233.235,665.431,233.235,665.431z"/>
</g>
<path fill-rule="evenodd" clip-rule="evenodd" fill="#BE1622" d="M257.055,373.922c-4.589-2.898-8.973-6.117-13.519-9.085
	c-4.005-2.614-8.347-4.377-13.232-3.331c-3.593,0.77-7.126,1.853-10.631,2.967c-1.025,0.325-1.799,0.288-2.758-0.078
	c-2.578-0.984-5.16-2.002-7.818-2.724c-4.598-1.25-9.053-0.933-13.052,1.981c-2.854,2.079-5.757,4.101-8.499,6.32
	c-5.07,4.106-10.48,7.37-17.535,7.74c3.232,5.282,6.599,10.06,10.546,14.416c5.664,6.252,12.053,11.634,19.77,15.126
	c13.723,6.208,27.404,5.128,40.767-1.153c9.421-4.43,16.992-11.246,23.257-19.506c1.951-2.572,3.688-5.306,5.639-8.134
	C264.968,378.231,260.876,376.336,257.055,373.922z M248.274,383.208c-5.736,2.573-11.432,5.27-17.293,7.523
	c-9.891,3.8-19.647,2.734-29.049-1.794c-5.23-2.52-10.301-5.373-15.439-8.086c-0.117-0.062-0.174-0.24-0.352-0.5
	c0.523-0.049,0.928-0.125,1.332-0.119c6.308,0.09,12.621,0.051,18.918,0.353c2.729,0.131,5.472,0.8,8.121,1.536
	c2.477,0.688,4.859,0.803,7.381,0.364c3.574-0.62,7.174-1.213,10.787-1.454c6.182-0.412,12.383-0.546,18.576-0.784
	c0.414-0.016,0.83,0.069,1.395,0.478C251.196,381.56,249.798,382.524,248.274,383.208z"/>
</svg>
