<?xml version="1.0" encoding="utf-8"?>
<!-- Generator: Adobe Illustrator 16.0.0, SVG Export Plug-In . SVG Version: 6.00 Build 0)  -->
<!DOCTYPE svg PUBLIC "-//W3C//DTD SVG 1.1//EN" "http://www.w3.org/Graphics/SVG/1.1/DTD/svg11.dtd">
<svg version="1.1" id="Capa_1" xmlns="http://www.w3.org/2000/svg" xmlns:xlink="http://www.w3.org/1999/xlink" x="0px" y="0px"
	 width="17.037px" height="13.849px" viewBox="0 0 17.037 13.849" enable-background="new 0 0 17.037 13.849" xml:space="preserve">
<path fill="#FFFFFF" d="M17.037,1.642c-0.626,0.277-1.301,0.465-2.007,0.551c0.722-0.434,1.276-1.119,1.537-1.934
	c-0.676,0.4-1.423,0.689-2.22,0.846c-0.636-0.678-1.545-1.104-2.551-1.104c-1.929,0-3.494,1.566-3.494,3.496
	c0,0.275,0.03,0.541,0.09,0.797C5.486,4.147,2.911,2.757,1.186,0.64c-0.301,0.52-0.473,1.119-0.473,1.76
	c0,1.21,0.617,2.283,1.555,2.91C1.695,5.292,1.156,5.133,0.684,4.872v0.043c0,1.695,1.205,3.107,2.805,3.428
	C3.195,8.425,2.887,8.466,2.567,8.466c-0.225,0-0.445-0.02-0.657-0.061c0.444,1.387,1.735,2.398,3.265,2.426
	c-1.196,0.938-2.704,1.496-4.341,1.496c-0.282,0-0.561-0.016-0.834-0.047c1.547,0.99,3.384,1.57,5.358,1.57
	c6.43,0,9.945-5.326,9.945-9.948c0-0.152-0.003-0.303-0.009-0.453C15.977,2.958,16.57,2.343,17.037,1.642"/>
</svg>
