<?xml version="1.0" encoding="utf-8"?>
<!-- Generator: Adobe Illustrator 16.0.0, SVG Export Plug-In . SVG Version: 6.00 Build 0)  -->
<!DOCTYPE svg PUBLIC "-//W3C//DTD SVG 1.1//EN" "http://www.w3.org/Graphics/SVG/1.1/DTD/svg11.dtd">
<svg version="1.1" id="Capa_1" xmlns="http://www.w3.org/2000/svg" xmlns:xlink="http://www.w3.org/1999/xlink" x="0px" y="0px"
	 width="17.008px" height="17.011px" viewBox="0 0 17.008 17.011" enable-background="new 0 0 17.008 17.011" xml:space="preserve">
<path fill="#FFFFFF" d="M8.504,0C3.808,0,0,3.808,0,8.505c0,3.482,2.094,6.475,5.091,7.79c-0.024-0.593-0.004-1.307,0.147-1.953
	c0.164-0.689,1.094-4.634,1.094-4.634S6.061,9.164,6.061,8.362c0-1.261,0.731-2.202,1.64-2.202c0.773,0,1.147,0.581,1.147,1.277
	c0,0.777-0.496,1.94-0.751,3.018c-0.213,0.902,0.452,1.638,1.342,1.638c1.611,0,2.696-2.068,2.696-4.521
	c0-1.863-1.255-3.259-3.538-3.259c-2.58,0-4.187,1.924-4.187,4.072c0,0.741,0.218,1.265,0.56,1.669
	c0.158,0.187,0.179,0.261,0.123,0.475c-0.041,0.155-0.134,0.533-0.173,0.682c-0.057,0.216-0.231,0.293-0.425,0.213
	c-1.188-0.485-1.742-1.786-1.742-3.249c0-2.416,2.037-5.313,6.077-5.313c3.247,0,5.384,2.351,5.384,4.872
	c0,3.337-1.854,5.829-4.589,5.829c-0.917,0-1.781-0.496-2.077-1.06c0,0-0.494,1.959-0.599,2.338
	c-0.18,0.655-0.533,1.311-0.856,1.821c0.765,0.227,1.573,0.35,2.41,0.35c4.696,0,8.503-3.809,8.503-8.506S13.201,0,8.504,0"/>
</svg>
