<?xml version="1.0" encoding="utf-8"?>
<!-- Generator: Adobe Illustrator 16.0.0, SVG Export Plug-In . SVG Version: 6.00 Build 0)  -->
<!DOCTYPE svg PUBLIC "-//W3C//DTD SVG 1.1//EN" "http://www.w3.org/Graphics/SVG/1.1/DTD/svg11.dtd">
<svg version="1.1" id="Capa_1" xmlns="http://www.w3.org/2000/svg" xmlns:xlink="http://www.w3.org/1999/xlink" x="0px" y="0px"
	 width="16.391px" height="17.011px" viewBox="0 0 16.391 17.011" enable-background="new 0 0 16.391 17.011" xml:space="preserve">
<path fill="#FFFFFF" d="M5.383,16.169c-2.023,0-3.482-1.279-3.482-2.817c0-1.507,1.811-2.762,3.833-2.739
	c0.472,0.005,0.911,0.081,1.311,0.21c1.097,0.764,1.884,1.194,2.106,2.064c0.042,0.177,0.064,0.357,0.064,0.543
	C9.215,14.968,8.225,16.169,5.383,16.169 M5.914,7.152C4.557,7.111,3.267,5.634,3.033,3.852C2.799,2.069,3.709,0.705,5.065,0.745
	c1.356,0.041,2.647,1.471,2.881,3.253S7.271,7.193,5.914,7.152 M8.727,9.792C8.251,9.454,7.342,8.635,7.342,8.153
	c0-0.565,0.16-0.843,1.01-1.508C9.223,5.965,9.84,5.008,9.84,3.895c0-1.325-0.59-2.616-1.697-3.043h1.67L10.99,0H5.723
	C3.362,0,1.14,1.789,1.14,3.861c0,2.118,1.61,3.828,4.013,3.828c0.167,0,0.328-0.004,0.488-0.015
	C5.484,7.973,5.372,8.31,5.372,8.657c0,0.589,0.317,1.067,0.718,1.457c-0.303,0-0.596,0.009-0.913,0.009
	C2.252,10.123,0,11.985,0,13.918c0,1.902,2.469,3.093,5.393,3.093c3.334,0,5.177-1.893,5.177-3.795
	C10.569,11.689,10.119,10.775,8.727,9.792 M16.391,7.308H14.34V5.257h-1.65v2.051h-2.05v1.65h2.05v2.051h1.65V8.958h2.051V7.308z"/>
</svg>
