<?xml version="1.0" encoding="utf-8"?>
<!-- Generator: Adobe Illustrator 16.0.0, SVG Export Plug-In . SVG Version: 6.00 Build 0)  -->
<!DOCTYPE svg PUBLIC "-//W3C//DTD SVG 1.1//EN" "http://www.w3.org/Graphics/SVG/1.1/DTD/svg11.dtd">
<svg version="1.1" id="Layer_1" xmlns="http://www.w3.org/2000/svg" xmlns:xlink="http://www.w3.org/1999/xlink" x="0px" y="0px"
	 width="776.127px" height="485.056px" viewBox="0 0 776.127 485.056" enable-background="new 0 0 776.127 485.056"
	 xml:space="preserve">
<g>
	<path fill="#424242" d="M517.035,23.831c1.9-0.165,3.498-0.416,5.098-0.424c8.208-0.042,16.416,0.012,24.625-0.04
		c3.059-0.02,6.205,0.18,9.156-0.449c5.762-1.228,11.438-2.89,17.085-4.589c0.764-0.23,1.58-1.688,1.64-2.625
		c0.423-6.627,0.516-6.991,6.859-9.215c20.331-7.125,41.037-8.43,62.076-3.683c8.561,1.932,16.936,4.409,24.475,9.106
		c1.725,1.075,2.98,2.271,3.057,4.644c0.033,1.046,1.366,2.489,2.457,2.98c3.385,1.524,6.031,3.635,7.958,6.876
		c3.331,5.602,6.839,11.103,10.388,16.571c6.321,9.742,13.29,19.113,18.975,29.209c9.235,16.403,14.285,34.515,18.975,52.603
		c6.9,26.617,13.601,53.299,19.64,80.122c4.888,21.708,8.819,43.637,12.899,65.519c2.584,13.859,4.773,27.796,6.926,41.73
		c1.496,9.677,2.906,19.383,3.849,29.124c1.082,11.195,1.619,22.444,2.369,33.671c0.828,12.414,1.045,24.785-1.144,37.136
		c-2.955,16.678-10.161,31.193-21.806,43.389c-3.79,3.969-8.239,7.396-12.729,10.591c-6.334,4.505-12.787,8.962-20.239,11.498
		c-13.849,4.715-28.114,5.937-42.578,4.197c-13.021-1.565-24.686-6.434-35.366-14.271c-12.674-9.3-20.483-22.321-27.94-35.446
		c-4.686-8.248-7.775-17.496-10.866-26.539c-9.369-27.42-18.439-54.942-27.493-82.469c-1.37-4.165-4.131-6.721-7.603-9.005
		c-3.952-2.601-7.041-2.571-11.221,0.41c-17.566,12.531-37.362,16.319-58.495,12.943c-12.924-2.065-24.694-7.154-34.974-15.375
		c-2.761-2.208-5.518-3.488-9.258-3.464c-43.476,0.282-86.953,0.417-130.43,0.479c-2.994,0.004-5.433,0.698-7.607,2.659
		c-0.931,0.839-1.929,1.609-2.94,2.353c-17.214,12.654-36.6,17.321-57.619,14.945c-12.999-1.471-24.928-6.316-35.407-14.21
		c-2.873-2.164-5.167-2.312-7.945-0.475c-0.44,0.291-0.966,0.453-1.417,0.731c-3.788,2.34-7.657,4.431-9.188,9.212
		c-5.901,18.429-11.996,36.796-17.992,55.194c-4.323,13.262-8.522,26.565-12.938,39.797c-2.396,7.179-6.715,13.432-10.138,20.116
		c-6.651,12.987-14.708,24.627-27.07,32.827c-6.789,4.502-14.257,7.469-22.066,9.539c-5.078,1.346-10.277,2.236-15.422,3.33
		c-6.314,0-12.629,0-18.944,0c-2.327-0.458-4.648-0.949-6.982-1.37c-7.713-1.391-14.958-4.229-21.894-7.7
		c-5.713-2.86-11.516-5.864-16.494-9.798c-8.387-6.628-14.737-15.309-20.072-24.465c-7.61-13.062-11.615-27.371-11.24-42.582
		c0.599-24.337,1.754-48.656,5.236-72.787c2.894-20.053,5.545-40.159,9.153-60.087c4.635-25.597,9.607-51.157,15.379-76.517
		c6.044-26.555,12.912-52.935,19.989-79.238c4.779-17.765,12.413-34.471,21.969-50.199c6.656-10.955,13.719-21.667,20.783-32.367
		c1.445-2.189,3.522-4.091,5.654-5.655c1.714-1.257,2.793-2.547,3.303-4.613c0.295-1.195,1.11-2.467,2.061-3.261
		c4.917-4.109,10.755-6.501,16.778-8.423c14.069-4.488,28.507-5.821,43.198-4.848c10.121,0.67,19.997,2.515,29.49,6.164
		c3.5,1.346,6.179,3.264,5.736,7.703c-0.218,2.181,0.777,3.79,3.311,4.091c1.414,0.168,2.889,0.5,4.153,1.128
		c6.01,2.981,12.395,4.168,19.031,4.188c9.92,0.029,19.841-0.05,29.761-0.004 M514.456,198.144
		c-23.911-0.037-43.153,19.015-43.225,42.797c-0.072,24.059,19.002,43.324,42.932,43.361c23.912,0.036,43.153-19.015,43.225-42.797
		C557.46,217.445,538.387,198.18,514.456,198.144z M264.634,284.301c23.915,0.039,43.162-19.007,43.236-42.786
		c0.076-24.062-18.993-43.332-42.92-43.372c-23.915-0.04-43.162,19.006-43.236,42.785
		C221.638,264.992,240.708,284.261,264.634,284.301z M143.511,200.726c4.597-0.458,9.015-0.68,13.354-1.388
		c4.856-0.793,9.358-5.969,8.964-10.35c-0.668-7.434-1.452-14.874-2.665-22.233c-0.375-2.272-1.987-4.571-3.587-6.363
		c-3.292-3.689-6.906-7.099-10.506-10.497c-0.83-0.783-2.095-1.281-3.241-1.516c-2.683-0.552-4.639,1.024-6.455,2.688
		c-2.59,2.374-4.999,4.958-7.703,7.188c-4.428,3.654-7.801,7.712-6.975,13.944c0.034,0.256-0.094,0.531-0.118,0.799
		c-0.46,5.198-1.302,10.4-1.265,15.595c0.036,5.149,2.36,10.484,8.828,10.943C135.994,199.808,139.827,200.332,143.511,200.726z
		 M208.539,135.407c-0.37-3.153-0.811-7.532-1.419-11.889c-0.397-2.845-1.917-4.748-4.676-6.075
		c-3.549-1.706-7.097-1.689-10.801-1.323c-5.104,0.504-10.208,1.003-15.32,1.41c-2.522,0.201-4.687,0.89-6.416,2.904
		c-1.815,2.116-3.871,4.024-5.76,6.078c-2.313,2.516-4.729,4.963-6.796,7.672c-2.12,2.78-1.538,5.693,0.952,8.12
		c3.353,3.269,6.438,6.829,9.946,9.914c1.864,1.64,4.253,3.217,6.62,3.648c6.361,1.159,12.828,1.77,19.269,2.444
		c7.686,0.804,12.89-3.631,13.549-11.403C207.975,143.5,208.194,140.087,208.539,135.407z M81.179,136.445
		c0.183,0.011,0.365,0.022,0.548,0.034c0,2.159-0.108,4.326,0.03,6.477c0.144,2.24,0.386,4.493,0.832,6.69
		c0.978,4.816,6.052,9.251,10.472,8.849c7.344-0.669,14.699-1.423,21.964-2.645c2.355-0.396,4.734-2.043,6.596-3.69
		c3.701-3.275,7.099-6.904,10.51-10.492c0.732-0.77,1.202-1.947,1.425-3.013c0.559-2.667-0.905-4.669-2.578-6.498
		c-2.128-2.326-4.459-4.479-6.448-6.916c-4.021-4.925-8.45-8.871-15.437-7.973c-0.085,0.011-0.176-0.036-0.266-0.044
		c-5.289-0.45-10.598-1.407-15.862-1.206c-5.405,0.206-10.015,2.454-10.522,8.638C82.121,128.596,81.607,132.517,81.179,136.445z
		 M143.073,73.428c-3.011,0.286-6.678,0.649-10.349,0.98c-6.985,0.63-9.292,5.197-9.415,11.547
		c-0.094,4.831,1.226,9.696,1.06,14.517c-0.25,7.242,3.021,12.216,8.435,16.42c3.047,2.366,5.651,5.303,8.693,7.675
		c2.765,2.156,5.705,1.563,8.121-0.916c3.268-3.353,6.547-6.71,10.023-9.841c2.15-1.937,3.346-4.217,3.704-6.964
		c0.825-6.333,1.633-12.671,2.295-19.022c0.8-7.674-3.641-12.912-11.375-13.572C150.769,73.954,147.266,73.734,143.073,73.428z
		 M655.896,190.768c-0.034-13.377-10.713-24.011-24.116-24.017c-13.521-0.005-24.187,10.704-24.151,24.252
		c0.034,13.377,10.712,24.011,24.115,24.017C645.266,215.025,655.931,204.316,655.896,190.768z M631.834,102.98
		c13.388-0.022,24.043-10.682,24.062-24.072c0.019-13.534-10.67-24.218-24.207-24.197c-13.387,0.022-24.042,10.682-24.061,24.072
		C607.608,92.317,618.298,103.002,631.834,102.98z M600.146,135.085c-0.016-13.393-10.667-24.058-24.051-24.083
		c-13.538-0.025-24.233,10.656-24.218,24.186c0.016,13.393,10.667,24.058,24.051,24.083
		C589.468,159.296,600.163,148.615,600.146,135.085z M712.187,135.113c-0.008-13.401-10.646-24.078-24.023-24.11
		c-13.546-0.033-24.253,10.635-24.246,24.158c0.008,13.402,10.645,24.078,24.023,24.11
		C701.486,159.304,712.193,148.635,712.187,135.113z M215.75,126.203c-0.47,1.006-0.674,1.24-0.675,1.476
		c-0.049,7.003-0.095,14.007-0.07,21.01c0.002,0.455,0.516,1.231,0.884,1.291c0.646,0.104,1.582-0.002,2.015-0.417
		c2.774-2.663,5.434-5.445,8.153-8.166c1.789-1.79,1.834-3.643,0.135-5.446c-1.96-2.078-3.985-4.099-6.059-6.064
		C218.838,128.658,217.401,127.58,215.75,126.203z M77.57,126.858c-0.898,0-1.139-0.075-1.229,0.011
		c-3.66,3.457-7.411,6.831-10.84,10.504c-0.516,0.553,0.075,2.868,0.851,3.764c2.57,2.97,5.426,5.7,8.262,8.428
		c0.432,0.415,1.411,0.577,2.004,0.402c0.422-0.124,0.856-0.999,0.878-1.554c0.102-2.6,0.07-5.206,0.073-7.809
		C77.574,136.063,77.57,131.522,77.57,126.858z M133.413,69.032c1.2,0.373,1.525,0.56,1.851,0.562
		c6.913,0.04,13.826,0.075,20.739,0.042c0.46-0.002,1.242-0.5,1.305-0.865c0.111-0.645,0.015-1.589-0.399-2.019
		c-2.729-2.838-5.552-5.589-8.375-8.336c-1.608-1.564-3.37-1.667-5.021-0.128c-2.153,2.009-4.248,4.084-6.284,6.211
		C135.993,65.79,134.915,67.233,133.413,69.032z M134.182,207.073c0,0.885-0.074,1.126,0.011,1.216
		c3.456,3.662,6.828,7.416,10.5,10.846c0.555,0.519,2.872-0.061,3.766-0.834c2.971-2.569,5.7-5.426,8.429-8.262
		c0.417-0.433,0.585-1.406,0.417-2c-0.121-0.423-0.992-0.87-1.544-0.892c-2.6-0.103-5.206-0.069-7.809-0.071
		C143.408,207.069,138.864,207.073,134.182,207.073z"/>
	<path fill="#252525" d="M95.65,485.056c-6.314,0-12.629,0-18.944,0c-2.327-0.458-4.648-0.949-6.982-1.37
		c-7.713-1.391-14.958-4.229-21.894-7.7c-5.713-2.86-11.516-5.864-16.494-9.798c-8.387-6.628-14.737-15.309-20.072-24.465
		c-7.61-13.062-11.615-27.371-11.24-42.582c0.599-24.337,1.754-48.656,5.236-72.787c2.894-20.053,5.545-40.159,9.153-60.087
		c4.635-25.597,9.607-51.157,15.379-76.517c6.044-26.555,12.912-52.935,19.989-79.238c4.779-17.765,12.413-34.471,21.969-50.199
		c6.656-10.955,13.719-21.667,20.783-32.367c1.445-2.189,3.522-4.091,5.654-5.655c1.714-1.257,2.793-2.547,3.303-4.613
		c0.295-1.195,1.11-2.467,2.061-3.261c4.917-4.109,10.755-6.501,16.778-8.423c14.069-4.488,28.507-5.821,43.198-4.848
		c10.121,0.67,19.997,2.515,29.49,6.164c3.5,1.346,6.179,3.264,5.736,7.703c-0.218,2.181,0.777,3.79,3.311,4.091
		c1.414,0.168,2.889,0.5,4.153,1.128c6.01,2.981,12.395,4.168,19.031,4.188c9.92,0.029,19.841-0.05,29.761-0.004
		c3.985,0.019,4.279,0.379,4.268,4.41c-0.078,27.242-0.204,54.484-0.247,81.727c-0.018,11.172-0.767,22.442,0.417,33.496
		c1.79,16.704,8.317,19.695,20.398,20.96c6.249,0.655,12.595,0.513,18.897,0.517c64.769,0.032,129.537,0.025,194.306,0.009
		c6.245-0.001,12.062-1.852,17.66-4.466c2.872-1.341,4.867-3.548,5.371-6.694c0.995-6.208,2.483-12.443,2.537-18.678
		c0.262-30.488,0.215-60.979,0.045-91.468c-0.038-6.723,1.457-13.608-1.627-20.396c1.9-0.165,3.498-0.416,5.098-0.424
		c8.208-0.042,16.416,0.012,24.625-0.04c3.059-0.02,6.205,0.18,9.156-0.449c5.762-1.228,11.438-2.89,17.085-4.589
		c0.764-0.23,1.58-1.688,1.64-2.625c0.423-6.627,0.516-6.991,6.859-9.215c20.331-7.125,41.037-8.43,62.076-3.683
		c8.561,1.932,16.936,4.409,24.475,9.106c1.725,1.075,2.98,2.271,3.057,4.644c0.033,1.046,1.366,2.489,2.457,2.98
		c3.385,1.524,6.031,3.635,7.958,6.876c3.331,5.602,6.839,11.103,10.388,16.571c6.321,9.742,13.29,19.113,18.975,29.209
		c9.235,16.403,14.285,34.515,18.975,52.603c6.9,26.617,13.601,53.299,19.64,80.122c4.888,21.708,8.819,43.637,12.899,65.519
		c2.584,13.859,4.773,27.796,6.926,41.73c1.496,9.677,2.906,19.383,3.849,29.124c1.082,11.195,1.619,22.444,2.369,33.671
		c0.828,12.414,1.045,24.785-1.144,37.136c-2.955,16.678-10.161,31.193-21.806,43.389c-3.79,3.969-8.239,7.396-12.729,10.591
		c-6.334,4.505-12.787,8.962-20.239,11.498c-13.849,4.715-28.114,5.937-42.578,4.197c-13.021-1.565-24.686-6.434-35.366-14.271
		c-12.674-9.3-20.483-22.321-27.94-35.446c-4.686-8.248-7.775-17.496-10.866-26.539c-9.369-27.42-18.439-54.942-27.493-82.469
		c-1.37-4.165-4.131-6.721-7.603-9.005c-3.952-2.601-7.041-2.571-11.221,0.41c-17.566,12.531-37.362,16.319-58.495,12.943
		c-12.924-2.065-24.694-7.154-34.974-15.375c-2.761-2.208-5.518-3.488-9.258-3.464c-43.476,0.282-86.953,0.417-130.43,0.479
		c-2.994,0.004-5.433,0.698-7.607,2.659c-0.931,0.839-1.929,1.609-2.94,2.353c-17.214,12.654-36.6,17.321-57.619,14.945
		c-12.999-1.471-24.928-6.316-35.407-14.21c-2.873-2.164-5.167-2.312-7.945-0.475c-0.44,0.291-0.966,0.453-1.417,0.731
		c-3.788,2.34-7.657,4.431-9.188,9.212c-5.901,18.429-11.996,36.796-17.992,55.194c-4.323,13.262-8.522,26.565-12.938,39.797
		c-2.396,7.179-6.715,13.432-10.138,20.116c-6.651,12.987-14.708,24.627-27.07,32.827c-6.789,4.502-14.257,7.469-22.066,9.539
		C105.994,483.072,100.795,483.962,95.65,485.056z M514.456,198.144c-23.911-0.037-43.153,19.015-43.225,42.797
		c-0.072,24.059,19.002,43.324,42.932,43.361c23.912,0.036,43.153-19.015,43.225-42.797
		C557.46,217.445,538.387,198.18,514.456,198.144z M264.634,284.301c23.915,0.039,43.162-19.007,43.236-42.786
		c0.076-24.062-18.993-43.332-42.92-43.372c-23.915-0.04-43.162,19.006-43.236,42.785
		C221.638,264.992,240.708,284.261,264.634,284.301z M143.511,200.726c4.597-0.458,9.015-0.68,13.354-1.388
		c4.856-0.793,9.358-5.969,8.964-10.35c-0.668-7.434-1.452-14.874-2.665-22.233c-0.375-2.272-1.987-4.571-3.587-6.363
		c-3.292-3.689-6.906-7.099-10.506-10.497c-0.83-0.783-2.095-1.281-3.241-1.516c-2.683-0.552-4.639,1.024-6.455,2.688
		c-2.59,2.374-4.999,4.958-7.703,7.188c-4.428,3.654-7.801,7.712-6.975,13.944c0.034,0.256-0.094,0.531-0.118,0.799
		c-0.46,5.198-1.302,10.4-1.265,15.595c0.036,5.149,2.36,10.484,8.828,10.943C135.994,199.808,139.827,200.332,143.511,200.726z
		 M208.539,135.407c-0.37-3.153-0.811-7.532-1.419-11.889c-0.397-2.845-1.917-4.748-4.676-6.075
		c-3.549-1.706-7.097-1.689-10.801-1.323c-5.104,0.504-10.208,1.003-15.32,1.41c-2.522,0.201-4.687,0.89-6.416,2.904
		c-1.815,2.116-3.871,4.024-5.76,6.078c-2.313,2.516-4.729,4.963-6.796,7.672c-2.12,2.78-1.538,5.693,0.952,8.12
		c3.353,3.269,6.438,6.829,9.946,9.914c1.864,1.64,4.253,3.217,6.62,3.648c6.361,1.159,12.828,1.77,19.269,2.444
		c7.686,0.804,12.89-3.631,13.549-11.403C207.975,143.5,208.194,140.087,208.539,135.407z M81.179,136.445
		c0.183,0.011,0.365,0.022,0.548,0.034c0,2.159-0.108,4.326,0.03,6.477c0.144,2.24,0.386,4.493,0.832,6.69
		c0.978,4.816,6.052,9.251,10.472,8.849c7.344-0.669,14.699-1.423,21.964-2.645c2.355-0.396,4.734-2.043,6.596-3.69
		c3.701-3.275,7.099-6.904,10.51-10.492c0.732-0.77,1.202-1.947,1.425-3.013c0.559-2.667-0.905-4.669-2.578-6.498
		c-2.128-2.326-4.459-4.479-6.448-6.916c-4.021-4.925-8.45-8.871-15.437-7.973c-0.085,0.011-0.176-0.036-0.266-0.044
		c-5.289-0.45-10.598-1.407-15.862-1.206c-5.405,0.206-10.015,2.454-10.522,8.638C82.121,128.596,81.607,132.517,81.179,136.445z
		 M143.073,73.428c-3.011,0.286-6.678,0.649-10.349,0.98c-6.985,0.63-9.292,5.197-9.415,11.547
		c-0.094,4.831,1.226,9.696,1.06,14.517c-0.25,7.242,3.021,12.216,8.435,16.42c3.047,2.366,5.651,5.303,8.693,7.675
		c2.765,2.156,5.705,1.563,8.121-0.916c3.268-3.353,6.547-6.71,10.023-9.841c2.15-1.937,3.346-4.217,3.704-6.964
		c0.825-6.333,1.633-12.671,2.295-19.022c0.8-7.674-3.641-12.912-11.375-13.572C150.769,73.954,147.266,73.734,143.073,73.428z
		 M655.896,190.768c-0.034-13.377-10.713-24.011-24.116-24.017c-13.521-0.005-24.187,10.704-24.151,24.252
		c0.034,13.377,10.712,24.011,24.115,24.017C645.266,215.025,655.931,204.316,655.896,190.768z M631.834,102.98
		c13.388-0.022,24.043-10.682,24.062-24.072c0.019-13.534-10.67-24.218-24.207-24.197c-13.387,0.022-24.042,10.682-24.061,24.072
		C607.608,92.317,618.298,103.002,631.834,102.98z M600.146,135.085c-0.016-13.393-10.667-24.058-24.051-24.083
		c-13.538-0.025-24.233,10.656-24.218,24.186c0.016,13.393,10.667,24.058,24.051,24.083
		C589.468,159.296,600.163,148.615,600.146,135.085z M712.187,135.113c-0.008-13.401-10.646-24.078-24.023-24.11
		c-13.546-0.033-24.253,10.635-24.246,24.158c0.008,13.402,10.645,24.078,24.023,24.11
		C701.486,159.304,712.193,148.635,712.187,135.113z M215.75,126.203c-0.47,1.006-0.674,1.24-0.675,1.476
		c-0.049,7.003-0.095,14.007-0.07,21.01c0.002,0.455,0.516,1.231,0.884,1.291c0.646,0.104,1.582-0.002,2.015-0.417
		c2.774-2.663,5.434-5.445,8.153-8.166c1.789-1.79,1.834-3.643,0.135-5.446c-1.96-2.078-3.985-4.099-6.059-6.064
		C218.838,128.658,217.401,127.58,215.75,126.203z M77.57,126.858c-0.898,0-1.139-0.075-1.229,0.011
		c-3.66,3.457-7.411,6.831-10.84,10.504c-0.516,0.553,0.075,2.868,0.851,3.764c2.57,2.97,5.426,5.7,8.262,8.428
		c0.432,0.415,1.411,0.577,2.004,0.402c0.422-0.124,0.856-0.999,0.878-1.554c0.102-2.6,0.07-5.206,0.073-7.809
		C77.574,136.063,77.57,131.522,77.57,126.858z M133.413,69.032c1.2,0.373,1.525,0.56,1.851,0.562
		c6.913,0.04,13.826,0.075,20.739,0.042c0.46-0.002,1.242-0.5,1.305-0.865c0.111-0.645,0.015-1.589-0.399-2.019
		c-2.729-2.838-5.552-5.589-8.375-8.336c-1.608-1.564-3.37-1.667-5.021-0.128c-2.153,2.009-4.248,4.084-6.284,6.211
		C135.993,65.79,134.915,67.233,133.413,69.032z M134.182,207.073c0,0.885-0.074,1.126,0.011,1.216
		c3.456,3.662,6.828,7.416,10.5,10.846c0.555,0.519,2.872-0.061,3.766-0.834c2.971-2.569,5.7-5.426,8.429-8.262
		c0.417-0.433,0.585-1.406,0.417-2c-0.121-0.423-0.992-0.87-1.544-0.892c-2.6-0.103-5.206-0.069-7.809-0.071
		C143.408,207.069,138.864,207.073,134.182,207.073z"/>
	<path fill-rule="evenodd" clip-rule="evenodd" fill="#424242" d="M514.456,198.144c23.931,0.037,43.004,19.301,42.932,43.36
		c-0.071,23.783-19.312,42.833-43.225,42.797c-23.93-0.037-43.004-19.302-42.932-43.361
		C471.303,217.159,490.545,198.107,514.456,198.144z M514.262,205.813c-19.166,0.031-35.391,16.299-35.361,35.456
		c0.031,19.169,16.297,35.391,35.457,35.361c19.166-0.03,35.391-16.299,35.361-35.456
		C549.688,222.005,533.422,205.783,514.262,205.813z"/>
	<path fill-rule="evenodd" clip-rule="evenodd" fill="#424242" d="M264.634,284.301c-23.927-0.04-42.996-19.31-42.92-43.373
		c0.074-23.779,19.321-42.825,43.236-42.785c23.927,0.04,42.996,19.31,42.92,43.372C307.796,265.294,288.549,284.34,264.634,284.301
		z M300.201,241.238c0.01-19.161-16.228-35.415-35.392-35.425c-19.163-0.01-35.415,16.227-35.425,35.392
		c-0.01,19.161,16.229,35.415,35.393,35.425C283.938,276.641,300.19,260.404,300.201,241.238z"/>
	<path fill-rule="evenodd" clip-rule="evenodd" fill="#424242" d="M143.511,200.726c-3.684-0.395-7.517-0.918-11.367-1.191
		c-6.468-0.459-8.792-5.794-8.828-10.943c-0.037-5.195,0.805-10.396,1.265-15.595c0.024-0.268,0.152-0.542,0.118-0.799
		c-0.826-6.232,2.547-10.291,6.975-13.944c2.704-2.23,5.113-4.814,7.703-7.188c1.815-1.663,3.772-3.24,6.455-2.688
		c1.146,0.235,2.412,0.733,3.241,1.516c3.601,3.398,7.215,6.808,10.506,10.497c1.6,1.792,3.212,4.091,3.587,6.363
		c1.213,7.359,1.997,14.799,2.665,22.233c0.394,4.381-4.108,9.557-8.964,10.35C152.526,200.046,148.108,200.268,143.511,200.726z"/>
	<path fill-rule="evenodd" clip-rule="evenodd" fill="#424242" d="M208.539,135.407c-0.344,4.68-0.564,8.093-0.853,11.5
		c-0.659,7.772-5.863,12.207-13.549,11.403c-6.441-0.674-12.908-1.285-19.269-2.444c-2.367-0.431-4.756-2.008-6.62-3.648
		c-3.507-3.085-6.593-6.646-9.946-9.914c-2.49-2.427-3.072-5.34-0.952-8.12c2.066-2.709,4.482-5.156,6.796-7.672
		c1.89-2.054,3.945-3.962,5.76-6.078c1.729-2.014,3.893-2.703,6.416-2.904c5.112-0.407,10.216-0.906,15.32-1.41
		c3.704-0.366,7.252-0.382,10.801,1.323c2.759,1.327,4.278,3.23,4.676,6.075C207.728,127.875,208.169,132.254,208.539,135.407z"/>
	<path fill-rule="evenodd" clip-rule="evenodd" fill="#424242" d="M81.179,136.445c0.428-3.929,0.942-7.85,1.265-11.787
		c0.507-6.185,5.117-8.433,10.522-8.638c5.265-0.201,10.573,0.756,15.862,1.206c0.089,0.008,0.18,0.055,0.266,0.044
		c6.986-0.898,11.416,3.048,15.437,7.973c1.989,2.436,4.32,4.59,6.448,6.916c1.673,1.828,3.137,3.83,2.578,6.498
		c-0.223,1.066-0.693,2.243-1.425,3.013c-3.411,3.588-6.809,7.217-10.51,10.492c-1.862,1.647-4.241,3.294-6.596,3.69
		c-7.266,1.222-14.62,1.975-21.964,2.645c-4.42,0.402-9.494-4.032-10.472-8.849c-0.446-2.197-0.688-4.451-0.832-6.69
		c-0.138-2.151-0.03-4.318-0.03-6.477C81.544,136.468,81.361,136.457,81.179,136.445z"/>
	<path fill-rule="evenodd" clip-rule="evenodd" fill="#424242" d="M143.073,73.428c4.192,0.306,7.696,0.525,11.192,0.824
		c7.734,0.661,12.175,5.898,11.375,13.572c-0.662,6.352-1.47,12.689-2.295,19.022c-0.357,2.747-1.553,5.027-3.704,6.964
		c-3.476,3.131-6.755,6.488-10.023,9.841c-2.416,2.479-5.355,3.072-8.121,0.916c-3.042-2.373-5.646-5.309-8.693-7.675
		c-5.414-4.204-8.685-9.178-8.435-16.42c0.166-4.821-1.154-9.686-1.06-14.517c0.123-6.35,2.43-10.917,9.415-11.547
		C136.395,74.077,140.062,73.714,143.073,73.428z"/>
	<path fill-rule="evenodd" clip-rule="evenodd" fill="#424242" d="M655.896,190.768c0.035,13.548-10.63,24.257-24.152,24.252
		c-13.403-0.006-24.081-10.64-24.115-24.017c-0.035-13.548,10.63-24.257,24.151-24.252
		C645.183,166.757,655.861,177.391,655.896,190.768z M632.422,194.902c3.919,4.046,7.536,7.781,10.77,11.119
		c1.429-1.21,2.697-2.285,4.411-3.737c-3.786-3.73-7.48-7.369-11.582-11.41c3.792-3.659,7.594-7.326,10.863-10.48
		c-1.01-1.53-1.931-2.926-3.22-4.877c-4.145,4.243-7.829,8.016-11.889,12.172c-3.616-3.728-7.229-7.453-10.887-11.222
		c-1.253,1.209-2.41,2.326-4.018,3.878c3.905,3.792,7.678,7.455,11.844,11.5c-3.745,3.648-7.336,7.146-10.418,10.147
		c0.969,1.461,1.893,2.854,3.004,4.532C625.13,202.522,628.551,198.947,632.422,194.902z"/>
	<path fill-rule="evenodd" clip-rule="evenodd" fill="#424242" d="M631.834,102.98c-13.536,0.022-24.226-10.663-24.206-24.197
		c0.019-13.39,10.674-24.05,24.061-24.072c13.537-0.021,24.226,10.663,24.207,24.197C655.877,92.299,645.222,102.958,631.834,102.98
		z M649.583,89.308c-6.352-10.217-12.487-20.089-18.999-30.563c-5.692,10.526-11.044,20.421-16.528,30.563
		C625.979,89.308,637.486,89.308,649.583,89.308z"/>
	<path fill-rule="evenodd" clip-rule="evenodd" fill="#424242" d="M600.146,135.085c0.017,13.53-10.679,24.211-24.218,24.186
		c-13.384-0.025-24.035-10.69-24.051-24.083c-0.016-13.53,10.68-24.21,24.218-24.186
		C589.479,111.027,600.131,121.692,600.146,135.085z M560.779,120.913c0,9.983,0,19.746,0,29.433c9.958,0,19.722,0,29.432,0
		c0-9.917,0-19.616,0-29.433C580.367,120.913,570.668,120.913,560.779,120.913z"/>
	<path fill-rule="evenodd" clip-rule="evenodd" fill="#424242" d="M712.187,135.113c0.007,13.522-10.7,24.191-24.246,24.158
		c-13.379-0.033-24.016-10.708-24.023-24.11c-0.007-13.522,10.7-24.191,24.246-24.158
		C701.541,111.035,712.179,121.711,712.187,135.113z M706.721,134.896c0.02-9.694-7.983-17.785-17.692-17.888
		c-9.79-0.103-18.003,8.021-18.022,17.828c-0.019,9.694,7.984,17.785,17.693,17.888
		C698.489,152.827,706.702,144.703,706.721,134.896z"/>
	<path fill-rule="evenodd" clip-rule="evenodd" fill="#424242" d="M215.75,126.203c1.65,1.377,3.088,2.456,4.384,3.684
		c2.073,1.965,4.099,3.986,6.059,6.064c1.699,1.803,1.654,3.656-0.135,5.446c-2.72,2.721-5.379,5.503-8.153,8.166
		c-0.433,0.416-1.369,0.522-2.015,0.417c-0.368-0.06-0.882-0.836-0.884-1.291c-0.025-7.003,0.021-14.007,0.07-21.01
		C215.077,127.443,215.281,127.208,215.75,126.203z"/>
	<path fill-rule="evenodd" clip-rule="evenodd" fill="#424242" d="M77.57,126.858c0,4.664,0.004,9.205-0.001,13.746
		c-0.003,2.603,0.029,5.209-0.073,7.809c-0.022,0.556-0.457,1.431-0.878,1.554c-0.593,0.174-1.572,0.013-2.004-0.402
		c-2.836-2.728-5.692-5.458-8.262-8.428c-0.776-0.896-1.367-3.211-0.851-3.764c3.43-3.674,7.181-7.047,10.84-10.504
		C76.431,126.784,76.672,126.858,77.57,126.858z"/>
	<path fill-rule="evenodd" clip-rule="evenodd" fill="#424242" d="M133.413,69.032c1.502-1.799,2.58-3.242,3.816-4.534
		c2.036-2.127,4.131-4.203,6.284-6.211c1.65-1.54,3.413-1.437,5.021,0.128c2.823,2.748,5.645,5.498,8.375,8.336
		c0.414,0.43,0.51,1.374,0.399,2.019c-0.063,0.365-0.845,0.863-1.305,0.865c-6.913,0.033-13.826-0.002-20.739-0.042
		C134.938,69.592,134.613,69.404,133.413,69.032z"/>
	<path fill-rule="evenodd" clip-rule="evenodd" fill="#424242" d="M134.182,207.073c4.683,0,9.226-0.003,13.77,0.002
		c2.604,0.002,5.209-0.031,7.809,0.071c0.552,0.021,1.423,0.469,1.544,0.892c0.169,0.595,0,1.567-0.417,2
		c-2.729,2.836-5.458,5.693-8.429,8.262c-0.895,0.774-3.211,1.354-3.766,0.834c-3.673-3.431-7.044-7.184-10.5-10.846
		C134.107,208.199,134.182,207.958,134.182,207.073z"/>
	<path fill-rule="evenodd" clip-rule="evenodd" fill="#262626" d="M514.262,205.813c19.16-0.03,35.426,16.192,35.457,35.361
		c0.029,19.157-16.195,35.426-35.361,35.456c-19.16,0.03-35.426-16.191-35.457-35.361
		C478.871,222.112,495.096,205.844,514.262,205.813z"/>
	<path fill-rule="evenodd" clip-rule="evenodd" fill="#262626" d="M300.201,241.238c-0.01,19.166-16.262,35.403-35.425,35.392
		c-19.164-0.01-35.403-16.264-35.393-35.425c0.011-19.165,16.263-35.402,35.425-35.392
		C283.973,205.824,300.211,222.078,300.201,241.238z"/>
	<path fill-rule="evenodd" clip-rule="evenodd" fill="#B6C7F5" d="M632.422,194.902c-3.871,4.045-7.292,7.62-11.121,11.622
		c-1.111-1.677-2.035-3.07-3.004-4.532c3.082-3.001,6.673-6.5,10.418-10.147c-4.166-4.045-7.938-7.708-11.844-11.5
		c1.607-1.552,2.765-2.669,4.018-3.878c3.657,3.769,7.271,7.495,10.887,11.222c4.06-4.156,7.744-7.929,11.889-12.172
		c1.289,1.952,2.21,3.347,3.22,4.877c-3.27,3.154-7.071,6.822-10.863,10.48c4.102,4.041,7.796,7.679,11.582,11.41
		c-1.714,1.453-2.982,2.527-4.411,3.737C639.958,202.683,636.341,198.949,632.422,194.902z"/>
	<path fill-rule="evenodd" clip-rule="evenodd" fill="#F9A6E4" d="M560.779,120.913c9.889,0,19.588,0,29.432,0
		c0,9.817,0,19.517,0,29.433c-9.71,0-19.474,0-29.432,0C560.779,140.659,560.779,130.896,560.779,120.913z M585.906,125.315
		c-7.096,0-13.973,0-20.773,0c0,7.072,0,13.949,0,20.772c7.03,0,13.844,0,20.773,0C585.906,139.132,585.906,132.319,585.906,125.315
		z"/>
	<path fill-rule="evenodd" clip-rule="evenodd" fill="#FF848C" d="M706.721,134.896c-0.019,9.807-8.231,17.931-18.021,17.828
		c-9.709-0.103-17.712-8.193-17.693-17.888c0.02-9.807,8.232-17.931,18.022-17.828C698.737,117.111,706.74,125.202,706.721,134.896z
		 M702.273,134.964c0.118-6.51-6.775-13.47-13.379-13.508c-6.472-0.038-13.153,6.515-13.439,13.177
		c-0.275,6.419,6.537,13.437,13.243,13.643C695.158,148.474,702.153,141.615,702.273,134.964z"/>
	<path fill-rule="evenodd" clip-rule="evenodd" fill="#424242" d="M630.877,68.232c3.601,5.802,6.893,11.107,10.361,16.697
		c-6.575,0-12.742,0-19.358,0C624.851,79.417,627.724,74.084,630.877,68.232z"/>
	<path fill-rule="evenodd" clip-rule="evenodd" fill="#424242" d="M585.906,125.315c0,7.004,0,13.816,0,20.772
		c-6.93,0-13.743,0-20.773,0c0-6.823,0-13.701,0-20.772C571.934,125.315,578.811,125.315,585.906,125.315z"/>
	<path fill-rule="evenodd" clip-rule="evenodd" fill="#424242" d="M702.273,134.964c-0.12,6.651-7.115,13.51-13.575,13.312
		c-6.706-0.206-13.519-7.223-13.243-13.643c0.286-6.663,6.968-13.215,13.439-13.177
		C695.498,121.494,702.392,128.454,702.273,134.964z"/>
	<path fill-rule="evenodd" clip-rule="evenodd" fill="#3FE9DF" d="M649.583,89.308c-12.097,0-23.604,0-35.527,0
		c5.484-10.143,10.836-20.038,16.528-30.563C637.096,69.219,643.231,79.091,649.583,89.308z M630.877,68.232
		c-3.153,5.852-6.026,11.184-8.997,16.697c6.616,0,12.783,0,19.358,0C637.77,79.339,634.478,74.035,630.877,68.232z"/>
</g>
</svg>
