<?xml version="1.0" encoding="utf-8"?>
<!-- Generator: Adobe Illustrator 16.0.0, SVG Export Plug-In . SVG Version: 6.00 Build 0)  -->
<!DOCTYPE svg PUBLIC "-//W3C//DTD SVG 1.1//EN" "http://www.w3.org/Graphics/SVG/1.1/DTD/svg11.dtd">
<svg version="1.1" id="Layer_1" xmlns="http://www.w3.org/2000/svg" xmlns:xlink="http://www.w3.org/1999/xlink" x="0px" y="0px"
	 width="762.151px" height="509.09px" viewBox="0 0 762.151 509.09" enable-background="new 0 0 762.151 509.09"
	 xml:space="preserve">
<g>
	<g>
		<path fill-rule="evenodd" clip-rule="evenodd" fill="#252525" d="M659.973,69.32c8.254,3.66,12.553,11.281,15.439,18.717
			c22.787,58.704,45.25,117.545,63.037,178.022c11.822,40.195,21.759,80.775,23.507,122.898c0.75,18.073-0.582,35.979-5.377,53.497
			c-8.595,31.4-28.043,52.755-58.992,63.374c-2.205,0.757-4.391,1.587-6.628,2.232c-4.917,1.417-9.473,1.29-14.023-1.823
			c-18.297-12.517-33.611-28.317-48.899-44.118c-20.172-20.847-41.173-40.756-62.921-59.983
			c-18.806-16.626-39.963-24.198-64.803-23.831c-29.988,0.443-59.988,0.017-89.982,0.02c-49.158,0.004-98.316-0.018-147.475,0.134
			c-10.822,0.033-21.676,0.507-32.225,3.366c-12.935,3.507-22.95,11.861-33.057,20.067c-24.379,19.796-46.129,42.341-68.047,64.726
			c-14.102,14.402-28.249,28.77-45.152,40.077c-3.706,2.479-7.655,2.884-11.208,1.896c-27.385-7.611-49.255-22.323-61.573-49.021
			C3.476,441.976,0.512,423.31,0.07,404.189c-0.801-34.611,5.405-68.345,13.733-101.729c13.37-53.596,31.79-105.571,51.059-157.26
			c6.982-18.731,13.855-37.513,21.376-56.028c3.376-8.312,8.601-15.657,16.213-21.062c2.419-1.717,5.572-1.138,7.636-3.294
			c1.699-2.885,4.076-4.998,7.125-6.395c18.013-8.255,35.818-17.161,55.035-22.273c16.699-4.443,33.515-8.544,51.073-8.495
			c10.202,0.029,18.396,3.836,25.599,10.54c8.187,7.62,14.726,16.728,22.331,24.886c10.551,11.317,20.467,23.21,30.957,34.6
			c5.837,6.337,12.599,8.679,20.716,9.071c28.926,1.399,57.857,2.508,86.825,2.008c11.313-0.195,22.591-1.038,33.849-2.138
			c3.979-0.389,7.252-2.201,10.093-4.982c18.449-18.063,36.483-36.515,52.499-56.818c3.974-5.038,8.768-9.089,13.855-12.869
			c6.397-4.752,13.651-5.668,21.365-4.935c33.776,3.213,65.239,14.301,95.915,28.07c4.812,2.16,10.174,3.454,13.608,7.982
			C653.506,65.784,657.423,66.563,659.973,69.32z"/>
		<path fill-rule="evenodd" clip-rule="evenodd" fill="#424242" d="M651.118,64.203c-25.448-11.899-51.149-23.105-78.679-29.46
			c-11.031-2.546-22.197-4.138-33.438-5.39c-8.444-0.941-15.183,2.379-21.443,7.545c-8.568,7.072-14.583,16.399-21.948,24.532
			c-11.516,12.716-23.456,25.025-35.197,37.523c-6.847,7.288-14.516,10.657-24.435,11.182c-34.806,1.843-69.568,1.265-104.333-0.694
			c-5.479-0.309-10.949-1.066-16.426-1.089c-4.771-0.02-8.248-2.014-11.283-5.375c-9.26-10.256-18.7-20.354-27.785-30.763
			c-7.659-8.775-15.78-17.142-22.955-26.354c-12.733-16.35-29.584-17.499-48.629-14.42c-33.627,5.435-64.437,18.157-94.48,33.375
			c3.304-8.285,6.5-16.615,9.98-24.825c0.988-2.33,3.42-3.61,5.625-4.793c23.792-12.768,47.78-25.136,74.406-31.038
			c13.678-3.032,27.552-4.776,41.626-3.958c4.393,0.255,8.484,1.663,12.338,3.718c3.818,2.037,7.742,3.941,11.323,6.347
			c8.743,5.875,18.253,7.986,28.771,8.219c52.778,1.168,105.556,0.281,158.333,0.424c7.652,0.021,15.308-0.456,22.96-0.746
			c7.233-0.274,13.853-2.831,19.464-7.06c16.122-12.151,34.009-12.178,52.873-9.548c28.241,3.937,53.517,15.617,78.538,28.239
			c1.338,0.674,2.616,1.497,4.006,2.034c8.159,3.155,13.748,8.485,15.266,17.464c0.884,5.231,4.728,9.106,6.586,13.902
			C652.368,64.101,652.131,64.561,651.118,64.203z"/>
		<path fill-rule="evenodd" clip-rule="evenodd" fill="#424242" d="M651.118,64.203c0.354-0.336,0.708-0.672,1.062-1.009
			c2.335,2.375,6.486,2.442,7.792,6.126C657.021,67.614,654.069,65.909,651.118,64.203z"/>
		<path fill-rule="evenodd" clip-rule="evenodd" fill="#424242" d="M268.074,309.229c-0.001-4.333-0.229-8.681,0.071-12.992
			c0.239-3.44-1.126-4.142-4.256-4.07c-8.327,0.19-16.666-0.101-24.991,0.133c-4.232,0.119-6.1-1.148-5.897-5.66
			c0.29-6.485,0.195-12.997,0.027-19.491c-0.095-3.697,1.413-5.028,5.042-4.964c8.496,0.15,17.005-0.178,25.49,0.146
			c3.904,0.149,4.714-1.162,4.597-4.775c-0.265-8.156,0.083-16.332-0.151-24.49c-0.121-4.222,1.128-6.11,5.65-5.908
			c6.486,0.291,12.998,0.196,19.492,0.028c3.698-0.096,5.033,1.42,4.971,5.043c-0.145,8.495,0.18,17.004-0.145,25.49
			c-0.149,3.905,1.164,4.713,4.776,4.596c8.156-0.265,16.332,0.085,24.49-0.151c4.234-0.123,6.103,1.155,5.905,5.661
			c-0.284,6.486-0.19,12.997-0.028,19.492c0.093,3.692-1.421,5.027-5.05,4.963c-8.496-0.151-17.005,0.179-25.49-0.148
			c-3.922-0.151-4.701,1.19-4.586,4.786c0.261,8.157-0.083,16.332,0.149,24.491c0.121,4.232-1.159,6.098-5.668,5.896
			c-6.486-0.289-12.997-0.195-19.492-0.027c-3.705,0.096-5.097-1.428-4.948-5.053C268.211,317.899,268.075,313.562,268.074,309.229z
			"/>
		<path fill-rule="evenodd" clip-rule="evenodd" fill="#424242" d="M230.071,153.517c0.074,23.723-18.748,42.681-42.407,42.712
			c-23.7,0.032-42.6-18.843-42.587-42.532c0.012-23.47,18.754-42.347,42.158-42.461
			C210.981,111.118,229.997,129.888,230.071,153.517z"/>
		<path fill-rule="evenodd" clip-rule="evenodd" fill="#424242" d="M522.071,269.486c0.084,23.729-18.726,42.7-42.377,42.742
			c-23.706,0.043-42.62-18.82-42.618-42.502c0.002-23.475,18.732-42.367,42.128-42.492
			C502.956,227.108,521.987,245.866,522.071,269.486z"/>
		<path fill-rule="evenodd" clip-rule="evenodd" fill="#424242" d="M578.045,129.226c-14.514-0.012-25.976-11.5-25.965-26.023
			c0.012-14.514,11.5-25.977,26.023-25.965c14.514,0.012,25.976,11.5,25.965,26.023
			C604.057,117.774,592.568,129.237,578.045,129.226z"/>
		<path fill-rule="evenodd" clip-rule="evenodd" fill="#424242" d="M553.068,154.312c-0.031,14.504-11.543,25.944-26.075,25.913
			c-14.504-0.032-25.944-11.543-25.913-26.075c0.031-14.504,11.543-25.944,26.075-25.913
			C541.659,128.269,553.1,139.78,553.068,154.312z"/>
		<path fill-rule="evenodd" clip-rule="evenodd" fill="#424242" d="M578.049,231.226c-14.515-0.01-25.979-11.497-25.969-26.02
			c0.01-14.515,11.497-25.979,26.02-25.969c14.515,0.01,25.979,11.497,25.969,26.02
			C604.059,219.771,592.571,231.235,578.049,231.226z"/>
		<path fill-rule="evenodd" clip-rule="evenodd" fill="#424242" d="M629.071,180.226c-14.517-0.001-25.992-11.479-25.991-25.997
			c0.001-14.517,11.479-25.992,25.997-25.991c14.517,0.001,25.992,11.479,25.991,25.997
			C655.067,168.751,643.59,180.227,629.071,180.226z"/>
		<path fill-rule="evenodd" clip-rule="evenodd" fill="#252525" d="M220.073,153.655c0.007,18.484-14.013,32.57-32.422,32.576
			c-18.484,0.007-32.57-14.014-32.576-32.422c-0.006-18.484,14.013-32.57,32.423-32.576
			C205.981,121.226,220.067,135.246,220.073,153.655z"/>
		<path fill-rule="evenodd" clip-rule="evenodd" fill="#252525" d="M479.413,302.23c-18.358-0.013-32.352-14.145-32.338-32.66
			c0.013-18.365,14.138-32.352,32.66-32.338c18.358,0.013,32.351,14.145,32.338,32.66
			C512.061,288.258,497.936,302.244,479.413,302.23z"/>
		<path fill-rule="evenodd" clip-rule="evenodd" fill="#F0CD02" d="M588.795,87.439c-1.258,2.551-2.118,4.514-3.162,6.374
			c-3.914,6.969-7.742,13.928-6.353,22.419c0.241,1.471,0.144,3.016-2.162,3.011c-1.804-0.004-2.526-0.886-2.245-2.426
			c1.829-10.043-3.747-17.805-7.871-26.027c-0.496-0.991-1.376-1.916-0.908-3.431c9.094-1.249,6.164,8.754,11.312,11.438
			C581.899,96.468,578.937,86.118,588.795,87.439z"/>
		<path fill-rule="evenodd" clip-rule="evenodd" fill="#009ED0" d="M512.41,137.347c3.506,0.126,6.272-1.255,7.987,2.062
			c1.196,2.315,2.809,4.415,4.328,6.754c4.202-2.994,4.241-11.456,12.622-8.334c-2.285,3.813-4.353,7.744-6.895,11.338
			c-1.765,2.494-1.457,4.353,0.126,6.693c2.769,4.092,5.268,8.366,8.018,12.786c-4.401,1.409-7.008,0.479-9.18-3.474
			c-4.047-7.364-4.547-7.365-8.419-0.268c-2.132,3.908-4.728,5.213-9.532,3.814c2.844-4.566,5.515-9.053,8.396-13.399
			c1.379-2.08,1.445-3.725-0.005-5.849C517.356,145.805,515.187,141.913,512.41,137.347z"/>
		<path fill-rule="evenodd" clip-rule="evenodd" fill="#499F30" d="M590.855,219.773c-3.74,1.171-6.221,0.526-6.732-3.48
			c-0.583-4.568-4.116-2.974-6.584-2.966c-2.462,0.008-6.007-1.63-6.622,2.927c-0.109,0.808-0.54,1.567-0.746,2.369
			c-0.639,2.477-2.663,1.664-4.097,1.492c-2.311-0.276-1.051-2.02-0.731-3.042c2.718-8.712,5.618-17.366,8.256-26.102
			c0.661-2.187,1.698-2.933,3.856-2.771c1.792,0.134,3.523-0.284,4.274,2.221C584.673,200.235,587.799,209.995,590.855,219.773z"/>
		<path fill-rule="evenodd" clip-rule="evenodd" fill="#C71F1C" d="M619.964,153.395c0-2.49-0.254-5.013,0.066-7.46
			c0.376-2.883-1.836-7.759,1.472-8.271c5.243-0.811,11.553-2.529,16.106,2.047c3.263,3.278,3.135,7.576,0.396,11.405
			c-1.104,1.542-0.422,2.089,0.631,3.161c2.878,2.93,3.141,6.428,1.547,10.124c-1.606,3.724-4.707,4.754-8.452,4.847
			c-11.767,0.291-11.766,0.321-11.766-11.372C619.964,156.382,619.964,154.889,619.964,153.395z"/>
		<path fill-rule="evenodd" clip-rule="evenodd" fill="#424242" d="M577.54,194c1.213,4.021,1.791,6.794,2.88,9.349
			c1.636,3.837-0.352,3.954-3.311,3.977c-2.709,0.021-3.622-0.68-2.647-3.396C575.462,201.142,576.229,198.271,577.54,194z"/>
		<path fill-rule="evenodd" clip-rule="evenodd" fill="#424242" d="M630.453,163.183c-3.535,0.101-6.172,0.813-6.118-3.58
			c0.051-4.141,2.564-3.451,4.923-3.356c2.797,0.112,6.679-0.899,6.639,3.663C635.858,164.235,632.062,162.901,630.453,163.183z"/>
		<path fill-rule="evenodd" clip-rule="evenodd" fill="#424242" d="M629.4,143.223c2.673,0.002,5.791-0.448,5.619,3.658
			c-0.172,4.084-3.437,3.215-5.984,3.363c-2.639,0.154-4.773,0.26-4.703-3.697C624.406,142.28,627.089,143.342,629.4,143.223z"/>
	</g>
</g>
</svg>
