<?xml version="1.0" encoding="utf-8"?>
<!-- Generator: Adobe Illustrator 16.0.0, SVG Export Plug-In . SVG Version: 6.00 Build 0)  -->
<!DOCTYPE svg PUBLIC "-//W3C//DTD SVG 1.1//EN" "http://www.w3.org/Graphics/SVG/1.1/DTD/svg11.dtd">
<svg version="1.1" id="Layer_1" xmlns="http://www.w3.org/2000/svg" xmlns:xlink="http://www.w3.org/1999/xlink" x="0px" y="0px"
	 width="177.129px" height="140.23px" viewBox="0 0 177.129 140.23" enable-background="new 0 0 177.129 140.23"
	 xml:space="preserve">
<path fill="#FFFFFF" d="M88.564,92.38c55.418,0.768,76.313-3.706,84.105-14.032c1.822-2.415,2.926-5.558,3.588-8.692
	c1.047-7.713,0.857-12.849,0.857-12.849s-40.551,6.732-88.551,6.232S0.014,56.807,0.014,56.807S-0.19,61.98,0.986,69.745
	c0.665,2.808,1.724,5.575,3.406,7.718C12.13,87.325,32.986,91.609,88.564,92.38z"/>
<g>
	<path d="M1.126,19.539c0,0,0.701-1.043,2.145-2.706c1.449-1.651,3.633-3.938,6.595-6.323c1.484-1.185,3.133-2.436,5-3.587
		c1.858-1.16,3.872-2.334,6.093-3.283c2.195-1,4.567-1.85,7.046-2.485c2.483-0.632,5.083-1.002,7.703-1.128
		c0.653-0.06,1.312,0.002,1.966-0.002c0.655,0.028,1.312-0.01,1.962,0.074c1.3,0.141,2.604,0.227,3.864,0.524
		c0.633,0.127,1.263,0.253,1.89,0.379c0.61,0.186,1.219,0.371,1.824,0.555c1.22,0.331,2.364,0.821,3.493,1.285
		c1.146,0.426,2.192,1.012,3.223,1.561c1.05,0.517,1.978,1.186,2.908,1.781c0.46,0.306,0.925,0.591,1.36,0.903
		c0.421,0.33,0.835,0.655,1.243,0.975c0.792,0.667,1.614,1.235,2.285,1.919c1.396,1.304,2.664,2.496,3.644,3.69
		c1.024,1.148,1.899,2.155,2.527,3.064c1.305,1.773,2.003,2.804,2.003,2.804s-0.97-0.811-2.584-2.261
		c-0.779-0.753-1.842-1.543-2.999-2.497c-1.133-0.983-2.544-1.917-4.013-2.999c-0.718-0.565-1.572-0.998-2.394-1.527
		c-0.413-0.26-0.833-0.524-1.259-0.792c-0.435-0.253-0.895-0.477-1.349-0.721c-0.918-0.471-1.83-1.012-2.841-1.391
		c-1.002-0.393-1.969-0.921-3.04-1.231c-1.05-0.362-2.107-0.752-3.224-0.982c-0.551-0.135-1.105-0.271-1.663-0.407
		c-0.564-0.095-1.132-0.191-1.702-0.287c-1.131-0.244-2.301-0.259-3.46-0.39c-0.58-0.072-1.168-0.026-1.753-0.047
		c-0.585,0.009-1.172-0.044-1.758,0.015c-1.171,0.077-2.347,0.109-3.507,0.308c-1.167,0.128-2.316,0.364-3.458,0.595
		c-2.266,0.536-4.506,1.127-6.596,1.962c-2.101,0.795-4.102,1.685-5.962,2.622c-1.854,0.948-3.578,1.925-5.152,2.869
		c-1.552,0.977-2.981,1.882-4.21,2.746c-1.232,0.859-2.294,1.635-3.163,2.288C2.085,18.729,1.126,19.539,1.126,19.539z"/>
</g>
<g>
	<path d="M103.355,19.539c0,0,0.701-1.043,2.145-2.706c1.449-1.651,3.633-3.938,6.595-6.323c1.484-1.185,3.133-2.436,5-3.587
		c1.857-1.16,3.871-2.334,6.093-3.283c2.195-1,4.566-1.85,7.046-2.485c2.483-0.632,5.083-1.002,7.703-1.128
		c0.652-0.06,1.312,0.002,1.966-0.002c0.655,0.028,1.312-0.01,1.962,0.074c1.301,0.141,2.604,0.227,3.864,0.524
		c0.633,0.127,1.263,0.253,1.891,0.379c0.61,0.186,1.219,0.371,1.823,0.555c1.221,0.331,2.364,0.821,3.493,1.285
		c1.146,0.426,2.192,1.012,3.224,1.561c1.05,0.517,1.978,1.186,2.908,1.781c0.46,0.306,0.925,0.591,1.359,0.903
		c0.421,0.33,0.836,0.655,1.243,0.975c0.791,0.667,1.614,1.235,2.285,1.919c1.396,1.304,2.664,2.496,3.644,3.69
		c1.024,1.148,1.899,2.155,2.526,3.064c1.305,1.773,2.004,2.804,2.004,2.804s-0.97-0.811-2.585-2.261
		c-0.779-0.753-1.842-1.543-2.998-2.497c-1.133-0.983-2.545-1.917-4.014-2.999c-0.718-0.565-1.572-0.998-2.394-1.527
		c-0.413-0.26-0.833-0.524-1.26-0.792c-0.435-0.253-0.895-0.477-1.349-0.721c-0.919-0.471-1.83-1.012-2.841-1.391
		c-1.003-0.393-1.97-0.921-3.04-1.231c-1.05-0.362-2.107-0.752-3.224-0.982c-0.552-0.135-1.105-0.271-1.663-0.407
		c-0.564-0.095-1.133-0.191-1.702-0.287c-1.132-0.244-2.302-0.259-3.46-0.39c-0.58-0.072-1.169-0.026-1.753-0.047
		c-0.586,0.009-1.172-0.044-1.758,0.015c-1.172,0.077-2.348,0.109-3.507,0.308c-1.167,0.128-2.316,0.364-3.459,0.595
		c-2.266,0.536-4.506,1.127-6.596,1.962c-2.101,0.795-4.102,1.685-5.962,2.622c-1.854,0.948-3.578,1.925-5.152,2.869
		c-1.552,0.977-2.981,1.882-4.211,2.746c-1.232,0.859-2.294,1.635-3.163,2.288C104.314,18.729,103.355,19.539,103.355,19.539z"/>
</g>
<path fill="#1A1A1A" d="M176.258,69.655c-0.662,3.135-1.766,6.277-3.588,8.692c-7.792,10.326-28.688,14.8-84.105,14.032
	C32.986,91.609,12.13,87.325,4.392,77.463c-1.682-2.143-2.741-4.91-3.406-7.718c2.739,18.081,12.985,50.23,50.799,63.969
	c4.3-8.694,13.256-14.675,23.613-14.675c4.798,0,9.292,1.289,13.167,3.531c3.875-2.242,8.369-3.531,13.167-3.531
	c10.943,0,20.325,6.676,24.301,16.177C163.834,122.454,173.713,88.414,176.258,69.655z"/>
<path fill="#B61A32" d="M101.731,119.039c-4.798,0-9.292,1.289-13.167,3.531c-3.875-2.242-8.369-3.531-13.167-3.531
	c-10.357,0-19.313,5.98-23.613,14.675c10.147,3.687,22.273,6.054,36.78,6.46c14.836,0.416,27.183-1.486,37.468-4.958
	C122.057,125.715,112.675,119.039,101.731,119.039z"/>
</svg>
