<?xml version="1.0" encoding="utf-8"?>
<!-- Generator: Adobe Illustrator 16.0.0, SVG Export Plug-In . SVG Version: 6.00 Build 0)  -->
<!DOCTYPE svg PUBLIC "-//W3C//DTD SVG 1.1//EN" "http://www.w3.org/Graphics/SVG/1.1/DTD/svg11.dtd">
<svg version="1.1" id="Layer_1" xmlns="http://www.w3.org/2000/svg" xmlns:xlink="http://www.w3.org/1999/xlink" x="0px" y="0px"
	 width="175.272px" height="127.382px" viewBox="0 0 175.272 127.382" enable-background="new 0 0 175.272 127.382"
	 xml:space="preserve">
<g>
	<path d="M0.256,19.539c0,0,0.701-1.043,2.144-2.706c1.449-1.651,3.633-3.938,6.595-6.323c1.484-1.185,3.133-2.436,5-3.587
		c1.858-1.16,3.872-2.334,6.093-3.283c2.195-1,4.567-1.85,7.046-2.485c2.483-0.632,5.083-1.002,7.703-1.128
		c0.653-0.06,1.312,0.002,1.966-0.001c0.655,0.027,1.312-0.01,1.962,0.073c1.3,0.141,2.604,0.227,3.864,0.524
		c0.633,0.127,1.263,0.253,1.89,0.379c0.611,0.186,1.219,0.371,1.824,0.555c1.22,0.331,2.364,0.821,3.493,1.285
		c1.146,0.426,2.192,1.012,3.223,1.561c1.05,0.517,1.978,1.186,2.908,1.781c0.46,0.306,0.925,0.592,1.36,0.903
		c0.421,0.331,0.835,0.656,1.243,0.975c0.792,0.667,1.614,1.235,2.285,1.919c1.396,1.304,2.664,2.496,3.644,3.69
		c1.024,1.148,1.899,2.155,2.527,3.064c1.305,1.773,2.003,2.804,2.003,2.804s-0.97-0.811-2.584-2.261
		c-0.779-0.753-1.842-1.543-2.999-2.497c-1.133-0.983-2.544-1.917-4.013-2.999c-0.718-0.565-1.572-0.998-2.394-1.527
		c-0.413-0.26-0.833-0.524-1.259-0.792c-0.435-0.253-0.895-0.477-1.349-0.721c-0.918-0.471-1.83-1.012-2.841-1.391
		c-1.002-0.393-1.969-0.921-3.04-1.231c-1.05-0.362-2.107-0.752-3.224-0.982c-0.551-0.135-1.105-0.271-1.663-0.407
		c-0.564-0.095-1.132-0.191-1.702-0.287c-1.131-0.244-2.301-0.259-3.46-0.39c-0.58-0.072-1.168-0.026-1.753-0.047
		c-0.585,0.009-1.172-0.044-1.758,0.015c-1.171,0.077-2.347,0.109-3.507,0.308c-1.167,0.128-2.316,0.364-3.458,0.595
		c-2.266,0.536-4.506,1.127-6.596,1.962c-2.101,0.795-4.102,1.685-5.962,2.622c-1.854,0.948-3.578,1.925-5.152,2.869
		c-1.552,0.977-2.981,1.882-4.21,2.746c-1.232,0.859-2.294,1.635-3.163,2.288C1.215,18.729,0.256,19.539,0.256,19.539z"/>
</g>
<g>
	<path d="M102.485,19.539c0,0,0.701-1.043,2.145-2.706c1.449-1.651,3.633-3.938,6.595-6.323c1.484-1.185,3.133-2.436,5-3.587
		c1.857-1.16,3.871-2.334,6.093-3.283c2.195-1,4.566-1.85,7.046-2.485c2.483-0.632,5.083-1.002,7.703-1.128
		c0.652-0.06,1.312,0.002,1.966-0.001c0.655,0.027,1.312-0.01,1.962,0.073c1.301,0.141,2.604,0.227,3.864,0.524
		c0.633,0.127,1.263,0.253,1.891,0.379c0.61,0.186,1.219,0.371,1.823,0.555c1.221,0.331,2.364,0.821,3.493,1.285
		c1.146,0.426,2.192,1.012,3.224,1.561c1.05,0.517,1.978,1.186,2.908,1.781c0.46,0.306,0.925,0.592,1.359,0.903
		c0.421,0.331,0.836,0.656,1.243,0.975c0.791,0.667,1.614,1.235,2.285,1.919c1.396,1.304,2.664,2.496,3.644,3.69
		c1.024,1.148,1.899,2.155,2.526,3.064c1.305,1.773,2.004,2.804,2.004,2.804s-0.97-0.811-2.585-2.261
		c-0.779-0.753-1.842-1.543-2.998-2.497c-1.133-0.983-2.545-1.917-4.014-2.999c-0.718-0.565-1.572-0.998-2.394-1.527
		c-0.413-0.26-0.833-0.524-1.26-0.792c-0.435-0.253-0.895-0.477-1.349-0.721c-0.919-0.471-1.83-1.012-2.841-1.391
		c-1.003-0.393-1.97-0.921-3.04-1.231c-1.05-0.362-2.107-0.752-3.224-0.982c-0.552-0.135-1.105-0.271-1.663-0.407
		c-0.564-0.095-1.133-0.191-1.702-0.287c-1.132-0.244-2.302-0.259-3.46-0.39c-0.58-0.072-1.169-0.026-1.753-0.047
		c-0.586,0.009-1.172-0.044-1.758,0.015c-1.172,0.077-2.348,0.109-3.507,0.308c-1.167,0.128-2.316,0.364-3.459,0.595
		c-2.266,0.536-4.506,1.127-6.596,1.962c-2.101,0.795-4.102,1.685-5.962,2.622c-1.854,0.948-3.578,1.925-5.152,2.869
		c-1.552,0.977-2.981,1.882-4.211,2.746c-1.232,0.859-2.294,1.635-3.163,2.288C103.444,18.729,102.485,19.539,102.485,19.539z"/>
</g>
<path fill="#1A1A1A" d="M87.694,72.38c-23.468-0.325-40.727-1.28-53.439-3.014C9.477,85.01,2.141,111.602,0,127.382
	c0.663-3.135,1.766-6.277,3.588-8.692c5.855-7.759,19.112-12.213,48.849-13.623c4.693-7.233,12.825-12.028,22.091-12.028
	c4.798,0,9.292,1.29,13.167,3.532c3.874-2.242,8.368-3.532,13.167-3.532c9.639,0,18.062,5.182,22.65,12.909
	c29.455,2.001,42.572,6.255,48.355,13.626c1.681,2.143,2.741,4.91,3.406,7.718c-2.327-15.363-10.085-40.876-35.558-56.629
	C127.146,72.134,110.292,72.693,87.694,72.38z"/>
<path fill="#FFFFFF" d="M87.694,56.863c-14.836-0.416-27.183,1.486-37.468,4.958c-6.002,2.026-11.295,4.592-15.971,7.545
	c12.713,1.734,29.971,2.689,53.439,3.014c22.598,0.313,39.452-0.246,52.021-1.718c-4.506-2.787-9.557-5.274-15.241-7.339
	C114.326,59.636,102.201,57.27,87.694,56.863z"/>
<path fill="#B61A32" d="M100.861,93.039c-4.798,0-9.292,1.29-13.167,3.532c-3.875-2.242-8.369-3.532-13.167-3.532
	c-9.266,0-17.398,4.794-22.091,12.028c9.839-0.467,21.479-0.601,35.257-0.41c14.042,0.195,25.86,0.615,35.817,1.291
	C118.922,98.221,110.5,93.039,100.861,93.039z"/>
</svg>
